<svg width="22" height="22" viewBox="0 0 22 22" fill="none" xmlns="http://www.w3.org/2000/svg">
<path d="M20.7081 0.724041L20.708 0.72401C19.9418 0.271587 18.9539 0.52584 18.5015 1.29203C18.5015 1.29204 18.5015 1.29205 18.5015 1.29205L9.03639 17.3195L3.22543 11.7547C3.22542 11.7547 3.22542 11.7547 3.22542 11.7547C2.58276 11.1392 1.56294 11.1614 0.947547 11.8038L0.947489 11.8039C0.332113 12.4466 0.354144 13.4665 0.996763 14.0819L0.996778 14.0819L8.27574 21.0525C8.6311 21.3929 9.12239 21.552 9.60967 21.485L9.6097 21.485C10.097 21.4179 10.527 21.1318 10.7772 20.7083L10.7773 20.7082L21.276 2.93054L21.276 2.93051C21.7284 2.16437 21.4741 1.1765 20.7081 0.724041Z" fill="#0AFF89" stroke="black"/>
</svg>
