<svg width="60" height="60" viewBox="0 0 60 60" fill="none" xmlns="http://www.w3.org/2000/svg">
<g clip-path="url(#clip0_39_470)">
<path d="M59.6146 16.8041C59.2769 16.5509 58.816 16.547 58.474 16.7908L42.9111 27.8789C42.5465 28.1367 42.409 28.6041 42.5694 29.0159C42.7184 29.3991 42.7922 29.7844 42.7922 30.164C42.7922 31.8976 41.3834 33.3064 39.6498 33.3064C37.9184 33.3064 36.5078 31.8972 36.5078 30.164C36.5078 28.5059 37.8145 27.1347 39.4801 27.0441C39.8009 27.0262 40.0939 26.8508 40.2582 26.5757C40.4226 26.2971 40.4398 25.9591 40.2998 25.6647L30.8712 5.78767C30.5503 5.1087 29.4438 5.1087 29.1226 5.78767L19.6879 25.6805C19.5547 25.9648 19.5661 26.2993 19.7248 26.5757C19.8816 26.8522 20.1638 27.028 20.4789 27.0592C22.1108 27.2017 23.3391 28.54 23.3391 30.164C23.3391 31.8976 21.9293 33.3064 20.1968 33.3064C18.4642 33.3064 17.0544 31.8972 17.0544 30.164C17.0544 29.8564 17.1138 29.5258 17.2374 29.1573C17.3706 28.757 17.2338 28.3158 16.8939 28.0705L1.53906 16.7984C1.19707 16.5491 0.730812 16.547 0.392759 16.8002C0.0529163 17.0541 -0.0849547 17.4949 0.0529163 17.8956L11.1392 49.819C11.1467 49.8398 11.1675 49.8494 11.1761 49.8663C11.5159 53.6923 23.569 54.7218 29.9992 54.7218C36.4265 54.7218 48.4821 53.6962 48.8184 49.8663C48.8259 49.8473 48.8488 49.834 48.856 49.819L59.9412 17.8956C60.0887 17.497 59.9505 17.058 59.6146 16.8041ZM24.7991 23.9404L29.1283 14.8087C29.3603 14.3253 29.9451 14.124 30.4164 14.3489C30.9002 14.5785 31.1047 15.155 30.8773 15.6367L26.835 24.1528C28.3279 25.7929 29.1444 27.9004 29.1444 30.1597C29.1444 30.6922 28.7111 31.1266 28.1775 31.1266C27.6429 31.1266 27.2106 30.6922 27.2106 30.1597C27.2106 28.1919 26.4289 26.382 25.0097 25.0534C24.7085 24.7734 24.6204 24.319 24.7991 23.9404ZM30.0064 52.7873C19.4018 52.7873 13.2645 50.7497 13.084 49.7069C13.252 48.6609 19.3803 46.6157 30.0064 46.6157C40.6339 46.6157 46.7579 48.6609 46.9262 49.6994C46.7468 50.7497 40.6092 52.7873 30.0064 52.7873Z" fill="url(#paint0_linear_39_470)"/>
</g>
<defs>
<linearGradient id="paint0_linear_39_470" x1="30" y1="5.27844" x2="30" y2="54.7218" gradientUnits="userSpaceOnUse">
<stop stop-color="#FDFFA3"/>
<stop offset="1" stop-color="#FFE600"/>
</linearGradient>
<clipPath id="clip0_39_470">
<rect width="60" height="60" fill="white"/>
</clipPath>
</defs>
</svg>
