<?xml version="1.0" encoding="UTF-8" standalone="no"?>
<!-- Created with Inkscape (http://www.inkscape.org/) -->

<svg
   version="1.1"
   id="svg1"
   width="196.26404"
   height="300"
   viewBox="0 0 196.26404 300"
   xmlns="http://www.w3.org/2000/svg"
   xmlns:svg="http://www.w3.org/2000/svg">
  <defs
     id="defs1" />
  <g
     id="g1"
     transform="translate(-1134.5839,-521.01128)">
    <g
       id="group-R5"
       transform="matrix(0.06885869,0,0,0.06885869,1056.4579,485.13513)">
      <path
         id="path3"
         d="m 21170.4,3416.8 c -4738.3,0 -8579.6,646.1 -8579.6,1443 0,386.8 905,738.1 2378.5,997.2 -16.9,-258.1 17.9,-521.4 146.8,-751.4 130.6,-227.1 330.9,-421 579.6,-509.4 99.8,-40.1 267.4,-47.5 367.1,-60.8 113.6,-12.8 227.7,-23.4 341.8,-33.9 400.4,-31.7 857.9,-67.2 1323.3,-67.2 818.4,0 1661.3,109.7 2260.8,542.2 181,113.5 301.5,320.4 305.3,534.8 5.9,230.7 6.1,460.6 -1.3,691.1 -0.9,30.9 -1.9,61.8 -3.1,92.9 289.5,4.9 583.5,7.5 880.8,7.5 522.3,0 1034,-7.9 1530.6,-22.9 -131.5,-270.6 -115.9,-604.5 -54.2,-891.3 37.6,-155.5 137.2,-294.9 275,-377.8 82.8,-53.2 195.7,-78.3 288.7,-103.9 525.9,-131.9 1065.9,-190.3 1606.6,-190.3 368.8,0 738.1,27.2 1103.3,76.7 448.3,67.8 910.7,177.1 1320.4,392.2 201.6,84.8 370,280.5 393.4,506.3 5.1,37.9 9,76.1 11.8,114.6 1310.4,-253.4 2104,-584.4 2104,-946.6 0,-796.9 -3841.2,-1443 -8579.6,-1443"
         style="fill:#aecbea;fill-opacity:1;fill-rule:nonzero;stroke:none"
         transform="matrix(0.13333333,0,0,-0.13333333,0,5333.3333)" />
      <path
         id="path4"
         d="m 16556.7,32367.9 c -1383.6,-1119.8 -2452,-2504.2 -3311.5,-4064.4 -131.7,457.2 -236.6,1043 -295.6,1678.7 -116.3,1255 -54.5,2704 331.4,3738.3 42.7,114.9 139.9,198 255.2,225.2 1.8,0.5 3.7,0.9 5.9,1.4 23.6,5 48.2,7.7 73.1,8.2 7.7,0 15.5,0 23.6,-0.5 1034.9,-58.6 1995.7,-707 2917.9,-1586.9"
         style="fill:#faa327;fill-opacity:1;fill-rule:nonzero;stroke:none"
         transform="matrix(0.13333333,0,0,-0.13333333,0,5333.3333)" />
      <path
         id="path5"
         d="m 16556.7,32367.9 c -1383.6,-1119.8 -2452,-2504.2 -3311.5,-4064.4 -131.7,457.2 -236.6,1043 -295.6,1678.7 351.9,7.3 702,132.1 970.8,359.6 201.1,170.3 354.6,388.7 502.6,606.6 266.6,393.3 529.9,816 566.2,1290 31.8,407.8 -118.5,826 -402.3,1120.7 -283.8,294.2 -696.5,460 -1104.7,444.1 l 54,142.5 15.9,41.8 c -3.2,-13.2 -6.8,-26.8 -10,-40.4 -4.1,-17.2 -8.2,-34.5 -12.7,-51.8 28.2,20.9 56.8,40.9 85.8,60 7.7,0 15.5,0 23.6,-0.5 1034.9,-58.6 1995.7,-707 2917.9,-1586.9"
         style="fill:#ef7f25;fill-opacity:1;fill-rule:nonzero;stroke:none"
         transform="matrix(0.13333333,0,0,-0.13333333,0,5333.3333)" />
      <path
         id="path6"
         d="m 13618.6,33819.2 c -92.2,0 -177.5,-58.8 -210.2,-146.3 -506.9,-1358.8 -453.8,-3560.3 -116.2,-5008.4 868.1,1507.4 1871.8,2724.8 3058.3,3710.4 -1007.3,936.3 -1874.1,1395.9 -2719.5,1444 -4.1,0.2 -8.3,0.3 -12.4,0.3 m -373.4,-5652.1 c -5,0 -10.1,0.3 -15.2,0.9 -54.8,6.1 -100.5,44.7 -115.8,97.7 -421.8,1465.5 -526.8,3985.9 39,5502.4 75.5,202.3 278.6,334.7 493.2,322.8 944.9,-53.7 1899.5,-569.9 3004.4,-1624.5 28.3,-27.1 43.6,-65 42,-104.1 -1.6,-39.2 -20,-75.7 -50.4,-100.4 -1288.7,-1042.7 -2360.9,-2359 -3277.9,-4024.3 -24.1,-43.8 -70.1,-70.5 -119.3,-70.5"
         style="fill:#000072;fill-opacity:1;fill-rule:nonzero;stroke:none"
         transform="matrix(0.13333333,0,0,-0.13333333,0,5333.3333)" />
      <path
         id="path7"
         d="m 15285.3,31505.1 -1543.8,-1680 c -103.1,206.1 -174.4,464 -216.6,741.9 -100.4,656.6 -40,1424.4 143,1881.2 20.4,50 41.8,96.3 64.5,138.1 46.7,85.3 155.3,115.3 237,62.2 371.9,-240.2 828.7,-659.3 1315.9,-1143.4"
         style="fill:#ffffff;fill-opacity:1;fill-rule:nonzero;stroke:none"
         transform="matrix(0.13333333,0,0,-0.13333333,0,5333.3333)" />
      <path
         id="path8"
         d="m 13708.6,30329 c -22.9,96.3 -41.6,197 -56.2,300.4 48.6,24.8 96.8,50.5 144.5,77 89,49.1 176.1,102.2 252.4,168.9 126.6,110.9 217.5,259.2 266.5,420.2 50.3,15.7 77.1,86.1 35.5,136.6 -1.3,1.5 -2.6,3.1 -3.8,4.6 1.6,10.8 3,21.7 4.2,32.6 5.5,49.7 7.2,99.7 5.3,149.6 12.9,8.1 27.4,13.6 42.4,15.1 75.5,7.6 111.3,87.6 60.7,146.6 -65.9,76.8 -186.4,176.6 -174.1,290.1 3.8,34.5 22.9,67.8 55.2,83 9.6,4.5 19.7,6.5 29.9,6.5 5.2,0 10.4,-0.5 15.7,-1.4 151.7,-129.6 320.2,-283.2 508.4,-463.2 -471.8,-410.6 -872.1,-872.1 -1186.6,-1366.6 m 456.3,1873.3 c -50.8,73.4 -113.8,138.2 -193.2,176.9 -44.4,21.3 -94.6,32.8 -144.1,32.8 -9.3,0 -18.5,-0.4 -27.7,-1.2 16.4,39.6 33.8,76.5 52.1,110.2 6.3,11.5 16,15.4 21.2,16.8 2.5,0.6 4.9,0.9 7.3,0.9 5.3,0 10.2,-1.5 14.9,-4.5 104.6,-67.6 220.1,-152.5 348.6,-256.6 -11.5,-6.2 -22.7,-13.8 -33.4,-22.9 -17.8,-15.1 -33.1,-32.8 -45.7,-52.4"
         style="fill:#d9d9ea;fill-opacity:1;fill-rule:nonzero;stroke:none"
         transform="matrix(0.13333333,0,0,-0.13333333,0,5333.3333)" />
      <path
         id="path9"
         d="m 13880.5,32538.7 c -2.4,0 -4.8,-0.3 -7.3,-0.9 -5.2,-1.4 -14.9,-5.3 -21.2,-16.8 -273.2,-501.4 -335.9,-1703 -67.9,-2448.2 l 1312,1427.8 c -521.3,512.3 -904.5,842.1 -1200.7,1033.6 -4.7,3 -9.6,4.5 -14.9,4.5 m -139,-2849.9 c -6.3,0 -12.7,0.5 -19,1.4 -44.4,6.2 -82.8,33.9 -102.9,74 -400.1,800.1 -337,2281 -6.8,2887.1 40.7,74.8 111.2,129.6 193.2,150.5 80.8,20.5 167.3,6.4 237.3,-38.8 334.4,-216.2 747,-574.3 1338,-1161.2 51.9,-51.6 53.8,-134.9 4.3,-188.8 l -1543.8,-1680.1 c -26,-28.3 -62.5,-44.1 -100.3,-44.1"
         style="fill:#000072;fill-opacity:1;fill-rule:nonzero;stroke:none"
         transform="matrix(0.13333333,0,0,-0.13333333,0,5333.3333)" />
      <path
         id="path10"
         d="m 15122.9,31708.4 c -11.9,70.1 -84.4,128.8 -134.1,175.2 -57.8,54.1 -117.8,105.7 -179.4,155.4 -61.7,49.8 -122.1,102 -188.1,146 -62.7,41.7 -127.9,88.5 -201.9,107.1 -74.1,18.5 -149,13.2 -208.8,-37.4 -53.6,-45.3 -84.1,-114.8 -89,-184 -12.1,-170.3 115,-293.4 217,-411.6 20.3,48.9 40.5,97.8 60.8,146.7 -115.9,-12.1 -213.8,-81.3 -252.3,-193.7 -36.3,-106.3 5,-251 105.5,-307.9 84.4,-47.7 155.7,58.8 98.7,127.9 -30.9,37.3 -58.9,77.9 -41.3,128.8 12.8,36.8 49.4,69.1 89.4,73.1 75.5,7.6 111.3,87.6 60.7,146.6 -65.9,76.8 -186.4,176.6 -174.1,290.1 3.8,34.5 22.9,67.8 55.2,83 49.6,23.4 110.9,-22.2 151.4,-47.6 105.2,-65.8 210.7,-132.4 308.1,-209.5 49.8,-39.4 98.4,-80.3 145.7,-122.7 40.6,-36.3 89.9,-86.3 145.1,-96.9 20.2,-3.8 34.8,11.6 31.4,31.4"
         style="fill:#000072;fill-opacity:1;fill-rule:nonzero;stroke:none"
         transform="matrix(0.13333333,0,0,-0.13333333,0,5333.3333)" />
      <path
         id="path11"
         d="m 23640.1,21288.6 -3473.1,-815.9 -3292.5,-773.3 c -1272.3,581.2 -2417,1225.5 -3151.2,2072.8 -208,239.8 -368.7,514.5 -478.1,809.2 -86.8,232.9 -141.2,478.5 -162.1,728.7 -50.4,614.8 -42.3,1394.5 -7.3,2249.5 25.9,638.9 67.2,1320 109.9,2006 7.2,111.3 -20,222.1 -77.2,317.4 -28.2,46.8 -43.1,100.4 -43.1,154.9 0,6.3 0,12.7 0.4,19.1 2.3,34.9 5.5,69.9 8.6,104.8 30,312.9 95.4,620.7 192.6,920.9 777.3,2409.7 3577.1,4318.6 6241.1,4147.9 659.8,983.9 1318.2,1957.9 1919.3,2448.8 106.7,87.6 211.6,159.8 314.7,213.8 180.7,95.4 398.7,80.9 567.1,-35.4 1112.5,-769.6 2552.8,-3626.2 2874.7,-5805.7 39.1,-68.5 77.7,-138.9 115.8,-211.6 435,-830.5 795.1,-1922 967.6,-3048.6 372.4,-2431.5 -128.5,-5025.1 -2627.2,-5503.3"
         style="fill:#faa327;fill-opacity:1;fill-rule:nonzero;stroke:none"
         transform="matrix(0.13333333,0,0,-0.13333333,0,5333.3333)" />
      <path
         id="path12"
         d="m 13206.1,28105.4 c 1.3,14.5 2.6,29.1 3.9,43.4 28.5,297.6 91.3,597.7 186.6,892.1 741.8,2299.4 3283.3,4064.3 5772.1,4064.3 110.3,0 220.8,-3.5 330.7,-10.6 2.9,-0.1 5.8,-0.2 8.7,-0.2 45.3,0 87.8,22.5 113.1,60.3 713.2,1063.7 1521.5,2269.4 2184.5,2618.1 59.7,31.5 124.9,47.1 190,47.1 82.4,0 164.8,-25 236,-74.1 333,-230.3 691.6,-646.3 1039.1,-1173.2 -295.7,408.5 -593.4,730.1 -870.7,922 -94.2,64.9 -203.8,98.1 -313.7,98.1 -86.8,0 -173.8,-20.7 -253.5,-62.7 -103.1,-54.1 -207.9,-126.3 -314.6,-213.9 -550.5,-449.4 -1148.9,-1303.9 -1752.4,-2200.2 -99.9,-148.3 -266.6,-238.2 -445.2,-238.2 -1.7,0 -3.4,0 -5.1,0 -16.8,0.2 -33.6,0.2 -50.5,0.2 -461.1,0 -923.6,-60.1 -1376.3,-171.9 118.5,-33.8 198,-91 220.9,-170.3 65.3,-226.3 -353.5,-545.9 -935.3,-713.8 -234.9,-67.8 -460.4,-100.4 -650.1,-100.4 -269.7,0 -467.1,66 -516.3,191.2 -1241.4,-760.7 -2234.8,-1905.3 -2650.2,-3193.3 -65.3,-201.5 -116.2,-406.4 -151.7,-614"
         style="fill:#fddaa9;fill-opacity:1;fill-rule:nonzero;stroke:none"
         transform="matrix(0.13333333,0,0,-0.13333333,0,5333.3333)" />
      <path
         id="path13"
         d="m 25299.7,29840.5 c -2.3,1.8 -4.6,3.5 -7,5.2 -467.6,346.8 -814.5,831.2 -981.4,1389 -156,521.1 -321.8,1039.4 -497.3,1554.5 -302.4,888.2 -641.1,1780.9 -1211,2526.9 -98.5,129 -208.8,257.5 -355.5,327.8 -247,119.5 -539.9,52.3 -805.5,-17.2 l -14.6,52.7 c 106.7,87.6 211.6,159.8 314.7,213.8 180.7,95.4 398.7,80.9 567.1,-35.4 1112.5,-769.6 2552.8,-3626.2 2874.7,-5805.7 39.1,-68.5 77.7,-138.9 115.8,-211.6"
         style="fill:#ef7f25;fill-opacity:1;fill-rule:nonzero;stroke:none"
         transform="matrix(0.13333333,0,0,-0.13333333,0,5333.3333)" />
      <path
         id="path14"
         d="m 23640.1,21288.6 -3473.1,-815.9 -3292.5,-773.3 c -1272.3,581.2 -2417,1225.5 -3151.2,2072.8 -208,239.8 -368.7,514.5 -478.1,809.2 426.3,-526.8 1041.1,-915 1691.8,-1128.8 964.5,-316.5 2004.7,-301.5 3016.4,-220.3 1680,135.3 3373.7,454.6 4868,1234.2 1494.4,779.2 2779.4,2064.6 3283.8,3672.5 67.2,214.7 120.4,432.7 162.1,652.9 372.4,-2431.5 -128.5,-5025.1 -2627.2,-5503.3"
         style="fill:#ef7f25;fill-opacity:1;fill-rule:nonzero;stroke:none"
         transform="matrix(0.13333333,0,0,-0.13333333,0,5333.3333)" />
      <path
         id="path15"
         d="m 22114,22181.8 c -9.1,-19.1 -18.2,-38.2 -27.7,-56.8 -163,-324.2 -366,-554.8 -450,-644.3 -165.3,-175.3 -346.9,-335.1 -542.1,-476.3 -288.8,-209.3 -604.9,-376.9 -927.2,-531.7 l -3292.5,-773.3 c -1272.3,581.2 -2417,1225.5 -3151.2,2072.8 -156.2,179.8 -285.2,379.2 -386.4,592.1 -16.8,35.4 -33.2,71.3 -48.1,107.6 -7.8,17.7 -15,35.9 -22.3,54.5 -7.3,18.2 -14.5,36.4 -21.3,55 -86.8,232.9 -141.2,478.5 -162.1,728.7 -50.4,614.8 -42.3,1394.5 -7.3,2249.5 173.4,262 367.3,509.9 623.9,687.9 440,306.5 1003,366.4 1538.8,379.1 521.7,11.8 1079.8,-23.6 1499.3,-333.2 213.5,-157.6 376,-376 590.3,-532.7 7.7,-5.9 18.6,-9 29.1,-9.5 l -67.7,-53.6 c 697.5,-301.5 1497.1,-360.1 2231.3,-163 747.4,200.7 786,269.7 1125.7,241.1 652,-54.9 1089.7,-569.8 1177.3,-672.9 392.8,-461.8 452.3,-964.9 499.5,-1362.2 33.2,-280.6 99.5,-904.5 -209.3,-1558.8"
         style="fill:#ffffff;fill-opacity:1;fill-rule:nonzero;stroke:none"
         transform="matrix(0.13333333,0,0,-0.13333333,0,5333.3333)" />
      <path
         id="path16"
         d="m 14414.7,21293.7 c -215.1,177.4 -414,366.4 -588.5,567.7 -106.7,123.1 -200.9,257.4 -281.7,400 339.2,-315.6 749.9,-564 1184.6,-734.1 l -314.4,-233.6 M 22015,22096 c 23.8,9.6 47.6,19.3 71.3,29 -3.3,-6.5 -6.6,-13 -9.9,-19.5 -20.5,-3.1 -41,-6.3 -61.4,-9.5"
         style="fill:#d9d9ea;fill-opacity:1;fill-rule:nonzero;stroke:none"
         transform="matrix(0.13333333,0,0,-0.13333333,0,5333.3333)" />
      <path
         id="path17"
         d="m 13490.5,28226.3 c -151.1,-60.5 -300.5,-94.3 -434.1,-101.9 23.6,302.6 81.5,600.9 170.2,892.4 397.4,146 775.8,102.7 858.4,-102.9 85.7,-213.8 -180.3,-521.5 -594.5,-687.6"
         style="fill:#fff3e9;fill-opacity:1;fill-rule:nonzero;stroke:none"
         transform="matrix(0.13333333,0,0,-0.13333333,0,5333.3333)" />
      <path
         id="path18"
         d="m 19168.7,33105.2 c -2488.8,0 -5030.3,-1764.9 -5772.1,-4064.3 -95.3,-294.4 -158.1,-594.5 -186.6,-892.1 -3,-33.1 -6.1,-66.9 -8.3,-100.7 -0.2,-4.1 -0.1,-7.2 -0.1,-10.2 0,-29.7 8.1,-58.9 23.6,-84.6 72.2,-120.3 105.5,-257.3 96.4,-396.5 -43.2,-694.2 -84.1,-1370.1 -109.7,-2002.7 -40,-978 -37.8,-1687.5 6.9,-2232.8 44.7,-541 260.4,-1059.5 607.4,-1459.9 777.2,-896.8 2038.3,-1548.8 3062.6,-2018.7 l 6720.2,1578.6 c 1.8,0.4 3.6,0.8 5.5,1.1 1023.8,195.9 1762.1,771.5 2194.5,1711 873.9,1898.9 294.6,5034.8 -743.3,6851.1 -8.5,14.8 -14.1,30.9 -16.5,47.7 -312.6,2116 -1708.1,4946.1 -2817.5,5713.6 -127.5,88 -290.8,98.4 -426,27 -663,-348.7 -1471.3,-1554.4 -2184.5,-2618.1 -27,-40.3 -73.4,-63.1 -121.8,-60.1 -109.9,7.1 -220.4,10.6 -330.7,10.6 m -2294.2,-13542 c -19.4,0 -38.7,4.1 -56.6,12.3 -1056.8,482.8 -2375.3,1158.6 -3197.5,2107.5 -384.7,443.8 -623.7,1017.6 -673.1,1615.9 -45.7,556.8 -48.1,1276.9 -7.6,2266.3 25.7,635.2 66.7,1312.8 110,2008.9 5.5,84 -14.6,166.5 -58,238.9 -40.9,67.9 -62.6,145.7 -62.6,224.9 0,9.6 0.1,19.3 0.8,28.9 2.3,35.1 5.6,71.2 8.9,107.3 30.4,318 97.2,637.5 198.6,950.5 387.5,1201.2 1263.6,2306.8 2466.8,3112.9 1188,795.9 2546.4,1197.3 3834,1133.5 753.4,1123.5 1530.3,2269.2 2240.5,2642.8 225.2,118.8 496.5,102 707.9,-43.9 1154,-798.4 2599.5,-3700.2 2928.3,-5872.5 1086.9,-1918.6 1660.3,-5081.5 741.6,-7077.9 -470.9,-1023.1 -1274.3,-1650.2 -2387.9,-1864.1 l -6762.9,-1588.6 c -10.3,-2.4 -20.7,-3.6 -31.2,-3.6"
         style="fill:#000072;fill-opacity:1;fill-rule:nonzero;stroke:none"
         transform="matrix(0.13333333,0,0,-0.13333333,0,5333.3333)" />
      <path
         id="path19"
         d="m 22185.3,29187.6 c -735.6,-242.5 -1405.8,-414.1 -1635.6,-1065.3 -41.7,-118.5 -63.5,-243.8 -66.7,-369.6 -43.6,-1687.3 -1234.6,-3032.7 -3199.8,-2768.4 -96.7,12.7 -194.8,29.5 -295.2,50.4 -251.1,75.8 -492.2,155.7 -723.3,239.3 -77.2,27.7 -153.5,55.8 -228.8,84.9 -187.1,70.8 -368.3,144.4 -543.6,219.8 -136.6,58.5 -270.1,118.9 -400.9,179.8 -107.6,50.8 -223.4,84.4 -342.4,89.9 -835.4,39 -1120.6,-1137.5 -1496.6,-1631 -4.5,-5.9 -8.6,-11.4 -13.1,-16.8 -37.3,-47.3 -98.6,-69.1 -156.7,-54.1 -238.8,61.8 -410,186.7 -499,388.7 -56.8,209.3 -108.1,431.4 -155.3,663.4 -108.5,536.7 -193,1128.4 -264.3,1750.9 -22.7,195.2 72.2,385 241.1,485.4 135.8,80.3 282,160.3 438.7,239.3 330.1,167.1 704.7,330.1 1112.9,488.5 583,226.2 1235.5,441.9 1926.6,642.5 221.6,65 447.2,128.1 676.1,189.4 108.1,29.1 217,57.7 326.9,85.8 297,76.8 598,150.3 901.3,220.7 1423.5,331.5 2892.9,592.5 4189.3,751.5 122.6,15 240.6,-49.5 295.6,-160.3 62.2,-125.8 102.1,-256.1 117.6,-392.3 15.9,-138.5 -72.2,-268.4 -204.8,-312.4"
         style="fill:#000072;fill-opacity:1;fill-rule:nonzero;stroke:none"
         transform="matrix(0.13333333,0,0,-0.13333333,0,5333.3333)" />
      <path
         id="path20"
         d="m 13119.6,24255.3 c -2.9,0 -5.8,0.4 -8.6,1.1 -209.8,54.3 -347.4,158.1 -420.2,317.1 -53.1,196.8 -102.6,408.8 -151.2,647.6 -24.5,121.2 -48.3,247.6 -71.3,379.6 74.5,678.7 182.5,1324.5 336.5,1926 29.8,15.5 59.9,30.9 90.2,46.2 290.2,146.9 628.3,296.8 1006.3,446.2 -322.1,-873.8 -515.9,-2111.2 -631.3,-3569.6 -35.8,-60.5 -71.4,-115.5 -107.4,-162.8 l -3.3,-4.2 c -2.3,-3.1 -4.6,-6.1 -9.2,-11.7 -7.8,-9.8 -19.2,-15.5 -30.5,-15.5"
         style="fill:#6666aa;fill-opacity:1;fill-rule:nonzero;stroke:none"
         transform="matrix(0.13333333,0,0,-0.13333333,0,5333.3333)" />
      <path
         id="path21"
         d="m 16045.8,25476.5 c -169.1,64.6 -340,133.9 -508.7,206.5 -12.6,5.4 -25.3,10.9 -38.1,16.4 62.7,1097.1 170.5,2110.9 356.4,2979.5 19.9,5.8 39.8,11.6 59.8,17.4 197.3,57.8 403.5,115.8 613.7,172.6 -225.4,-952.8 -374.3,-2117.3 -483.1,-3392.4"
         style="fill:#6666aa;fill-opacity:1;fill-rule:nonzero;stroke:none"
         transform="matrix(0.13333333,0,0,-0.13333333,0,5333.3333)" />
      <path
         id="path22"
         d="m 17284,25098.7 c -87,11.8 -177,27.3 -268,46.1 -243.9,73.8 -483.7,153.1 -712.9,236 -9.3,3.4 -18.6,6.7 -27.9,10.1 120.4,1316.9 303.9,2521 577.4,3563.6 20.7,5.4 41.4,10.7 62.1,16 272.3,70.4 555.8,140 843.8,207.2 -119.7,-514.1 -215.8,-1032.9 -289.4,-1556.1 -178.5,-68 -386.9,-139.7 -628.5,-221.3 233.7,56.2 437.9,104.1 617.4,140.9 -109.5,-803.9 -166.2,-1618.4 -174,-2442.5"
         style="fill:#6666aa;fill-opacity:1;fill-rule:nonzero;stroke:none"
         transform="matrix(0.13333333,0,0,-0.13333333,0,5333.3333)" />
      <path
         id="path23"
         d="m 22185.3,29187.6 h 0.5 -0.5 m -9494.5,-4614.1 c 72.8,-159 210.4,-262.8 420.2,-317.1 13.9,-3.6 29.3,2.1 39.1,14.4 4.6,5.6 6.9,8.6 9.2,11.7 l 3.3,4.2 c 96.3,126.5 190.5,308.9 290.2,502 277,536.8 623.1,1204.1 1301.5,1173.1 126.8,-5.8 256.5,-39.7 385.6,-100.7 144.8,-67.4 275,-125.7 397.2,-178.1 178.7,-76.9 360,-150.2 538.9,-218 75.2,-28.9 150.7,-56.8 227.1,-84.2 229.2,-82.9 469,-162.2 712.9,-236 95.9,-19.8 190.7,-36 282,-48 848.4,-114 1590.1,75.7 2145.2,548.6 574.8,489.8 903.8,1239.2 926.3,2110.3 3.6,140.7 28.2,276.8 73.2,404.4 231.4,655.9 869.9,863.2 1545.8,1082.7 53.2,17.3 107,34.7 161.1,52.5 83.5,27.8 137.2,108.4 127.7,191.7 -13.8,121.8 -48.7,237.8 -106.6,355 -33.5,67.5 -105.6,106.8 -180.1,97.9 -1306.1,-160.1 -2789.6,-426.3 -4177.2,-749.4 -306.8,-71.2 -609.1,-145.2 -898.7,-220 -109.7,-28.1 -218.2,-56.6 -325.8,-85.5 -231,-61.9 -457.7,-125.4 -673.7,-188.7 -710.1,-206.2 -1355.1,-421.3 -1917.5,-639.4 -417,-161.9 -788,-324.7 -1102.7,-484 -152.1,-76.8 -297.5,-156 -432,-235.7 -130.5,-77.5 -203.7,-224.6 -186.2,-374.6 78.5,-685.9 164.5,-1255.5 262.8,-1741.5 48.6,-238.8 98.1,-450.8 151.2,-647.6 m 428.9,-545.2 c -21.8,0 -43.8,2.7 -65.4,8.3 -280.9,72.6 -474.2,225 -574.6,452.9 -2.3,5.2 -4.2,10.5 -5.7,16 -55.3,203.9 -106.6,423.3 -156.9,670.5 -99.6,492.5 -186.6,1068.4 -265.8,1760.6 -27.8,238.6 88.3,472.6 295.9,595.9 139,82.3 288.9,164.1 445.4,243 321.2,162.6 699,328.5 1123,493 568.5,220.6 1219.9,437.8 1936,645.8 217.5,63.7 445.8,127.6 678.4,189.9 108.4,29.2 217.8,57.9 328.1,86.2 291.2,75.2 595.3,149.7 903.9,221.3 1395.1,324.8 2887.2,592.5 4201.1,753.5 169.7,21 334.8,-68.6 411.1,-222.5 68.8,-139.2 112.1,-283.9 128.6,-430 21.8,-189.3 -96.7,-371.4 -281.7,-432.9 h -0.3 c -54.5,-18 -108.6,-35.6 -162.2,-53 -648,-210.4 -1207.7,-392.1 -1401.8,-942.2 -37.1,-105.1 -57.4,-217.8 -60.3,-334.7 -24.2,-936.4 -381.5,-1745.1 -1006,-2277.3 -605.7,-515.9 -1408.7,-723.6 -2322.5,-600.8 -98,12.9 -200.1,30.3 -303.1,51.8 -3.3,0.6 -6.5,1.5 -9.7,2.4 -249.4,75.4 -494.8,156.5 -729.1,241.2 -77.8,27.9 -154.9,56.4 -231.1,85.8 -181.4,68.6 -365.8,143.2 -547.5,221.4 -124.2,53.2 -256.4,112.5 -404,181.1 -102.3,48.4 -203,75 -299.7,79.5 -533.8,25.6 -829.2,-546.3 -1089.3,-1050.4 -104.4,-202.2 -202.9,-393.1 -311.8,-536 l -3.2,-4.2 c -4.4,-5.8 -8.6,-11.3 -13.3,-16.8 -49.7,-63.1 -126.7,-99.3 -206.5,-99.3"
         style="fill:#000072;fill-opacity:1;fill-rule:nonzero;stroke:none"
         transform="matrix(0.13333333,0,0,-0.13333333,0,5333.3333)" />
      <path
         id="path24"
         d="m 19253.9,26067.8 c -392.6,1161.9 -555.9,1554.8 -1171.2,1554.8 -169.3,0 -372.7,-29.7 -624.7,-81.4 3.6,26.9 7.3,53.5 11.1,80.4 947.3,360.6 1053.2,614.4 823.2,1677.4 18.4,4 36.8,8.1 55.2,12.1 282.4,-775.6 480.5,-1052.3 996.7,-1052.3 290,0 680.2,87.2 1242.2,222.4 -1709.5,-577.7 -1754.4,-659 -1332.5,-2413.4"
         style="fill:#a6a6ce;fill-opacity:1;fill-rule:nonzero;stroke:none"
         transform="matrix(0.13333333,0,0,-0.13333333,0,5333.3333)" />
      <path
         id="path25"
         d="m 18242.5,29520.5 c -21.4,92.1 -44.6,189.8 -69.5,293.1 34.3,-101.4 66.8,-196.9 98,-286.9 -9.5,-2 -19,-4.1 -28.5,-6.2"
         style="fill:#fddfb4;fill-opacity:1;fill-rule:nonzero;stroke:none"
         transform="matrix(0.13333333,0,0,-0.13333333,0,5333.3333)" />
      <path
         id="path26"
         d="m 16840.6,27400.3 c 241.6,81.6 450,153.3 628.5,221.3 -3.8,-26.9 -7.5,-53.5 -11.1,-80.4 -179.5,-36.8 -383.7,-84.7 -617.4,-140.9"
         style="fill:#cacae1;fill-opacity:1;fill-rule:nonzero;stroke:none"
         transform="matrix(0.13333333,0,0,-0.13333333,0,5333.3333)" />
      <path
         id="path27"
         d="m 18292.3,29299 c -15.2,70.2 -31.8,143.9 -49.8,221.5 9.5,2.1 19,4.2 28.5,6.2 26.3,-75.7 51.8,-147.6 76.5,-215.6 -18.4,-4 -36.8,-8.1 -55.2,-12.1"
         style="fill:#a6a6ce;fill-opacity:1;fill-rule:nonzero;stroke:none"
         transform="matrix(0.13333333,0,0,-0.13333333,0,5333.3333)" />
      <path
         id="path28"
         d="m 13629.1,24660.4 c 227.5,380.3 664.3,594.9 1078.8,583.7 48.1,-1.3 89.1,-39.8 96.5,-91.8 45.5,-318.9 -46,-687 -284.2,-940.6 -39.4,-42 -93.9,-63.4 -148.7,-58.9 -303.1,24.7 -650.6,176.4 -747.8,349.1 -27.4,48.6 -23.2,110.7 5.4,158.5"
         style="fill:#000072;fill-opacity:1;fill-rule:nonzero;stroke:none"
         transform="matrix(0.13333333,0,0,-0.13333333,0,5333.3333)" />
      <path
         id="path29"
         d="m 13629.1,24660.4 h 0.5 -0.5 m 1046.5,497.2 c -394.7,0 -773.7,-210.3 -972,-541.8 -13.6,-22.9 -15.3,-51.5 -4.2,-71.3 78.5,-139.4 395.9,-282 679.2,-305.1 28.4,-2.2 57.1,9.2 78.2,31.7 206.4,219.8 306.6,552.7 261.6,869 -1.6,10.8 -8.6,17 -12.9,17.1 -9.9,0.3 -20,0.4 -29.9,0.4 M 14386,24065.3 c -7.2,0 -14.3,0.3 -21.6,0.9 -306.6,25 -695.9,178.9 -816.4,393.1 -42,74.6 -39.5,168.8 6.5,245.7 235,392.8 689.7,639.1 1155.7,625.9 91,-2.4 166.8,-72.4 180.2,-166.3 52.3,-367.2 -65.3,-755.2 -306.9,-1012.4 -52.5,-55.9 -123.5,-86.9 -197.5,-86.9"
         style="fill:#000072;fill-opacity:1;fill-rule:nonzero;stroke:none"
         transform="matrix(0.13333333,0,0,-0.13333333,0,5333.3333)" />
      <path
         id="path30"
         d="m 13844.2,24587.7 c -26.6,0 -46.6,7.1 -57.2,22.1 -35.1,50.2 48.1,169.2 185.9,265.9 96.5,67.7 194.2,106.5 256.1,106.5 26.6,0 46.6,-7.1 57.2,-22.2 35.1,-50.1 -48.1,-169.1 -185.9,-265.8 -96.5,-67.7 -194.2,-106.5 -256.1,-106.5"
         style="fill:#9999c7;fill-opacity:1;fill-rule:nonzero;stroke:none"
         transform="matrix(0.13333333,0,0,-0.13333333,0,5333.3333)" />
      <path
         id="path31"
         d="m 14557.4,24213.9 c 31.6,-224.8 98.9,-440.6 210.1,-632.1 l -85.4,64 c 257.2,-82.3 522.4,-144.8 792.2,-188.2 108.6,-10.7 333.9,46.2 466.2,137.5 45.9,29.3 94.6,-38 51.8,-72.3 -149.3,-122.3 -335.5,-213.7 -532.8,-225.8 -280.7,7.2 -562.6,34.6 -842.4,84.3 -35.8,6.3 -64.9,28.2 -81.6,57.4 -133.2,227.2 -212.4,482.7 -247.8,736.7 -10.8,74.7 41.2,144 116,154.4 74.5,10.5 143.3,-41.4 153.7,-115.9"
         style="fill:#000072;fill-opacity:1;fill-rule:nonzero;stroke:none"
         transform="matrix(0.13333333,0,0,-0.13333333,0,5333.3333)" />
      <path
         id="path32"
         d="m 14755.4,23472.4 c -120.7,-240.2 -288.1,-454.8 -489.4,-619.4 -15.2,-12.4 -37.5,-10.2 -49.9,5 -10.9,13.2 -10.5,31.9 -0.2,44.7 157.4,194.9 265.8,419.1 327.9,652 50.7,159.8 282.2,69.9 211.6,-82.3"
         style="fill:#000072;fill-opacity:1;fill-rule:nonzero;stroke:none"
         transform="matrix(0.13333333,0,0,-0.13333333,0,5333.3333)" />
      <path
         id="path33"
         d="m 17842.4,30018.3 c -62.9,251.5 -509.2,356.6 -997,234.7 -487.7,-121.9 -832.1,-424.6 -769.3,-676.2 62.9,-251.5 509.3,-356.5 997,-234.6 487.7,121.9 832.2,424.6 769.3,676.1"
         style="fill:#fff3e9;fill-opacity:1;fill-rule:nonzero;stroke:none"
         transform="matrix(0.13333333,0,0,-0.13333333,0,5333.3333)" />
      <path
         id="path34"
         d="m 23140.6,32095.4 c -832.3,490.9 -1665,854.1 -2497.3,1089.8 149.8,414.1 482.2,995.3 863.1,1497.5 142.6,188 406.9,237.9 605.8,110.8 39,-25 77.2,-53.6 113.9,-85.8 412.8,-361.9 669.8,-1162 825.5,-2030.2 34.5,-192 64.1,-387.3 89,-582.1"
         style="fill:#ffffff;fill-opacity:1;fill-rule:nonzero;stroke:none"
         transform="matrix(0.13333333,0,0,-0.13333333,0,5333.3333)" />
      <path
         id="path35"
         d="m 23140.6,32095.4 c -832.3,490.9 -1665,854.1 -2497.3,1089.8 149.8,414.1 482.2,995.3 863.1,1497.5 89.2,117.6 226.1,181.2 364.7,181.2 83,0 166.6,-22.8 241.1,-70.4 39,-25 77.2,-53.6 113.9,-85.8 l 4.1,-41.4 c -31.7,13.8 -65.7,20.1 -99.9,20.1 -66.1,0 -133.4,-23.4 -188.4,-61.4 -83.6,-57.2 -142.6,-143.9 -189.3,-233.8 -215.7,-413.7 -177.1,-978.1 172,-1286.8 65.9,-58.6 140.4,-106.3 216.2,-150.3 276.5,-159.9 594.8,-270.2 910.8,-276.6 34.5,-192 64.1,-387.3 89,-582.1"
         style="fill:#d9d9ea;fill-opacity:1;fill-rule:nonzero;stroke:none"
         transform="matrix(0.13333333,0,0,-0.13333333,0,5333.3333)" />
      <path
         id="path36"
         d="m 20824.5,33274.2 c 712,-214.3 1430.9,-523.6 2142.7,-922 -188.1,1241.3 -514.6,2062.8 -928.2,2326.5 -137.7,87.9 -324,53.3 -424,-78.5 -326.7,-430.5 -625.8,-934.2 -790.5,-1326 z m 2316.1,-1315 c -23.8,0 -47.8,6.2 -69.1,18.9 -818.5,482.5 -1647.9,844.5 -2465.3,1076 -36.4,10.3 -66.9,35.3 -84.1,68.9 -17.3,33.7 -19.8,72.9 -6.9,108.5 157.7,436.1 495.9,1023.6 882.7,1533.4 185.2,244 531.1,307 787.6,143.6 527.5,-336.4 894.3,-1276.9 1090.2,-2795.7 6.7,-51.5 -16.6,-102.4 -60,-131.1 -22.7,-15 -48.9,-22.5 -75.1,-22.5"
         style="fill:#000072;fill-opacity:1;fill-rule:nonzero;stroke:none"
         transform="matrix(0.13333333,0,0,-0.13333333,0,5333.3333)" />
      <path
         id="path37"
         d="m 20760.8,33233.6 c 17.6,23.6 39.8,46.5 53.9,72.2 15.6,28.3 24.4,60.8 36.7,90.6 23.5,57.5 51.1,113.5 80.9,167.9 51.6,94.1 112,210.7 198.1,278.4 79.8,62.8 131.6,12 146.1,-72.7 19.6,-115 -12.7,-241.6 -57.1,-348.1 -19.5,-46.9 13.1,-108.3 53.8,-132 47.9,-28.1 100.9,-14.9 141.7,18.2 42,34.2 148.9,126.1 200.1,68.1 20,-22.6 21.9,-69.2 22.8,-100.2 2.1,-66.1 -12.1,-146.6 28.4,-203.1 40.8,-56.9 149.9,-81.3 184.6,0 34.5,81 25,194.9 12.2,282.1 -12.2,83.2 -47.8,162.2 -116,214.1 -168.1,127.6 -359.1,16.2 -497.5,-95.6 65.2,-37.9 130.3,-75.9 195.4,-113.8 63.3,151 86.2,339.1 37.1,497.9 -48.4,156.5 -190.4,267.3 -358.7,215.9 -155.6,-47.6 -247.8,-202.7 -322.7,-336.3 -40.1,-71.6 -74.8,-145.9 -105.8,-221.8 -16,-39.1 -33.5,-79.6 -44.6,-120.5 -11.7,-43.4 -8,-85.8 -4.5,-130.1 5.2,-63.8 78.2,-80.5 115.1,-31.2"
         style="fill:#000072;fill-opacity:1;fill-rule:nonzero;stroke:none"
         transform="matrix(0.13333333,0,0,-0.13333333,0,5333.3333)" />
      <path
         id="path38"
         d="m 10263.7,16271 -489.47,-323 c -168.34,-111 -394.84,-64.6 -505.91,103.8 l -562.51,852.5 c -111.07,168.3 -64.64,394.8 103.7,505.9 l 489.5,323 c 168.34,111 394.84,64.6 505.91,-103.7 l 562.48,-852.6 c 111.1,-168.3 64.7,-394.8 -103.7,-505.9"
         style="fill:#ffbb94;fill-opacity:1;fill-rule:nonzero;stroke:none"
         transform="matrix(0.13333333,0,0,-0.13333333,0,5333.3333)" />
      <path
         id="path39"
         d="m 9573.63,16023.9 c -15.44,0 -31,1.5 -46.49,4.7 -59.89,12.2 -111.45,47.1 -145.12,98.1 l -562.52,852.6 c -54.31,82.3 -48.38,187.2 7.1,262.3 l 248.65,-447.4 c 66.74,-120.1 191.2,-187.9 319.51,-187.9 60.01,0.1 120.89,14.9 177.06,46.1 l 248,137.8 c 78.83,-104.1 172.22,-196.9 278.48,-275.2 24,-17.7 52.3,-26.6 80.8,-26.6 24.6,0 49.3,6.7 71.3,20.1 l 36.6,22.5 c -11.5,-57.9 -45.3,-111.3 -98.3,-146.3 l -489.48,-323 c -37.87,-24.9 -81.22,-37.8 -125.59,-37.8"
         style="fill:#cd8c8c;fill-opacity:1;fill-rule:nonzero;stroke:none"
         transform="matrix(0.13333333,0,0,-0.13333333,0,5333.3333)" />
      <path
         id="path40"
         d="m 10263.7,16271 h 0.5 -0.5 m -764.05,1386.4 c -44.34,0 -87.74,-12.9 -125.61,-37.9 l -489.5,-323 C 8779.17,17227 8750,17084.7 8819.5,16979.3 l 562.52,-852.6 c 33.67,-51 85.23,-85.9 145.12,-98.1 60.03,-12.3 121.05,-0.5 172.08,33.1 l 489.48,323 c 105.4,69.6 134.6,211.9 65,317.2 l -562.48,852.6 c -33.68,51 -85.22,85.9 -145.13,98.2 -15.45,3.1 -31,4.7 -46.44,4.7 m 74.49,-1906.1 c -33.79,0 -67.83,3.5 -101.68,10.4 -131.21,26.9 -244.07,103.2 -317.82,215 l -562.54,852.6 c -152.24,230.7 -88.35,542.4 142.39,694.6 l 489.5,323 c 111.79,73.7 245.43,99.6 376.81,72.7 131.2,-27 244.06,-103.3 317.82,-215.1 l 562.48,-852.6 c 152.3,-230.7 88.4,-542.3 -142.3,-694.6 v 0 l -489.54,-323 c -82.93,-54.6 -178,-83 -275.12,-83"
         style="fill:#390075;fill-opacity:1;fill-rule:nonzero;stroke:none"
         transform="matrix(0.13333333,0,0,-0.13333333,0,5333.3333)" />
      <path
         id="path41"
         d="M 10179.1,16624.6 28896,28107.8 c 521.5,320 855.6,884 854,1495.9 -2,768.7 -506.4,1366.8 -1497.2,1373.3 -381,2.6 -751.3,-126.3 -1057,-353.5 L 9666.33,17594.7 c 24.7,-409.8 227.31,-759.7 512.77,-970.1"
         style="fill:#ffbb94;fill-opacity:1;fill-rule:nonzero;stroke:none"
         transform="matrix(0.13333333,0,0,-0.13333333,0,5333.3333)" />
      <path
         id="path42"
         d="m 10025.5,17484.7 c -46.22,31.5 -88.04,70.1 -123.6,115.4 l 772.2,573.9 c 5.8,-63.2 15.1,-125.4 27.9,-186.5 l -676.5,-502.8 m 3678.4,2734 c 8.5,83.5 28.3,168 60,251.9 L 27277,30514.1 c 283.8,211 626.1,326.8 965.2,326.8 3.2,0 6.5,-0.1 9.7,-0.1 396,-2.6 721.4,-109.8 954.7,-302.2 -216.9,109.7 -484.3,172.5 -801.6,174.6 -3.7,0 -7.3,0 -10.9,0 -377.1,0 -743.3,-128.5 -1046.1,-353.6 L 13703.9,20218.7"
         style="fill:#ffe4d4;fill-opacity:1;fill-rule:nonzero;stroke:none"
         transform="matrix(0.13333333,0,0,-0.13333333,0,5333.3333)" />
      <path
         id="path43"
         d="m 10189.6,16790.8 c -166.3,145.5 -285.74,339.7 -345.72,558.9 l 181.62,135 c 94.7,-64.5 207.8,-98.9 322.9,-98.8 105.3,0 212.2,28.8 308.1,89.5 l 184.3,116.8 c 52.2,-102.3 115.4,-198.2 188.7,-286.1 l -839.9,-515.3"
         style="fill:#cd8c8c;fill-opacity:1;fill-rule:nonzero;stroke:none"
         transform="matrix(0.13333333,0,0,-0.13333333,0,5333.3333)" />
      <path
         id="path44"
         d="m 9843.88,17349.7 c -16.06,58.8 -27.87,119.3 -35.17,181.1 l 93.19,69.3 c 35.56,-45.3 77.38,-83.9 123.6,-115.4 l -181.62,-135"
         style="fill:#cdabbc;fill-opacity:1;fill-rule:nonzero;stroke:none"
         transform="matrix(0.13333333,0,0,-0.13333333,0,5333.3333)" />
      <path
         id="path45"
         d="m 14205.8,19341.4 c -27.3,0 -54.7,7.7 -78.8,22.9 -80.5,51 -150.3,111 -209,177.9 l 13266.5,8406.9 c 31.5,8.3 63.3,16.5 95.6,24.4 121.7,29.8 238.9,53.7 350.8,72.8 12.5,2.2 25.2,3.2 37.7,3.2 36.1,0 71.8,-8.7 104.3,-25.3 49.6,-25.5 115.6,-51.6 195.9,-64.3 33.1,-5.3 74.7,-11.9 121.4,-11.9 51.4,0 109.1,8 168.6,34.5 188.7,84.2 241.5,286 244.6,299.1 36.4,149 -9.6,309.3 -117.9,428.5 l 404.1,256.1 c 378.1,239.6 653.9,608.3 770.6,1028.5 34.9,-119.9 53.2,-250.8 53.6,-391.4 1.4,-551.3 -300.9,-1079.9 -789.1,-1379.4 L 17063.2,21008 c -219.3,-112.9 -429.2,-241.7 -628,-385.3 l -1749.6,-1073.5 c -10.6,2.2 -21.3,3.3 -32,3.3 -27.7,0 -55.1,-7.2 -79.5,-21.3 l -294.6,-169.9 c -22.9,-13.3 -48.3,-19.9 -73.7,-19.9"
         style="fill:#cd8c8c;fill-opacity:1;fill-rule:nonzero;stroke:none"
         transform="matrix(0.13333333,0,0,-0.13333333,0,5333.3333)" />
      <path
         id="path46"
         d="m 9808.71,17530.8 c 34.54,-292.7 169.99,-555.5 380.89,-740 l 18635.1,11433.1 c 488.2,299.5 790.5,828.1 789.1,1379.4 -2,757.8 -523.9,1232 -1361.9,1237.5 -3.2,0 -6.5,0.1 -9.7,0.1 -339.1,0 -681.4,-115.8 -965.2,-326.8 L 9808.71,17530.8 m 370.39,-1042.4 c -28.5,0 -56.8,8.9 -80.8,26.6 -334.76,246.7 -541.77,637.3 -567.93,1071.6 -2.79,45.8 17.79,90 54.71,117.5 L 27114.5,30732.8 c 333.6,248 738.6,383.1 1139.1,380.5 989.4,-6.6 1630.2,-599 1632.6,-1509.3 1.7,-645.7 -350.4,-1263.5 -919,-1612.3 L 10250.4,16508.5 c -22,-13.4 -46.7,-20.1 -71.3,-20.1 m 17651.995,11227.118 -119.848,-18.727"
         style="fill:#000072;fill-opacity:1;fill-rule:nonzero;stroke:none"
         transform="matrix(0.13333333,0,0,-0.13333333,0,5333.3333)" />
      <path
         id="path47"
         d="m 28740.2,16795.2 c -0.9,-84.9 -6.4,-167.5 -16.4,-247.9 -103,-878.2 -693.3,-1459.8 -1477,-1467.1 -233.9,-2.7 -485,46.3 -745.6,153.5 l -1958.9,48.5 -6180.3,153.1 -1017.5,24.9 c -317.9,-357.8 -673.9,-666.1 -1048.9,-894.5 -458.2,-279.2 -944.5,-438.6 -1424,-423.6 -133,4.1 -265.1,30.4 -391.4,74.9 -1182.4,415.9 -2032.4,1370.4 -2599,2289.4 -80.9,130.8 -156.2,261.1 -225.7,388.7 -57.2,105.8 -137.1,198.4 -235.7,267.4 -3.2,2.3 -6.8,4.1 -9.5,6.8 -348.7,246.1 -556.7,642.5 -581.7,1068.5 -75.8,1295.4 540.4,1921.1 912.7,1937 49,60.4 104.4,115.3 164.4,165.7 163,138.1 362.8,243 578.9,333.8 157.1,190.2 345.5,289.7 563,306 3.2,0.5 6.9,0.9 10,0.9 245.2,-43.1 429.1,-194.3 570.8,-420.4 -214.8,-521.3 -26.8,-1051.7 413.7,-1330.4 95.8,-61.3 218.4,-63.6 316.9,-6.9 l 294.7,169.9 100.3,-173.9 c 101.3,-175.8 131.7,-386 74.9,-580.8 -58.1,-201.1 -177.5,-389.6 -323.7,-573 l 24.1,-26.8 170.7,-188.9 c 40,146.7 88.5,293.8 145.3,439.5 93.5,241.1 208.9,479.5 344.6,710.6 124.5,213 265.7,420.1 421.9,617.6 721.9,912.2 1764.5,1512 2910.1,1714.5 1666.4,295.2 3396.4,470.9 5179.1,548.1 876.3,37.7 1738.1,-238.4 2418.8,-784.6 l 1.3,-1 c 58.1,-45.8 114.9,-94.4 169.8,-144.8 110.8,-100.8 218.9,-205.2 323.8,-313.3 770.5,-787.4 1402.6,-1747.3 1859.8,-2697.2 69.1,-143.9 126.3,-292.8 169.4,-445.8 v -0.5 c 64.9,-226.6 99.5,-460.9 96.3,-697.9"
         style="fill:#ffb839;fill-opacity:1;fill-rule:nonzero;stroke:none"
         transform="matrix(0.13333333,0,0,-0.13333333,0,5333.3333)" />
      <path
         id="path48"
         d="m 14828.9,18638.7 c -58.1,-201.1 -177.5,-389.6 -323.7,-573 l 24.1,-26.8 c -36.8,-17.7 -75,-32.2 -114.5,-43.2 -563,-155.7 -1133.8,-314.6 -1636.9,-612.5 -118.9,-70.4 -233.8,-149.8 -341.9,-237 -222,-180.3 -415.9,-395.5 -554.8,-639.8 -80.9,130.8 -156.2,261.1 -225.7,388.7 -57.2,105.8 -137.1,198.4 -235.7,267.4 -3.2,2.3 -6.8,4.1 -9.5,6.8 -348.7,246.1 -556.7,642.5 -581.7,1068.5 -75.8,1295.4 540.4,1921.1 912.7,1937 12.3,15 25,30 38.1,44.5 15,16.8 30.9,33.2 47.3,49 10.9,11.4 22.2,22.3 34,32.7 0.9,1 1.8,1.9 2.7,2.8 13.7,12.2 27.7,24.5 42.3,36.7 163,138.1 362.8,243 578.9,333.8 157.1,190.2 345.5,289.7 563,306 3.2,0.5 6.9,0.9 10,0.9 245.2,-43.1 429.1,-194.3 570.8,-420.4 -214.8,-521.3 -26.8,-1051.7 413.7,-1330.4 95.8,-61.3 218.4,-63.6 316.9,-6.9 l 294.7,169.9 100.3,-173.9 c 101.3,-175.8 131.7,-386 74.9,-580.8"
         style="fill:#ffffff;fill-opacity:1;fill-rule:nonzero;stroke:none"
         transform="matrix(0.13333333,0,0,-0.13333333,0,5333.3333)" />
      <path
         id="path49"
         d="m 28740.2,16749.6 c -4,-315.4 -67.1,-599.5 -178.1,-842.2 -106.5,-232.7 -256.9,-427 -441.6,-571.8 -114.5,-90.8 -241.7,-162.5 -379.9,-212.9 -356.3,-131.2 -783.7,-122.7 -1239.4,65.6 l -9156.5,226.5 c -233.1,-262.9 -486.9,-498.5 -753.4,-695.3 -541.5,-400.2 -1135.9,-640.9 -1719.8,-622.8 -133.2,4.1 -264.9,30.3 -391,74.2 -1231.8,433.5 -2102.8,1450.8 -2668.5,2403.6 5,5 10.1,10.1 14.6,15.1 1,1 1.5,1.5 2.5,2.5 191.3,195.3 402.7,371.9 629.8,524.3 17.7,12.7 35.9,24.8 54,36.4 290.2,189.2 604.1,341.1 933.1,449.6 186.2,62.1 376.9,110 570.2,142.8 197.8,33.3 414.3,59.5 560.6,195.8 l 123.2,-136.3 c 167,612.2 482.4,1224.8 911.8,1767.8 722.2,911.8 1764.7,1511.8 2910.2,1714.2 1666.8,295.2 3396.2,471.3 5178.5,548 952.2,40.9 1886.3,-288.1 2590.3,-930 917.4,-837.7 1663.7,-1930.7 2184,-3010.6 103.9,-216.5 181.1,-445.1 224.5,-679.8 28.8,-152.4 42.9,-308.3 40.9,-464.7"
         style="fill:#39a1ff;fill-opacity:1;fill-rule:nonzero;stroke:none"
         transform="matrix(0.13333333,0,0,-0.13333333,0,5333.3333)" />
      <path
         id="path50"
         d="m 11845.9,16389.5 c -11.4,52.7 -22.7,105.4 -34.1,158.1 160,-163.1 320.1,-326.2 480.1,-489.3 103.8,141.4 228.9,267.1 369.9,371.5 111.7,82.9 232.9,152 353.7,221 229.2,130.8 458.3,261.7 687.5,392.5 128.9,73.6 260.8,148.3 406.5,176.6 111.2,21.5 231,16.4 330.1,71.1 157.4,87 204.1,287.4 234.9,464.6 -65.9,75.8 -131.7,151.6 -197.6,227.3 -645.4,-125.8 -1264.9,-382.9 -1809.6,-751.2 -100.2,-67.7 -198,-139.3 -287.4,-220.7 -184.2,-167.5 -336,-378.9 -558.1,-491.4 l 24.1,-130.1"
         style="fill:#feda24;fill-opacity:1;fill-rule:nonzero;stroke:none"
         transform="matrix(0.13333333,0,0,-0.13333333,0,5333.3333)" />
      <path
         id="path51"
         d="m 14933.5,14300 c -18.9,0 -37.9,0.3 -56.7,0.9 -114.5,3.6 -230.2,25.7 -343.7,65.6 -957.3,336.7 -1679.5,1038.3 -2198.2,1748 94.7,118.6 204.9,224.9 326.9,315.3 84.6,62.7 174.6,117.6 265.7,170.5 223,-213.7 465.7,-406.5 724.9,-574.4 227.6,-147.3 476.3,-279 746.3,-302.7 32,-2.8 64.1,-4.1 96.2,-4.1 158.2,0 316.4,31 472.5,62.1 316.9,63.6 648,133.7 899.8,337.6 147.8,120.1 258.3,280.1 362.3,440 136.1,208.9 264.5,422.5 385.3,640.5 -328.7,-816.3 -466,-1703.8 -551.3,-2583.8 -381.6,-206.1 -765.9,-315.5 -1130,-315.5 m -2933.7,2339 c 113,161.5 250,308.3 401.7,438.2 19.1,13.2 38.2,26.3 57.4,39.2 6.1,-7.6 12.1,-15.2 18.2,-22.9 -33.3,-26.4 -65.8,-53.8 -97.2,-82.5 -130.8,-118.9 -245.2,-260 -380.1,-372"
         style="fill:#2e81e3;fill-opacity:1;fill-rule:nonzero;stroke:none"
         transform="matrix(0.13333333,0,0,-0.13333333,0,5333.3333)" />
      <path
         id="path52"
         d="m 12334.9,16114.5 c -126,172.4 -240.1,345.5 -342.6,513.7 2.5,3.6 5,7.2 7.5,10.8 134.9,112 249.3,253.1 380.1,372 31.4,28.7 63.9,56.1 97.2,82.5 139.1,-174.2 289.6,-339.1 450.4,-493.2 -91.1,-52.9 -181.1,-107.8 -265.7,-170.5 -122,-90.4 -232.2,-196.7 -326.9,-315.3"
         style="fill:#cbae34;fill-opacity:1;fill-rule:nonzero;stroke:none"
         transform="matrix(0.13333333,0,0,-0.13333333,0,5333.3333)" />
      <path
         id="path53"
         d="m 12189.8,16918.7 c 76.7,81 159.3,156.9 246.2,227.5 0.2,0.2 0.4,0.3 0.6,0.5 6.3,-8.2 12.6,-16.3 19,-24.5 -18.2,-14.8 -36.2,-29.8 -54.1,-45 -72.3,-50.4 -142.9,-103.3 -211.7,-158.5"
         style="fill:#d99d41;fill-opacity:1;fill-rule:nonzero;stroke:none"
         transform="matrix(0.13333333,0,0,-0.13333333,0,5333.3333)" />
      <path
         id="path54"
         d="m 11945.5,16706.3 c -53.5,90.1 -103.6,178.7 -150.4,264.9 -70.4,129.5 -168.8,240.7 -285.1,322 l -8.2,5.7 c -304.2,215.2 -491.8,560.8 -514.5,948.1 -54.8,933.3 268.9,1398.7 410.6,1555.5 107.6,119.1 212.6,180.5 291,203.2 -87.6,-147.5 -140.9,-318.1 -159.2,-489.2 -34,-317.8 39.5,-638.4 142.1,-941.3 173.8,-514.2 434.6,-998.2 764.8,-1428.5 -0.2,-0.2 -0.4,-0.3 -0.6,-0.5 -86.9,-70.6 -169.5,-146.5 -246.2,-227.5 -84.3,-67.5 -165.8,-138.4 -244.3,-212.4"
         style="fill:#d9d9ea;fill-opacity:1;fill-rule:nonzero;stroke:none"
         transform="matrix(0.13333333,0,0,-0.13333333,0,5333.3333)" />
      <path
         id="path55"
         d="m 11990.5,16631.3 c -15.3,25.1 -30.3,50.1 -45,75 142.7,134.4 295.2,258.8 456,370.9 -151.7,-129.9 -288.7,-276.7 -401.7,-438.2 -3.1,-2.6 -6.2,-5.2 -9.3,-7.7"
         style="fill:#276ed2;fill-opacity:1;fill-rule:nonzero;stroke:none"
         transform="matrix(0.13333333,0,0,-0.13333333,0,5333.3333)" />
      <path
         id="path56"
         d="m 11992.3,16628.2 c -0.6,1 -1.2,2.1 -1.8,3.1 3.1,2.5 6.2,5.1 9.3,7.7 -2.5,-3.6 -5,-7.2 -7.5,-10.8"
         style="fill:#ad943d;fill-opacity:1;fill-rule:nonzero;stroke:none"
         transform="matrix(0.13333333,0,0,-0.13333333,0,5333.3333)" />
      <path
         id="path57"
         d="m 27345.2,15243.1 c -60.1,174.5 -124.9,346.4 -192.9,514.8 -242,691.9 -515.7,1418.5 -750.6,2140.4 -5,171.5 -17,342.4 -33.5,512.8 157,-233.9 329.2,-457.6 515.3,-669.2 277.2,-314.4 643.2,-621.6 1050.2,-621.6 39.8,0 79.9,2.9 120.4,9.1 173.7,26.2 330.9,111.6 462.2,229.5 45.6,-187.2 67.4,-374.8 65.1,-561.6 -7.6,-594.7 -242.2,-1087.8 -643.7,-1352.9 -176.8,-116.7 -377.3,-184 -592.5,-201.3"
         style="fill:#2e81e3;fill-opacity:1;fill-rule:nonzero;stroke:none"
         transform="matrix(0.13333333,0,0,-0.13333333,0,5333.3333)" />
      <path
         id="path58"
         d="m 13048.7,20821.2 c -172.6,-16.1 -317.2,-97.4 -441.4,-248.1 -16.4,-19.8 -37.3,-35.4 -61,-45.4 -329.4,-138.5 -539.6,-278.3 -681.9,-453 -28.6,-35.3 -71,-56.6 -116.5,-58.5 -78.9,-3.4 -212.3,-61.3 -350,-213.7 -141.7,-156.8 -465.4,-622.2 -410.6,-1555.5 22.7,-387.3 210.3,-732.9 514.5,-948.1 l 8.2,-5.7 c 116.3,-81.3 214.7,-192.5 285.1,-322 502.9,-925.9 1386.2,-2129.3 2738,-2604.7 113.5,-39.9 229.2,-62 343.7,-65.6 759.5,-24 1614.6,437.3 2349,1264.9 31.1,35.1 76.3,53.5 122.8,53.5 l 9156.5,-226.7 c 19.5,-0.4 38.7,-4.5 56.7,-11.9 507.9,-209.4 996.6,-186.7 1375.9,63.7 401.5,265.1 636.1,758.2 643.7,1352.9 4.5,357.8 -79.7,718.8 -250.2,1073.2 -554.7,1152.5 -1317.4,2204.4 -2147.5,2961.8 -671.8,613 -1550.5,928.3 -2476.2,889 -1819.5,-78.2 -3554.8,-261.7 -5157.7,-545.4 -1126.4,-199.4 -2125.5,-787.8 -2813.4,-1656.9 -415.6,-525 -720.9,-1116.6 -882.9,-1711 -15.3,-56.1 -59.9,-99.3 -116.4,-112.8 -56.6,-13.5 -115.9,5 -154.9,48.1 l -194.8,215.8 c -52.1,57.7 -54.8,144.6 -6.4,205.4 155.9,196 249.7,360.7 295.4,518.3 43.3,149.4 21.5,315.9 -60,457 l -21.1,36.7 -157,-90.5 c -150.3,-86.8 -334.8,-83 -481.4,9.8 -499.4,316.4 -696.2,888.4 -505.8,1444.1 -113,156.1 -245.3,248.6 -402.4,281.3 m 1883.5,-6839 c -21.9,0 -43.7,0.3 -65.4,1 -147.1,4.7 -294.9,32.7 -439.2,83.5 -1447.2,509 -2382.2,1777.9 -2911.8,2752.7 -47,86.5 -111.8,160.1 -187.3,212.8 l -6,4.2 -4.2,3 c -383.6,271.4 -619.9,704.7 -648.3,1188.9 -59.6,1015.5 282.7,1555.7 492,1787.3 152.9,169.2 330.9,278.9 498.7,309.7 167.8,187 396,337.5 727.3,480.5 180.5,205.1 402.2,317.5 659.4,334.1 12.6,0.8 25.4,0.2 37.9,-2.1 275.6,-48.7 503.7,-214.5 678,-492.9 27.3,-43.5 31.8,-97.5 12.3,-145 -178.7,-432.9 -37.4,-889.2 351.4,-1135.6 46.5,-29.3 104.9,-30.5 152.5,-3 l 294.6,169.9 c 36.5,21.1 79.9,26.8 120.6,15.9 40.7,-10.9 75.4,-37.6 96.5,-74.1 l 100.6,-174.3 c 55.1,-95.6 92.3,-199.3 110.7,-305.4 140,250.2 302.4,492.8 484.7,723 736.2,930.1 1804.2,1559.6 3007.2,1772.6 1616.7,286.1 3366,471.2 5199.5,549.9 1009,43.2 1969.7,-301.7 2704,-971.7 859.5,-784.2 1647.8,-1870.5 2219.7,-3058.8 192,-398.9 286.8,-807.7 281.6,-1215 -8.9,-701.7 -295.5,-1290.1 -786.4,-1614.2 -462.8,-305.5 -1045.8,-342.1 -1644.5,-103.5 l -9054.4,224.1 c -766.2,-841.2 -1663.7,-1317.4 -2481.7,-1317.5"
         style="fill:#000072;fill-opacity:1;fill-rule:nonzero;stroke:none"
         transform="matrix(0.13333333,0,0,-0.13333333,0,5333.3333)" />
      <path
         id="path59"
         d="m 15018.4,18294.6 c -72.9,-277.2 -186,-540.1 -255.4,-818 -52,-208.3 -88.9,-421.9 -107.3,-637.1 -5.3,-65.5 -10.1,-158.5 -13.3,-223.8 -2.4,-59.6 -91.9,-65 -101,-5.9 -103.5,600 -10.6,1226.8 181.4,1801.5 80.5,206.1 371.8,91.7 295.6,-116.7"
         style="fill:#000072;fill-opacity:1;fill-rule:nonzero;stroke:none"
         transform="matrix(0.13333333,0,0,-0.13333333,0,5333.3333)" />
      <path
         id="path60"
         d="m 12890.1,20788.1 c -251.6,-110.8 -409.9,-351.1 -462.9,-624.5 -10.6,-56.4 -96.2,-49.3 -97.5,7.8 -21.2,328.8 120.5,680.9 392.3,887.4 192.6,140.5 379.7,-160.1 168.1,-270.7"
         style="fill:#000072;fill-opacity:1;fill-rule:nonzero;stroke:none"
         transform="matrix(0.13333333,0,0,-0.13333333,0,5333.3333)" />
      <path
         id="path61"
         d="m 12036.1,20244.1 c -226,-189.5 -412.8,-428.9 -470.7,-724.9 -6.1,-32.1 -37.2,-53.1 -69.2,-46.7 -27.7,5.4 -46.9,29.5 -47.4,56.6 -3.1,166.7 32.4,337.1 97.2,495 64.7,159.1 156.5,305.7 260.4,440 151.2,178.2 401.4,-61 229.7,-220"
         style="fill:#000072;fill-opacity:1;fill-rule:nonzero;stroke:none"
         transform="matrix(0.13333333,0,0,-0.13333333,0,5333.3333)" />
      <path
         id="path62"
         d="m 11692.7,16162.2 c 0.5,-15.4 -15.9,-24.9 -30.9,-24 l -13.1,27.7 c 3.1,21.8 43.1,18.1 44,-3.7"
         style="fill:#fff3e9;fill-opacity:1;fill-rule:nonzero;stroke:none"
         transform="matrix(0.13333333,0,0,-0.13333333,0,5333.3333)" />
      <path
         id="path63"
         d="m 15937.3,18608.1 c -7.4,0 -14.9,0.6 -22.3,2 -92.4,16.6 -156.7,134.3 -175.6,226.6 -41.7,202.3 112.2,390.8 317.8,635.7 88.2,105 206.1,230.1 359.4,358.1 0,0 721.1,761.8 1373.4,763.4 0.5,0 1.1,0 1.6,0 62.9,0 132.6,-9.1 173.1,-57.1 50.8,-60.1 29.8,-156.7 -23.6,-214.6 -53.3,-57.8 -129.8,-87.2 -202.4,-117.6 -345,-144.4 -1066.9,-776.9 -1446.1,-1269.8 -119.4,-155.2 -234.9,-326.7 -355.3,-326.7"
         style="fill:#9cd0ff;fill-opacity:1;fill-rule:nonzero;stroke:none"
         transform="matrix(0.13333333,0,0,-0.13333333,0,5333.3333)" />
      <path
         id="path64"
         d="m 15525.1,17974 c -2.2,0 -4.4,0 -6.5,0 -35.8,0.8 -123.3,2.6 -182.2,67.6 -85.2,94 -48.4,251.4 -5.7,295.6 0.6,0.6 0.7,0.8 45.4,45.4 42.6,42.6 44.6,44.6 45.4,45.4 24.1,23.9 131.9,94.8 237.9,94.8 37.9,0 75.5,-9.1 109,-32.5 101,-70.5 107,-231 57.3,-338.5 -59.7,-129.1 -198.1,-177.8 -300.6,-177.8"
         style="fill:#9cd0ff;fill-opacity:1;fill-rule:nonzero;stroke:none"
         transform="matrix(0.13333333,0,0,-0.13333333,0,5333.3333)" />
      <path
         id="path78"
         d="m 27766.9,29199.5 c 9.1,2.7 18.4,5.1 27.7,7 -7,-1.6 -16.5,-3.7 -27.7,-7"
         style="fill:#c39b9b;fill-opacity:1;fill-rule:nonzero;stroke:none"
         transform="matrix(0.13333333,0,0,-0.13333333,0,5333.3333)" />
      <path
         id="path80"
         d="m 27794.6,29206.5 0.4,0.1 c 19.6,4.2 30.9,6.7 45.1,6.7 2.3,0 4.7,-0.1 7.2,-0.2 h 0.4 c -17.9,-0.9 -35.7,-3.1 -53.1,-6.6"
         style="fill:#c39b9b;fill-opacity:1;fill-rule:nonzero;stroke:none"
         transform="matrix(0.13333333,0,0,-0.13333333,0,5333.3333)" />
      <path
         id="path81"
         d="m 27752.7,29194.9 c 0.8,0.3 1.6,0.6 2.4,0.9 4.1,1.4 8,2.6 11.8,3.7 -4.8,-1.4 -9.5,-3 -14.2,-4.6"
         style="fill:#c39b9b;fill-opacity:1;fill-rule:nonzero;stroke:none"
         transform="matrix(0.13333333,0,0,-0.13333333,0,5333.3333)" />
      <path
         id="path98"
         d="m 27136.4,8075.3 c 83.1,-791 452.7,-1548.4 356.5,-2364.3 -18.2,-150.8 -109,-282.9 -240.7,-358.7 -1023.5,-593.5 -3053.6,-609.8 -4154.2,-265.7 -156.2,48.6 -274.8,177.6 -312.9,337 -104,437.2 4.1,801.8 128.5,926.3 v 2270.3 l -2224.9,181.6 c -159.9,-365.1 -336.9,-769.6 -529.9,-1211.4 -5.9,-13.2 -11.4,-26.4 -17.3,-39.5 -56.3,-129 -78.1,-270.7 -61.3,-410.1 63.1,-531.7 85.8,-1073.4 70.9,-1624.2 -3.7,-148.4 -71.8,-288.3 -187.1,-381.8 -802.4,-650.2 -2336.2,-634.4 -4068.9,-437.7 -121.7,14 -238.4,57.6 -337.8,129.4 -263.4,188.9 -398.2,434.1 -437.3,721 -19.1,140.8 -15,291.5 7.7,450.5 13.2,93 48.2,182 99.9,260.6 161.2,243.4 398.7,435.9 693.4,590.7 -11.8,333.8 -19.1,669.8 -22.7,1007.1 -16.8,1597.5 58.1,3218.5 227,4736.9 33.2,2129.1 252.5,3984.9 862.7,5267.1 l 9058.7,1067.1 c 82.1,-569.9 315.1,-1352.2 602.5,-2211.3 124.4,-372.3 259.3,-758.8 396.4,-1148.8 590.3,-1451.6 726.5,-2996.8 317.9,-4086.6 l -85.4,-1282.7 -137.1,-2055.6 v -0.4 l -4.6,-66.8"
         style="fill:#faa327;fill-opacity:1;fill-rule:nonzero;stroke:none"
         transform="matrix(0.13333333,0,0,-0.13333333,0,5333.3333)" />
      <path
         id="path99"
         d="m 20080.3,7141 c 63.1,-531.9 85.8,-1073.4 70.7,-1624.4 -3.6,-148.4 -71.7,-288.2 -187.3,-382 -801.8,-650 -2335.9,-634.3 -4068.8,-437.6 -121.6,14.2 -238.2,57.6 -337.6,129.2 -13.6,10.1 -27.2,20.2 -40.3,30.8 -9.1,7.1 -17.7,14.2 -26.8,21.2 -8.6,7.1 -17.1,14.1 -25.7,21.7 -14.1,12.6 -28.3,25.7 -41.9,38.9 -41.9,40.3 -78.2,82.2 -111,125.6 -9.6,13.1 -18.7,26.3 -27.8,39.4 -0.5,1 -1,1.5 -1,2 -9.6,13.6 -18.2,27.2 -26.2,40.9 -10.6,17.6 -20.2,35.3 -29.8,53.5 -7.1,14.1 -14.1,28.2 -20.7,42.9 -15.1,32.8 -28.2,66.6 -39.3,100.9 -4.1,11.1 -7.6,22.7 -10.6,34.3 -3.6,10.6 -6.6,21.2 -9.1,32.3 -3.6,14.1 -7.1,28.3 -10.1,42.4 -7.1,30.8 -12.6,62.6 -17.2,94.4 -18.6,140.7 -14.6,291.6 8.1,450.6 13.1,92.8 47.9,182.2 99.9,260.4 161,243.7 398.7,436 693.4,590.9 -12.1,333.6 -19.2,669.6 -22.7,1007.2 743.3,-414.8 1650.1,-539.9 2515,-536.9 h 1.5 c 591,2.5 1197,60.6 1744,271 -6,-13.6 -11.6,-26.8 -17.6,-39.9 -56,-128.7 -77.7,-270.5 -61.1,-409.7"
         style="fill:#ffffff;fill-opacity:1;fill-rule:nonzero;stroke:none"
         transform="matrix(0.13333333,0,0,-0.13333333,0,5333.3333)" />
      <path
         id="path100"
         d="m 27363.6,11480.8 -85.3,-1282.8 c -62.6,-31.3 -124.1,-61.6 -186.2,-91.8 -1315.6,-631.3 -2705.3,-1091.1 -4070.3,-1606.3 -36.4,-13.6 -73.2,-27.7 -108,-45.4 V 8620 l -2224.9,181.7 c -160,-364.9 -337.1,-769.6 -529.9,-1211.1 -547,-210.4 -1153,-268.5 -1744,-271 h -0.5 c 38.4,360.8 67.1,721.6 86.3,1083.9 17.2,320 26.3,644.9 -39.8,958.8 -62.6,298.8 -191.8,578.8 -307.9,861.4 -224,544.5 -403.2,1108.2 -535.4,1682.5 -54,233.6 215,402.2 403.7,254.3 1397.3,-1095.6 3419.9,-1332.2 5124,-756.4 529.9,178.6 1035.5,426.4 1501.3,734.2 764,505.1 1426.6,1187.9 1812.6,2018.5 369.9,795.3 467.8,1732.9 184.7,2561 2,-0.5 4,-1 5,-1.5 124.7,-372.4 259.4,-759 396.7,-1149.1 590.4,-1451.3 726.6,-2996.5 317.9,-4086.4"
         style="fill:#ef7f25;fill-opacity:1;fill-rule:nonzero;stroke:none"
         transform="matrix(0.13333333,0,0,-0.13333333,0,5333.3333)" />
      <path
         id="path101"
         d="m 27598.2,13089.7 c 0,-44.9 -0.5,-89.4 -1.8,-133.4 0,-9.8 -0.5,-19.6 -0.9,-29.4 -0.9,-26.7 -1.8,-53.8 -3.2,-80.5 -0.9,-18.7 -1.8,-37.3 -3.2,-56 -6.8,-114.8 -17.7,-227.3 -33.1,-337.1 -2.3,-16.9 -4.6,-33.8 -7.3,-50.7 -3.2,-21.3 -6.4,-42.3 -10,-63.2 -2.3,-16.9 -5.4,-33.3 -8.6,-49.8 -3.6,-20.9 -7.7,-41.8 -11.8,-62.7 -4.1,-22.2 -9.1,-44.9 -13.6,-67.1 -17.7,-82.8 -38.2,-163.7 -61.8,-242.4 -4.5,-16.5 -9.5,-32.5 -14.5,-48.5 l -0.5,-2.6 -0.4,-0.9 -0.5,-0.5 c -5.4,-18.7 -11.3,-37.3 -17.7,-56 -4.5,-3.6 -9.1,-7.6 -14.1,-10.7 -6.3,-5.8 -13.1,-11.1 -19.9,-16 l -0.5,-0.4 c -181.6,-142.8 -386.4,-259.8 -598.5,-350.9 -524.9,-225.5 -1099.3,-310.4 -1665.9,-393.2 -400.1,-58.7 -800.1,-116.9 -1200.1,-175.6 -283.4,-41.4 -566.7,-82.7 -851.4,-110.3 -1792.2,-175.2 -3606.6,197.4 -5258.5,915.2 -308.8,133.9 -611.7,280.2 -907.7,437.2 -279.7,148.1 -558.5,310 -782.4,529.2 5,45.4 10,90.7 15,135.6 33.2,2085.3 252.5,3902.9 862.7,5158.8 l 9058.7,1045.1 c 7.2,-49.8 15.8,-101.8 25.8,-154.8 4.6,-25.3 9.1,-50.7 14.6,-76.5 3.6,-20 7.7,-40.4 12.2,-60.9 4.1,-20.4 8.7,-40.9 13.2,-61.8 3.2,-16.9 7.3,-33.8 10.9,-50.7 6.8,-28.9 13.2,-57.8 20.4,-87.6 6.8,-29.8 14.1,-59.6 21.8,-89.8 13.6,-55.2 28.2,-111.2 43.2,-168.6 1.3,-5.8 3.1,-11.1 4.5,-16.4 8.2,-31.6 16.8,-63.6 25.9,-95.7 2.7,-9.3 5,-19.1 7.7,-28.4 13.2,-47.6 26.8,-95.6 40.9,-144.6 l 0.4,-0.4 c 0.9,-4 2.3,-8.5 3.7,-12.9 2.7,-8.9 4.9,-17.8 7.7,-26.7 15,-51.6 30.4,-103.6 46.7,-156.5 34.1,-112.5 70,-228.2 107.6,-345.6 22.8,-71.6 46.4,-143.6 70.4,-216.6 12.3,-36.9 24.6,-73.3 36.8,-110.2 148,-443.4 314.2,-912.2 484.5,-1386.2 361.4,-870.8 552.6,-1776.3 552.6,-2592.3"
         style="fill:#39a1ff;fill-opacity:1;fill-rule:nonzero;stroke:none"
         transform="matrix(0.13333333,0,0,-0.13333333,0,5333.3333)" />
      <path
         id="path102"
         d="m 18409.3,7319.6 c 0,0 0,0 0,0.1 1.8,0 3.5,0 5.2,0 v -0.1 h -1 c -1.4,0 -2.8,0 -4.2,0"
         style="fill:#d58b32;fill-opacity:1;fill-rule:nonzero;stroke:none"
         transform="matrix(0.13333333,0,0,-0.13333333,0,5333.3333)" />
      <path
         id="path103"
         d="m 17714,4722.4 c -214.2,0 -420.1,6.8 -608.4,14.4 -337.6,17.9 -675.9,46.2 -1012.6,82.8 l -168.7,18.1 c -243.1,20.8 -440.7,204.6 -558.1,406.2 -22,38.9 -40.5,79.7 -55.8,121.9 47.8,-37.4 98.1,-72.3 151.1,-104.4 308.8,-186.7 666.2,-248.1 1030.8,-248.1 229.4,0 461.6,24.3 686.5,56.9 294.2,42.7 609.8,109.9 807.3,331.5 163.9,184.3 215.2,440 255.6,682.9 68.1,410 124,821.8 167.6,1235 1.4,0 2.8,0 4.2,0 h 1 v 0 h 0.5 c 526.8,2.3 1065.5,48.6 1563.8,207.7 -52.4,-158 -56.7,-330.3 -30.3,-494 l 17,-167.4 c 42.2,-447 54.6,-897.6 42.8,-1346.3 -2.2,-82.3 -32.9,-163.3 -85.4,-225.6 -536.3,-480.6 -1427,-571.6 -2208.9,-571.6"
         style="fill:#d9d9ea;fill-opacity:1;fill-rule:nonzero;stroke:none"
         transform="matrix(0.13333333,0,0,-0.13333333,0,5333.3333)" />
      <path
         id="path104"
         d="m 18415,7319.6 h -0.5 v 0 0.1 c 527.3,2.3 1066.7,49.3 1564.9,209.5 -0.2,-0.7 -0.4,-1.3 -0.6,-1.9 -498.3,-159.1 -1037,-205.4 -1563.8,-207.7"
         style="fill:#cb6c30;fill-opacity:1;fill-rule:nonzero;stroke:none"
         transform="matrix(0.13333333,0,0,-0.13333333,0,5333.3333)" />
      <path
         id="path105"
         d="m 21629.8,10733.5 c -2211.1,231.9 -4113.6,749.8 -5517.4,1730.2 l 136.2,583.6 c 1536.9,-1001.9 3412.4,-1582.8 5573.1,-1809.4 1908.9,-95 3780.6,30 5605.4,431.3 l -131.8,-528.9 c -1971,-414 -3867.4,-576.1 -5665.5,-406.8"
         style="fill:#feda24;fill-opacity:1;fill-rule:nonzero;stroke:none"
         transform="matrix(0.13333333,0,0,-0.13333333,0,5333.3333)" />
      <path
         id="path106"
         d="m 27492.9,5711 c -18.2,-150.8 -109,-282.9 -240.7,-358.7 -1023.5,-593.5 -3053.6,-609.8 -4154.2,-265.7 -156.2,48.6 -274.8,177.6 -312.9,337 -104,437.2 4.1,801.8 128.5,926.3 v 1395.8 c 529.4,-159.9 1103.4,-185.8 1660.5,-164 879.1,34.1 1778.1,186.7 2566.9,560.4 l -4.6,-66.8 c 83.1,-791 452.7,-1548.4 356.5,-2364.3"
         style="fill:#ffffff;fill-opacity:1;fill-rule:nonzero;stroke:none"
         transform="matrix(0.13333333,0,0,-0.13333333,0,5333.3333)" />
      <path
         id="path107"
         d="m 24878.8,5003.6 c -383.4,0 -755.7,28.5 -1087.1,75.5 -171.4,27.3 -342.2,59.1 -507.6,103.9 -55.9,17.8 -112.8,26.8 -172.7,50.9 -71.2,29.5 -129.7,86.6 -163.3,156.2 -84.5,218.7 -92.9,612.7 40.8,822.8 258.8,-70.9 526.3,-110.3 792.9,-135.6 147.4,-15.2 295.3,-22.8 443.1,-22.8 1102.8,0 2191.5,426.5 2871.5,1333.3 5.4,7.1 10.8,14.3 16.2,21.5 112.2,-477.9 253,-946.6 252.3,-1432.8 1.1,-75.6 -8,-173.2 -14.3,-249.9 -11,-92.1 -65.6,-179.9 -142.8,-233.3 -632.1,-358.8 -1506.2,-489.7 -2329,-489.7"
         style="fill:#d9d9ea;fill-opacity:1;fill-rule:nonzero;stroke:none"
         transform="matrix(0.13333333,0,0,-0.13333333,0,5333.3333)" />
      <path
         id="path108"
         d="m 17029.2,17840.9 c -572.7,-1687.6 -700.1,-3479.7 -728.7,-5250.4 -152,-1429.1 -227,-2866 -243,-4303.2 -4.8,-478.5 -1,-957.2 6.3,-1436 0.8,-55.5 -30.4,-104.1 -76.3,-128.4 -190.7,-100.6 -367.1,-223.3 -507.7,-375.1 -65.8,-72.8 -130.2,-150.7 -172,-239 -41.7,-88.7 -46.2,-185.4 -54,-281.9 -12.8,-208.5 16.7,-413.6 112.4,-583 117.4,-201.6 315,-385.4 558.1,-406.2 l 168.7,-18.1 c 336.7,-36.6 675,-64.9 1012.6,-82.8 875.8,-35 2134.2,-55 2817.3,557.2 52.5,62.3 83.2,143.3 85.4,225.6 11.8,448.7 -0.6,899.3 -42.8,1346.3 l -17,167.4 c -31,192.2 -19.6,396.2 62,574.9 l 547.3,1250.9 c 25.1,57.3 83.5,89.8 142.5,85.1 l 2224.9,-181.6 c 74.6,-6.1 131.1,-69 131.3,-142.4 V 6349.9 c 0.4,-39.3 -15.9,-75.6 -42,-101.1 -160,-198 -155.9,-626.9 -66.4,-858.7 33.6,-69.6 92.1,-126.7 163.3,-156.2 59.9,-24.1 116.8,-33.1 172.7,-50.9 165.4,-44.8 336.2,-76.6 507.6,-103.9 1042.5,-147.9 2489.5,-111.8 3416.1,414.2 77.2,53.4 131.8,141.2 142.8,233.3 6.3,76.7 15.4,174.3 14.3,249.9 1.1,704.3 -295,1371.8 -370.6,2083.9 -0.9,8.2 -1.1,16.4 -0.4,24.4 l 226.9,3403.6 c 390.8,1198.2 194.9,2530.8 -212.7,3706.2 -98.8,266.4 -229.3,635.5 -318.5,909.7 -299.2,918.3 -613.1,1846.9 -693.3,2815.9 -1.9,28.2 19.4,52.5 47.5,54.3 25.2,1.7 47.3,-15.1 53,-38.9 268.3,-1050 696.8,-2152 1055.5,-3177.7 545.4,-1349 876,-2919 344.9,-4327.3 l 8.8,40.7 c 0.9,-1.1 -227.6,-3404 -227,-3405.5 71.1,-660.1 460.1,-1588.9 355.2,-2374 -23.4,-225.8 -191.8,-421.5 -393.4,-506.3 -409.7,-215.1 -872.1,-324.4 -1320.4,-392.2 -900.6,-122.1 -1825.2,-108.3 -2709.9,113.6 -93,25.6 -205.9,50.7 -288.7,103.9 -137.8,82.9 -237.4,222.3 -275,377.8 -75.5,351 -81.9,772.6 165.8,1062.4 l -41.9,-101.1 v 2270.3 l 131.3,-142.4 -2225,181.6 142.6,85.2 -547.3,-1250.9 c -62.4,-134.5 -62.7,-285.1 -39.8,-429 31.2,-284.6 51.7,-576.7 60.2,-862.3 7.4,-230.5 7.2,-460.4 1.3,-691.1 -3.8,-214.4 -124.3,-421.3 -305.3,-534.8 -940.5,-678.5 -2479.5,-562.5 -3584.1,-475 -114.1,10.5 -228.2,21.1 -341.8,33.9 -99.7,13.3 -267.3,20.7 -367.1,60.8 -248.7,88.4 -449,282.3 -579.6,509.4 -157.4,280.9 -174.4,611.5 -128.5,921.5 78.8,435.6 504.6,752.5 866.8,948.7 l -76.2,-131.4 c -49.4,961.2 -58.2,1924.6 -30,2886.7 25.2,935.9 100.1,1998.2 201.9,2864.9 9.3,450 24.4,900.3 56.1,1350.3 104.5,1342 248.3,2749 940.7,3933.7 13.1,21.7 41.2,28.6 62.8,15.5 19,-11.4 26.7,-34.6 19.5,-54.6"
         style="fill:#000072;fill-opacity:1;fill-rule:nonzero;stroke:none"
         transform="matrix(0.13333333,0,0,-0.13333333,0,5333.3333)" />
      <path
         id="path109"
         d="m 21295.8,8615.6 c -1063.4,75.4 -2252.7,492.9 -2969.5,1311.2 -106.1,118.3 -192.7,254.1 -268.2,392.9 -13.1,24.1 -4.2,54.3 19.9,67.4 21.6,11.7 48.1,5.8 62.8,-12.9 138,-179.3 293.3,-345.6 470.2,-486.1 520.9,-431.2 1158.4,-706.7 1813.3,-863.5 292.9,-68.5 590.9,-114.8 890.9,-137.3 176.8,-16.9 160.7,-279.3 -19.4,-271.7"
         style="fill:#000072;fill-opacity:1;fill-rule:nonzero;stroke:none"
         transform="matrix(0.13333333,0,0,-0.13333333,0,5333.3333)" />
      <path
         id="path110"
         d="m 16066.4,7313.4 c 13.5,-361.4 28.7,-711.6 95.4,-1068.2 25.1,-77.7 -70.9,-130.7 -118.4,-63.1 -211.6,338.3 -268.2,747.7 -294.8,1136.2 -2.5,226 321.7,222.4 317.8,-4.9"
         style="fill:#000072;fill-opacity:1;fill-rule:nonzero;stroke:none"
         transform="matrix(0.13333333,0,0,-0.13333333,0,5333.3333)" />
      <path
         id="path111"
         d="m 21640.9,10846.5 c 1701.2,-160.1 3521.3,-32.5 5561.5,390.3 l 70.6,283.2 c -1707.3,-357.8 -3542.1,-490.8 -5456.9,-395.5 -2.1,0.1 -4.2,0.2 -6.2,0.5 -2163.4,226.9 -4008.4,812.1 -5487.3,1740.2 l -82.1,-352 c 1284.3,-874.9 3052.2,-1420.4 5400.4,-1666.7 m 1444.6,-293.7 c -499.5,0 -987.3,22.6 -1466.4,67.7 l -1.2,0.1 c -2426.6,254.5 -4248.7,826.9 -5570.5,1750 -38,26.5 -56.1,73.6 -45.5,118.8 l 136.1,583.7 c 8.4,36.1 33.9,65.8 68.2,79.6 34.4,13.7 73.3,9.9 104.3,-10.2 1470,-958.3 3327.3,-1561 5520,-1791.4 1960.4,-97.4 3835.3,47 5572.2,429 38.4,8.4 78.4,-3.6 105.8,-31.7 27.4,-28.2 38.3,-68.5 28.8,-106.6 l -131.8,-529 c -10.5,-42.2 -44.2,-74.7 -86.8,-83.6 -1516.9,-318.6 -2914.6,-476.4 -4233.2,-476.4"
         style="fill:#000072;fill-opacity:1;fill-rule:nonzero;stroke:none"
         transform="matrix(0.13333333,0,0,-0.13333333,0,5333.3333)" />
      <path
         id="path112"
         d="m 23305.5,6285.8 c -257,47.7 -509.1,122.6 -744.3,236.2 -1096.1,528.9 -1670.5,1650.9 -1697.3,2990.9 -2.7,124.4 -0.4,250.6 6.4,378.7 L 22732,9437.5 c 227,-454.1 908.1,-454.1 1044.3,181.6 227.1,953.6 -681.1,1316.8 -908.1,590.3 -1094.8,595.3 -1016.2,1935.7 -23.2,2744.8 510.4,416.4 1173.3,610.8 1827.7,536.8 121.6,-13.7 242.9,-35 362.3,-63.6 1044.8,-250.2 1973.4,-1043.5 2328.5,-1946.6 1101.1,-3215.7 -831.9,-5790.7 -4058,-5195"
         style="fill:#faa327;fill-opacity:1;fill-rule:nonzero;stroke:none"
         transform="matrix(0.13333333,0,0,-0.13333333,0,5333.3333)" />
      <path
         id="path113"
         d="m 23305.5,6285.8 c -257,47.7 -509.1,122.6 -744.3,236.2 -1096.1,528.9 -1670.5,1650.9 -1697.3,2990.9 214.4,-949 898.6,-1781.3 1791.3,-2170 694.8,-302.4 1503.9,-338.7 2220.4,-91.3 716.5,247 1333.2,776.5 1678.2,1451.7 312,609.3 401,1312.7 369.7,1996.5 -28.7,627.5 -164.9,1274.6 -549,1771.8 -338.7,438.6 -832.3,716.9 -1339.5,955.8 1044.8,-250.2 1973.4,-1043.5 2328.5,-1946.6 1101.1,-3215.7 -831.9,-5790.7 -4058,-5195"
         style="fill:#ef7f25;fill-opacity:1;fill-rule:nonzero;stroke:none"
         transform="matrix(0.13333333,0,0,-0.13333333,0,5333.3333)" />
      <path
         id="path114"
         d="m 24967.3,8182.5 c 175.8,-35.9 351.9,-72.2 527.7,-108.1 -124,-158.5 -333.3,-388.2 -650.3,-586.2 -69.4,-43.1 -291.9,-177.1 -614.3,-275.6 -159.4,-48.6 -585.8,-163 -1130.6,-99 -119.9,14.1 -260.2,31.3 -420,77.6 -76.3,22.3 -157.6,51.4 -243,89.5 -132.1,59.5 -339.2,170.3 -590.3,408.6 -82.1,78.2 -590.2,574.4 -835.9,1302.8 -41.8,124.4 -76.3,256.1 -99.4,393.2 -21.4,123.9 -32.7,252.9 -33.2,386 -0.9,475.4 148.9,625.7 212.1,679.7 119.4,102.2 281.9,138.5 439.1,145.7 124.4,5.9 253.3,-5.9 363.7,-63.5 181.1,-94.9 278.8,-291.5 386.8,-464.5 142.1,-227.5 318.8,-430 498.6,-628.9 26.8,-29.1 53.1,-58.1 79.5,-87.2 88.5,-97.2 184.8,-198.9 312.3,-230.2 162.1,-39.5 334.7,51.8 433.2,186.2 98.6,133.9 135.8,303.3 154.9,469 25.4,225.2 44.5,412.3 -74.5,586.2 -17.7,25.9 -213,302 -495.4,250.6 -200.2,-36.3 -362.3,-222.4 -387.3,-457.6 -80.8,66.2 -341,299.2 -381.4,667.9 -35.4,326 121.2,582.5 227,761.9 71.3,120.8 154.4,237 260.6,328.3 376.9,322.8 1003.5,242.5 1342.3,-119.9 16.8,129.4 33.6,258.8 50.4,387.8 2.7,20 8.1,43.1 26.8,49.9 12.7,5 27.2,-0.4 39.9,-6.3 209.8,-95.8 345.6,-301.1 460,-501.8 291.9,-509.4 526.2,-1079.7 490.8,-1665.9 80.8,110.3 187.6,202 308.3,265.6 151.7,-374.6 169.9,-801.4 51.3,-1187.8 -118.9,-386 -373.7,-729.3 -709.7,-954"
         style="fill:#ffffff;fill-opacity:1;fill-rule:nonzero;stroke:none"
         transform="matrix(0.13333333,0,0,-0.13333333,0,5333.3333)" />
      <path
         id="path115"
         d="m 23558.9,9086.3 c 43.7,24.5 85.4,55.2 123.9,92.3 265,264.4 332.6,762.1 201.7,1109.3 -84.7,247.5 -330.4,445.9 -587.5,445.9 -89.7,0 -180.8,-24.2 -266.9,-78.9 -101.5,-62.6 -174.6,-154.1 -225.5,-256.1 -47.1,31.6 -92.5,65.3 -135.8,101.3 -40,33 -77.1,67.4 -111.5,103.2 -10.5,195.9 77.9,403 235.4,525.5 128.7,100.1 289.9,146.8 453.2,146.8 139.1,0 279.8,-33.8 403.4,-97.2 268.7,-137.8 461.6,-395.4 574.6,-675.5 161.1,-399.3 150.9,-910.1 -165.1,-1202.6 -136.9,-126.8 -314,-194.8 -499.9,-214"
         style="fill:#d9d9ea;fill-opacity:1;fill-rule:nonzero;stroke:none"
         transform="matrix(0.13333333,0,0,-0.13333333,0,5333.3333)" />
      <path
         id="path116"
         d="m 20916.8,9889.1 c 65.1,-1212.1 386.4,-2467.1 1490.8,-3124.4 280.3,-165.4 584.3,-277.8 907.2,-335.4 323.9,-55.3 658.3,-92.9 987.1,-81.6 1504.7,20.1 2737.7,914.4 3100.5,2394 212,855 117.4,1765.4 -155.2,2598.1 -13.2,43.1 -34.5,111.2 -55.5,151.2 -19.4,41.5 -42.7,103.7 -66.3,143.6 -499,955.5 -1523.8,1637.3 -2599.9,1717.9 -746,47.4 -1511.1,-293.3 -1961.1,-891.5 -461.5,-594.4 -508.6,-1455.2 104.4,-1960.9 80.5,-66.9 168.1,-125.9 260.5,-178.3 l -183.2,-74.2 c 46.2,159.3 134.1,314.8 284,407.3 332.8,211.5 740.2,-33.2 854.4,-367 130.9,-347.2 63.3,-844.9 -201.7,-1109.3 -319,-307.3 -854.2,-172.6 -993.6,237.5 -17.6,52.3 54.8,88.3 85.6,42.8 75.6,-104 176.4,-178.2 285.9,-212.2 234.7,-80 474.9,54.2 552.2,283.7 99.8,289.5 104.8,718.6 -185.1,888.4 -205.6,108.6 -375.9,-52.3 -441.1,-257.1 -25.8,-72.1 -113.8,-103.5 -179.6,-64.7 -991.4,522.8 -1114.4,1676.3 -469.2,2533.1 505.8,681.7 1360.2,1068.7 2204.2,1022.3 1069.4,-74.7 2074.6,-688.3 2674.6,-1570.1 l 96.2,-151.2 85.4,-158.2 c 26,-43.9 54.7,-118.2 76.7,-165.6 22.8,-46.9 47.6,-117.5 62.2,-168.1 445,-1321.5 434.4,-2903.4 -440.8,-4051.4 -771.1,-1028.3 -2067.7,-1439 -3314.6,-1310.5 -439.6,41.7 -881.7,121.8 -1282.9,318.4 -184.3,96.7 -367.7,200.3 -529,332.5 -23.9,17.9 -82.3,65.8 -105.3,83.3 -684.4,592.5 -1066.2,1492.5 -1084.8,2390.5 -9.9,232.5 10.1,464.5 43.9,692.1 9.5,55.6 90.5,50.6 93.1,-5"
         style="fill:#000072;fill-opacity:1;fill-rule:nonzero;stroke:none"
         transform="matrix(0.13333333,0,0,-0.13333333,0,5333.3333)" />
      <path
         id="path117"
         d="m 25679.8,12076.3 c -81.3,0 -165.2,30.7 -235.6,74 -106.6,65.5 -194.8,157.4 -299.8,225.5 -208.6,135.6 -466,167.4 -713.6,191.2 -76.8,7.4 -169.1,-0.6 -262.6,57.5 -24,14.9 -146.2,90.7 -146.9,210 -0.8,120.5 122.6,198.3 153.1,217.5 58.2,36.6 126.9,58.2 251.1,58.2 32.8,0 69.6,-1.5 111.1,-4.7 179.5,-13.6 344.4,-49.9 512.2,-104 253.4,-81.7 406.3,-167.5 608.6,-286.1 93.6,-54.8 191,-113.5 247,-206.4 81,-134.7 37.5,-337.3 -103.8,-406.1 -38.1,-18.5 -79.1,-26.6 -120.8,-26.6"
         style="fill:#fdd193;fill-opacity:1;fill-rule:nonzero;stroke:none"
         transform="matrix(0.13333333,0,0,-0.13333333,0,5333.3333)" />
      <path
         id="path118"
         d="m 26188.1,11669.2 c -19.8,0 -39.7,2.7 -58.9,7.7 -101.6,26.3 -183.1,121.4 -187.5,226.3 -4.4,104.3 72.4,207.9 174.6,228.8 26.6,16 57.1,23.4 88.2,23.4 68.7,0 140,-36.2 176.8,-95.7 57.3,-93.1 36.9,-220.7 -31.2,-306.1 -23.5,-29.4 -52.5,-55.1 -87.2,-69.8 -23.6,-10.1 -49.1,-14.6 -74.8,-14.6"
         style="fill:#fdd193;fill-opacity:1;fill-rule:nonzero;stroke:none"
         transform="matrix(0.13333333,0,0,-0.13333333,0,5333.3333)" />
      <path
         id="path119"
         d="m 21892.9,10533.2 c -1.2,0.6 -2.3,1.2 -3.5,1.8 1.2,-0.6 2.3,-1.2 3.5,-1.8 m -7.7,3.9 h -0.1 0.1 m -351.1,59.9 c 0.6,0 1.2,0 1.8,0 -0.6,0 -1.2,0 -1.8,0 m 2,0.1 c 0.1,0 0.1,0 0.2,0 -0.1,0 -0.1,0 -0.2,0 m 1.9,0 c 15.6,0.7 31.2,1 46.9,1 -15.7,0 -31.3,-0.3 -46.9,-1 m 47.6,1 c -0.2,0 -0.4,0 -0.6,0 v 0 c 0.2,0 0.4,0 0.6,0"
         style="fill:#cb6c30;fill-opacity:1;fill-rule:nonzero;stroke:none"
         transform="matrix(0.13333333,0,0,-0.13333333,0,5333.3333)" />
      <path
         id="path120"
         d="m 22679.8,7191.2 c -76.3,22.3 -157.6,51.4 -243,89.5 -132.1,59.5 -339.2,170.3 -590.3,408.6 -79.9,76 -562.5,547.3 -814.9,1242.9 -62.6,314.1 -97.6,637 -114.8,956.9 -1.1,23 -15.5,37.3 -32.8,42.3 28.4,350.6 150.7,472.2 206.1,519.6 119.4,102.2 281.9,138.5 439.1,145.7 1.6,0.1 3.2,0.2 4.9,0.3 0.6,0 1.2,0 1.8,0 0,0 0.1,0 0.2,0.1 0.1,0 0.1,0 0.2,0 0.6,0 1.1,0 1.7,0 15.6,0.7 31.2,1 46.9,1 0,0 0,0 0.1,0 0.2,0 0.4,0 0.6,0 103.5,-0.1 207.7,-15.1 299.5,-61 h 0.1 c 1.4,-0.7 2.8,-1.4 4.2,-2.1 1.2,-0.6 2.3,-1.2 3.5,-1.8 v 0 c 181.1,-94.9 278.8,-291.5 386.8,-464.5 132.7,-212.5 295.6,-403.1 462.9,-589.4 -1.9,0.3 -3.9,0.4 -5.9,0.4 -3.6,0 -7.2,-0.4 -10.8,-1.2 -185.2,218.3 -470.2,350.6 -756.6,350.6 -41.2,0 -82.3,-2.8 -123.2,-8.4 -146.3,-19.7 -285.9,-76.1 -408,-158.6 -4.9,-8.8 -10.2,-17.2 -14.7,-26.2 -75,-149.4 -86.8,-323.3 -75.9,-490.4 36.8,-563.9 319.2,-1096.1 722,-1492.5 182.5,-179.8 389.1,-332.8 610.3,-461.8"
         style="fill:#d9d9ea;fill-opacity:1;fill-rule:nonzero;stroke:none"
         transform="matrix(0.13333333,0,0,-0.13333333,0,5333.3333)" />
      <path
         id="path121"
         d="m 21031.6,8932.2 c -7.2,19.8 -14.2,39.7 -21,59.9 -10.5,31.1 -20.4,62.6 -29.9,94.6 l -0.2,0.6 c -9.2,31.2 -17.9,62.8 -26.1,94.8 -1.3,5.1 -2.4,10.3 -3.7,15.4 -6.7,26.9 -13.1,54 -19,81.4 -2,9 -3.6,18.2 -5.4,27.3 -4.9,23.8 -9.6,47.7 -13.7,71.8 -0.5,2.5 -1,4.8 -1.4,7.3 l 0.1,0.5 c -20.9,123.9 -33.1,252.6 -33.3,385.5 -0.1,58 2,111.3 6,160.1 17.3,-5 31.7,-19.3 32.8,-42.3 17.2,-319.9 52.2,-642.8 114.8,-956.9 v 0 m 1748.5,475.8 c -16.9,24.4 -35,47.9 -54.2,70.5 3.6,0.8 7.2,1.2 10.8,1.2 2,0 4,-0.1 5.9,-0.4 11.9,-13.2 23.8,-26.4 35.7,-39.5 0.9,-10.5 1.4,-21.4 1.8,-31.8"
         style="fill:#000072;fill-opacity:1;fill-rule:nonzero;stroke:none"
         transform="matrix(0.13333333,0,0,-0.13333333,0,5333.3333)" />
      <path
         id="path122"
         d="m 22799.6,9378.5 -18.6,7.7 c 0,7.3 -0.4,14.5 -0.9,21.8 6.8,-10 13.2,-19.5 19.5,-29.5"
         style="fill:#f9d3b7;fill-opacity:1;fill-rule:nonzero;stroke:none"
         transform="matrix(0.13333333,0,0,-0.13333333,0,5333.3333)" />
      <path
         id="path123"
         d="m 12195,15878 c -31.9,0 -63.7,13.4 -86.1,39.5 -40.9,47.5 -35.6,119.2 11.9,160.1 855.7,736.7 1660.3,1190.5 2459.9,1387.4 61,14.9 122.4,-22.2 137.4,-83.1 14.9,-60.9 -22.3,-122.4 -83.1,-137.3 -764.2,-188.2 -1538.1,-626.2 -2366,-1339.1 -21.4,-18.4 -47.8,-27.5 -74,-27.5"
         style="fill:#000072;fill-opacity:1;fill-rule:nonzero;stroke:none"
         transform="matrix(0.13333333,0,0,-0.13333333,0,5333.3333)" />
      <path
         id="path124"
         d="m 11836.5,16419.9 c -30.4,0 -60.8,12.3 -83.1,36.3 -42.7,45.9 -40.1,117.7 5.8,160.4 784.5,728.8 1695,1215.1 2706.3,1445.3 61.1,13.7 121.9,-24.4 135.9,-85.5 13.9,-61.1 -24.4,-121.9 -85.5,-135.9 -971.8,-221.2 -1847.3,-688.9 -2602.1,-1390.2 -21.9,-20.3 -49.6,-30.4 -77.3,-30.4"
         style="fill:#000072;fill-opacity:1;fill-rule:nonzero;stroke:none"
         transform="matrix(0.13333333,0,0,-0.13333333,0,5333.3333)" />
      <path
         id="path125"
         d="m 18093,21245.6 c 2294,389.2 4934.1,1011.1 7588,1021.4 539.6,2.1 944,-489.4 850.1,-1020.7 -92.9,-525.4 -338.3,-956.8 -719.1,-1213.2 269.3,-231.8 426.6,-555.2 360.7,-1061.3 -14.4,-109.9 -12.1,-221.7 1.1,-331.8 236.9,-1971.2 -258.7,-3328.8 -1874.9,-3748.4 -352.2,-91.4 -724,-79.4 -1070.7,31.2 -2023,645.3 -3736.4,1767.2 -4976.4,3617.5 l -158.8,2705.3"
         style="fill:#39a1ff;fill-opacity:1;fill-rule:nonzero;stroke:none"
         transform="matrix(0.13333333,0,0,-0.13333333,0,5333.3333)" />
      <path
         id="path126"
         d="m 18067.2,21397.9 c 2555.1,437.9 5119,1041.3 7728,1017.5 479.4,-46.9 876.9,-468.5 901.1,-947.7 8.2,-125.6 -9.8,-251.4 -38.6,-373.3 -51.5,-229.6 -136.9,-455.1 -261.9,-661.2 -124.8,-206 -293.4,-391.1 -497.5,-528.3 l 14.5,245.3 c 315.5,-250.8 472,-673.6 435.9,-1072.3 -10.5,-133 -29.2,-260 -10.6,-393.4 78.5,-642.9 110,-1296.9 -35.3,-1948.6 -235.3,-1119 -1029.1,-1855.5 -2147.9,-2060.3 -304.3,-50.6 -619.3,-29.3 -915.4,55.3 -127.5,37.9 -286.5,96.4 -411.4,137.6 -810,288.4 -1588.7,666.1 -2299.3,1153.1 -940.9,644.6 -1797,1467.1 -2319.3,2490.4 -12.8,25.2 -2.8,56 22.4,68.8 21.4,10.9 47,5.2 62.1,-12.2 368,-427.6 736.8,-841.9 1135.7,-1226 394.8,-382.4 825.7,-741.6 1286.2,-1043 690.9,-459.9 1448.4,-818.2 2231.4,-1092.9 249.3,-81.4 505.1,-183.5 768.1,-191 517.8,-23.1 1040.3,175.5 1451.6,482.1 882,682.9 947.3,1914.4 857.9,2942.7 l -21.5,209.5 c -29.9,211.1 32.1,426.6 16.3,637 -14.2,248.5 -120,465.2 -308.5,628.9 -75.1,65.5 -67.4,189.2 14.5,245.3 337.6,226.3 542.7,606.8 630.7,1001.6 47,180.6 48.6,377.6 -37.8,546.9 -118.7,252.2 -385.4,414.7 -663.7,402.3 -766.2,-7.3 -1541.8,-59.1 -2302.7,-147.7 -1757.5,-198.2 -3488,-571.3 -5233.3,-871.1 -195.8,-30.5 -257.5,262.3 -51.7,304.7"
         style="fill:#000072;fill-opacity:1;fill-rule:nonzero;stroke:none"
         transform="matrix(0.13333333,0,0,-0.13333333,0,5333.3333)" />
      <path
         id="path127"
         d="m 26546.8,20723.3 c -467.9,-971.7 -1610.1,-1310 -2608,-1367.8 -63.7,-3.2 -76.2,90.9 -12,102.7 476.6,81.7 952.7,209.7 1377.6,435.2 204.3,112.2 398.1,243.2 561.8,408.2 164.5,162.5 298.6,349.4 392.9,556.8 92.6,188.8 374,58.1 287.7,-135.1"
         style="fill:#000072;fill-opacity:1;fill-rule:nonzero;stroke:none"
         transform="matrix(0.13333333,0,0,-0.13333333,0,5333.3333)" />
      <path
         id="path128"
         d="m 25285,19883.2 c 101.6,80 195.8,169.4 280.7,266.9 270.4,310.6 449.4,721.1 404,1130.4 -39.9,360.1 -282.5,705.1 -617.4,826.3 101,2.5 201.9,4.2 302.6,5.2 10,0.4 20,0.6 29.9,0.6 267.3,0 519.3,-159.7 633.8,-402.9 86.4,-169.3 84.8,-366.3 37.8,-546.9 -21.4,-95.7 -49.6,-190.7 -85,-282.8 -4.4,-6.7 -8.5,-13.9 -12.3,-21.6 -60.2,-132.4 -136.6,-256.4 -226.8,-371.1 -38.5,-38.3 -76,-77.7 -111.4,-118.9 -19.4,-22.6 -38.1,-45.7 -56.8,-68.9 -163.2,-164 -356.3,-294.4 -559.7,-406.1 -6.4,-3.4 -12.9,-6.8 -19.4,-10.2"
         style="fill:#3979dc;fill-opacity:1;fill-rule:nonzero;stroke:none"
         transform="matrix(0.13333333,0,0,-0.13333333,0,5333.3333)" />
      <path
         id="path129"
         d="m 26271.4,20880 c 35.4,92.1 63.6,187.1 85,282.8 47,180.6 48.6,377.6 -37.8,546.9 -114.5,243.2 -366.5,402.9 -633.8,402.9 -9.9,0 -19.9,-0.2 -29.9,-0.6 -100.7,-1 -201.6,-2.7 -302.6,-5.2 -45.6,16.6 -93.1,29 -141.9,36.6 -49.4,7.8 -99.2,10.9 -149.1,10.9 -98.8,0 -198.2,-12.2 -296.5,-24.3 l 472.6,76.8 c 104,61.1 219.7,87.3 338.3,87.3 201,0 410.1,-75.4 583.3,-184.1 259.8,-163.2 488.3,-430.6 477.6,-737.1 -5.6,-159.2 -75,-307.3 -169.9,-437.3 -21.4,9.5 -44.8,14.6 -68.3,14.6 -47.2,0 -94.7,-21 -127,-70.2"
         style="fill:#0e0073;fill-opacity:1;fill-rule:nonzero;stroke:none"
         transform="matrix(0.13333333,0,0,-0.13333333,0,5333.3333)" />
      <path
         id="path130"
         d="m 24330.5,19458 c 40.1,6.7 79.9,14.7 119.5,23.8 13.1,1.6 26.2,2.9 39.3,4 -52.3,-12 -105.2,-21.4 -158.8,-27.8 m 565.5,181.6 c 137.9,67 268.6,148.8 389,243.6 6.5,3.4 13,6.8 19.4,10.2 203.4,111.7 396.5,242.1 559.7,406.1 -46.8,-58.2 -93.1,-117 -147.1,-168.6 -83.2,-79.6 -182.5,-140.1 -280.9,-199.9 -140.9,-85.7 -284.2,-172.3 -431.7,-248 -36.2,-14.4 -72.3,-28.9 -108.4,-43.4 m 1136.3,847.7 c 90.2,114.7 166.6,238.7 226.8,371.1 3.8,7.7 7.9,14.9 12.3,21.6 32.3,49.2 79.8,70.2 127,70.2 23.5,0 46.9,-5.1 68.3,-14.6 -30.7,-42.1 -64,-82.4 -98.8,-120.5 -105.4,-115.5 -224.9,-217.5 -335.6,-327.8"
         style="fill:#0e0073;fill-opacity:1;fill-rule:nonzero;stroke:none"
         transform="matrix(0.13333333,0,0,-0.13333333,0,5333.3333)" />
      <path
         id="path131"
         d="m 23797.5,15013.9 c -27.4,0 -54.8,0.6 -82.1,1.8 -263,7.5 -518.8,109.6 -768.1,191 -660,231.5 -1301.7,522.4 -1900.8,883.5 622.1,-228.2 1285.1,-345.3 1947.8,-345.3 407.6,0 815.1,44.3 1212.8,134.3 70.5,16 141.2,33.5 206.8,63.7 59.8,27.4 114.3,64.9 170.5,98.9 105,63.5 216.8,115.3 321.2,179.8 393.2,242.9 664.9,667.4 736.6,1123.9 71.8,456.5 -53.1,937.6 -324.8,1311.4 -29.2,40.2 -60.8,81.1 -70.6,129.7 -20.6,102.4 60.7,198.6 65.1,302.9 5.9,142.1 -128.8,249.1 -259.4,305.6 -87.2,37.7 -179,64.3 -272.8,79.5 348.1,82.1 686.6,208.5 982.6,393.6 156.5,-157.2 244.5,-356.1 257.4,-581.2 15.8,-210.4 -46.2,-425.9 -16.3,-637 l 21.5,-209.5 c 89.4,-1028.3 24.1,-2259.8 -857.9,-2942.7 -389.5,-290.4 -878.9,-483.9 -1369.5,-483.9"
         style="fill:#2e81e3;fill-opacity:1;fill-rule:nonzero;stroke:none"
         transform="matrix(0.13333333,0,0,-0.13333333,0,5333.3333)" />
      <path
         id="path132"
         d="m 23723.6,14886.7 c -220.6,0 -442.2,27.1 -657.3,75.1 -464,103.6 -902.1,301 -1321.3,525.3 -524.8,280.9 -1025.9,605.9 -1496.3,970.5 255.5,-143.8 522.7,-266.5 797.8,-367.4 599.1,-361.1 1240.8,-652 1900.8,-883.5 249.3,-81.4 505.1,-183.5 768.1,-191 27.3,-1.2 54.7,-1.8 82.1,-1.8 490.6,0 980,193.5 1369.5,483.9 882,682.9 947.3,1914.4 857.9,2942.7 l -21.5,209.5 c -29.9,211.1 32.1,426.6 16.3,637 -12.9,225.1 -100.9,424 -257.4,581.2 30.9,19.3 61.2,39.2 91.1,59.7 23,-19.9 42.1,-45.8 59.9,-70.8 147.8,-207.7 300.7,-428 326.1,-681.7 18.6,-185.8 -33.6,-372.5 -23.1,-558.9 9.4,-166.9 68.7,-327.2 87.9,-493.3 16.1,-139.8 3.6,-281.4 -14,-421.1 -63.4,-502.3 -192.6,-996.4 -383.2,-1465.4 -81.1,-199.5 -175.2,-397.5 -318.6,-558.1 -135.5,-151.9 -309.2,-263.9 -484.2,-367.7 -201.2,-119.4 -408.5,-231.1 -630,-306.2 -241.5,-81.8 -495.5,-118 -750.6,-118"
         style="fill:#000072;fill-opacity:1;fill-rule:nonzero;stroke:none"
         transform="matrix(0.13333333,0,0,-0.13333333,0,5333.3333)" />
      <path
         id="path133"
         d="m 24361.1,19467.8 324.3,86.7 c 70.1,28.6 140.3,56.9 210.6,85.1 -142.2,-69 -292,-122.2 -446,-157.8 -29.8,-3.5 -59.5,-8.2 -88.9,-14 m 418.6,6.8 c -63,10.3 -126.9,15.4 -190.7,15.4 -33.3,0 -66.6,-1.4 -99.7,-4.2 178.8,41.1 349.6,112.3 515.1,197.2 214.8,85.6 430.2,169.7 646.2,252.3 36.1,13.8 74.8,27.6 112.6,27.6 13.6,0 27,-1.7 40.2,-5.9 18.8,-6 35.2,-16.3 50,-29.1 -29.9,-20.5 -60.2,-40.4 -91.1,-59.7 -296,-185.1 -634.5,-311.5 -982.6,-393.6"
         style="fill:#000072;fill-opacity:1;fill-rule:nonzero;stroke:none"
         transform="matrix(0.13333333,0,0,-0.13333333,0,5333.3333)" />
      <path
         id="path134"
         d="m 24450,19481.8 c 154,35.6 303.8,88.8 446,157.8 36.1,14.5 72.2,29 108.4,43.4 -165.5,-84.9 -336.3,-156.1 -515.1,-197.2 -13.1,-1.1 -26.2,-2.4 -39.3,-4"
         style="fill:#0b0073;fill-opacity:1;fill-rule:nonzero;stroke:none"
         transform="matrix(0.13333333,0,0,-0.13333333,0,5333.3333)" />
      <path
         id="path135"
         d="m 24214.6,19428.7 c 47.9,16.3 96.8,29.3 146.5,39.1 l -146.5,-39.1"
         style="fill:#000072;fill-opacity:1;fill-rule:nonzero;stroke:none"
         transform="matrix(0.13333333,0,0,-0.13333333,0,5333.3333)" />
      <path
         id="path136"
         d="m 22463,20929.8 c -40.2,0 -80.4,0.3 -120.6,0.9 -108.7,1.8 -223.8,7.9 -314,68.4 -90.3,60.6 -139.5,195.4 -73,281.4 29.9,38.7 76.3,60.2 120.8,80.4 84.5,38.2 169.1,76.5 253.6,114.7 l -29.1,-5.1 c 801.3,160.3 1618.6,241.2 2435.8,241.2 47.2,0 94.2,-0.2 141.4,-0.8 72.7,-0.8 148.6,-3.1 212.5,-37.7 63.9,-34.6 110.8,-112.1 86.3,-180.6 -22.6,-62.9 -92.3,-93.3 -155.2,-116 -818.5,-295 -1688.5,-446.8 -2558.5,-446.8"
         style="fill:#9cd0ff;fill-opacity:1;fill-rule:nonzero;stroke:none"
         transform="matrix(0.13333333,0,0,-0.13333333,0,5333.3333)" />
      <path
         id="path137"
         d="m 21315.3,20773.2 c -85.2,0 -169.8,34.4 -210.7,107.3 -52,92.7 18.6,234.8 119.1,234.8 7,0 14.2,-0.7 21.5,-2.1 l -0.6,25.5 c 36.8,52.2 100.9,82 164.5,82 25.1,0 50.2,-4.7 73.5,-14.5 82.2,-34.6 134.2,-128.9 120.6,-217 -15.2,-98.3 -102.2,-173.6 -197.4,-202.6 -28.9,-8.9 -59.7,-13.4 -90.5,-13.4"
         style="fill:#9cd0ff;fill-opacity:1;fill-rule:nonzero;stroke:none"
         transform="matrix(0.13333333,0,0,-0.13333333,0,5333.3333)" />
      <path
         style="opacity:0.992467;fill:#cd8c8c;fill-opacity:1;stroke:#cd8c8c;stroke-width:1;stroke-dasharray:none;stroke-opacity:1;paint-order:stroke fill markers"
         d="m 3623.9223,1607.784 177.3277,-112.409 24.1977,77.2305 L 3733,1625 Z"
         id="path149" />
    </g>
  </g>
</svg>
