<svg width="56" height="56" viewBox="0 0 56 56" fill="none" xmlns="http://www.w3.org/2000/svg">
<rect x="0.0419922" y="2.67029e-05" width="55.9614" height="56" rx="27.9807" fill="white"/>
<path d="M24.4602 38.29C24.1903 38.2969 23.9218 38.249 23.6708 38.1494C23.4199 38.0497 23.1918 37.9002 23.0002 37.71L13.5002 28.21C13.1249 27.8347 12.9141 27.3257 12.9141 26.795C12.9141 26.2643 13.1249 25.7553 13.5002 25.38C13.8755 25.0047 14.3844 24.7939 14.9152 24.7939C15.4459 24.7939 15.9549 25.0047 16.3302 25.38L24.4202 33.47L39.6302 18.29C39.816 18.1042 40.0366 17.9568 40.2794 17.8562C40.5222 17.7556 40.7824 17.7039 41.0452 17.7039C41.308 17.7039 41.5682 17.7556 41.811 17.8562C42.0538 17.9568 42.2744 18.1042 42.4602 18.29C42.646 18.4758 42.7934 18.6964 42.894 18.9392C42.9945 19.182 43.0463 19.4422 43.0463 19.705C43.0463 19.9678 42.9945 20.228 42.894 20.4708C42.7934 20.7136 42.646 20.9342 42.4602 21.12L25.8702 37.71C25.4952 38.0819 24.9883 38.2904 24.4602 38.29Z" fill="#FF0000"/>
<path d="M28.0002 56C22.5293 55.9918 17.1806 54.3811 12.6149 51.3668C8.0493 48.3525 4.46674 44.0667 2.30986 39.0389C0.152972 34.0111 -0.483736 28.4615 0.478393 23.0759C1.44052 17.6902 3.95934 12.7044 7.72365 8.7344C11.488 4.7644 16.3329 1.98414 21.6598 0.73711C26.9867 -0.509919 32.5622 -0.169079 37.6975 1.71752C42.8329 3.60412 47.303 6.95382 50.5558 11.3528C53.8085 15.7518 55.7012 21.0072 56.0002 26.47C56.0302 26.999 55.8491 27.5183 55.4966 27.9139C55.1442 28.3095 54.6491 28.5491 54.1202 28.58C53.8566 28.5962 53.5925 28.5601 53.343 28.4737C53.0935 28.3873 52.8635 28.2524 52.6664 28.0766C52.4693 27.9009 52.309 27.6879 52.1946 27.4499C52.0803 27.212 52.0142 26.9537 52.0002 26.69C51.7289 21.676 49.8917 16.8733 46.7474 12.9583C43.6031 9.04324 39.31 6.21305 34.4726 4.8662C29.6352 3.51935 24.4972 3.72369 19.7821 5.45045C15.0669 7.17721 11.0122 10.3394 8.18869 14.4918C5.36521 18.6442 3.91526 23.5775 4.043 28.5973C4.17073 33.617 5.86972 38.4703 8.90074 42.4737C11.9317 46.4771 16.1421 49.429 20.939 50.9137C25.7358 52.3984 30.8776 52.3411 35.6402 50.75C38.6633 49.7439 41.4543 48.1425 43.8484 46.0402C46.2426 43.938 48.1915 41.3776 49.5802 38.51C49.6856 38.2593 49.841 38.0326 50.037 37.844C50.233 37.6554 50.4654 37.5088 50.72 37.413C50.9746 37.3173 51.2461 37.2745 51.5178 37.2873C51.7895 37.3001 52.0557 37.3681 52.3002 37.4873C52.5447 37.6065 52.7623 37.7743 52.9398 37.9805C53.1172 38.1866 53.2507 38.4268 53.3321 38.6864C53.4136 38.9459 53.4412 39.2193 53.4134 39.4899C53.3855 39.7605 53.3028 40.0225 53.1702 40.26C51.5542 43.6089 49.2824 46.5993 46.4893 49.0539C43.6963 51.5086 40.4389 53.3775 36.9102 54.55C34.0376 55.5097 31.0289 55.9993 28.0002 56Z" fill="#0074FF"/>
</svg>
