<svg width="26" height="26" viewBox="0 0 26 26" fill="none" xmlns="http://www.w3.org/2000/svg">
<path d="M23.9955 6.36077L12.6168 17.7592C11.4837 18.8942 8.1202 19.42 7.36877 18.6672C6.61735 17.9145 7.13023 14.5451 8.26333 13.4101L19.654 1.99968C19.9349 1.69269 20.2749 1.44591 20.6537 1.27422C21.0324 1.10253 21.442 1.00945 21.8577 1.00068C22.2732 0.991924 22.6864 1.0676 23.072 1.22318C23.4576 1.37875 23.8078 1.61103 24.1013 1.9059C24.3949 2.20078 24.6258 2.55218 24.78 2.93889C24.9342 3.32561 25.0088 3.73961 24.9989 4.15594C24.989 4.57227 24.8949 4.98232 24.7225 5.36125C24.55 5.74018 24.3028 6.08022 23.9955 6.36077Z" stroke="black" stroke-width="1.50818" stroke-linecap="round" stroke-linejoin="round"/>
<path d="M11.7346 3.49316H5.77094C4.5056 3.49316 3.29217 3.99668 2.39744 4.89296C1.50273 5.78925 1 7.00486 1 8.27239V20.2205C1 21.488 1.50273 22.7036 2.39744 23.5999C3.29217 24.4962 4.5056 24.9997 5.77094 24.9997H18.891C21.527 24.9997 22.4692 22.849 22.4692 20.2205V14.2464" stroke="black" stroke-width="1.50818" stroke-linecap="round" stroke-linejoin="round"/>
</svg>
