<svg width="78" height="79" viewBox="0 0 78 79" fill="none" xmlns="http://www.w3.org/2000/svg">
<path d="M34.8611 72.4631L33.5374 69.0646L32.4822 72.4631L31.4983 68.4988L32.2205 60.3425C33.5391 61.6917 35.2009 63.3756 37.274 65.4861L34.8611 72.4631ZM28.3191 7.74662C29.3716 6.49037 30.5779 5.37144 31.9095 4.41616C34.8517 2.39748 37.9278 1.20242 41.2688 0.654086C44.455 0.132935 47.7242 0.18799 50.8405 0.674476C53.5206 1.09678 56.1418 1.83249 58.6501 2.86647C60.4033 3.58242 62.0879 4.456 63.6832 5.47647C65.774 6.93729 65.4557 6.63669 63.5218 5.78573C61.8265 5.06191 60.0691 4.49318 58.2712 4.08651C49.7026 3.26544 41.5492 2.79867 35.4728 8.70328C34.6653 9.51788 33.9642 10.4314 33.3862 11.422C32.5852 12.7916 32.0599 14.2898 31.7447 15.7703L23.981 16.2529C24.836 13.2365 26.5733 9.86827 28.3191 7.74662ZM19.8145 12.2716C21.2641 10.0258 22.9572 7.95087 24.8544 6.34477C25.6742 5.6506 26.5751 5.05835 27.5375 4.58098C27.0838 5.03637 26.6505 5.50705 26.2443 5.99473C25.6899 6.65172 25.172 7.33867 24.693 8.05248L24.676 8.07627L24.6607 8.10006C23.0002 10.6727 21.7441 13.854 21.1297 16.4517L17.3591 16.6726C18.0898 15.1585 18.9086 13.6884 19.8111 12.2699L19.8145 12.2716ZM14.7355 19.5783L2.84101 50.0623L4.84948 54.883L16.0252 48.4361L17.3846 50.7912L5.9047 57.4182L6.63995 58.3959L14.2801 57.6799L25.3811 52.3324C25.8967 52.1932 26.4261 52.1117 26.9597 52.0894C27.93 52.0894 28.5774 52.4395 29.1194 53.2143C29.5493 53.8277 42.4583 66.8964 54.2067 78.7502H78.531V35.884L62.7538 36.5382L46.3376 30.8866L44.6163 29.0174C42.3252 30.1617 40.1609 31.544 38.1593 33.1414C37.5962 33.5809 36.9007 33.8163 36.1865 33.8092C33.8429 33.5418 32.4439 32.2596 30.6079 30.7795C31.1631 27.1697 31.7505 23.3522 32.2324 20.2274C33.3306 19.8612 34.4288 19.4954 35.5272 19.1297L34.7812 18.3175L14.7355 19.5783ZM21.0651 30.6266C21.7489 28.1279 24.4829 27.3255 26.2613 27.5442C26.7835 27.6176 27.3092 27.7867 27.7516 27.9996C27.6041 28.5247 27.3828 29.3369 27.1075 29.7583C25.9985 31.3235 24.1597 32.1199 22.4109 31.884C21.7368 31.7698 20.8918 31.2594 21.0651 30.6266ZM10.5928 48.5483L7.36432 51.9467L5.39323 50.0776L8.62175 46.6791L10.5928 48.5483ZM0.536865 23.8637C0.536865 23.8637 7.4255 19.1399 10.2224 23.6598L8.31079 28.5587L0.536865 23.8637ZM31.2927 59.3876L29.0158 63.1734L29.0837 57.1174C29.6428 57.7037 30.3633 58.4462 31.2842 59.3876H31.2927ZM36.4923 31.0106C35.4969 31.3287 33.5 29.9829 33.5476 29.6496L34.681 22.2868L39.4388 20.7049C42.4379 20.2187 49.3323 19.8571 50.8694 22.2817C44.1412 29.0331 44.1531 25.1483 36.4923 31.0106ZM14.8987 60.3884C17.5007 59.0793 20.1387 57.8403 22.7626 56.5754C21.887 61.5689 20.9113 66.545 20.0864 71.5472L15.7942 77.8904L16.2359 72.113L13.281 74.2659V69.3943L11.5495 62.2661L10.4161 60.3884H14.8987Z" fill="black"/>
</svg>
