<svg width="77" height="76" viewBox="0 0 77 76" fill="none" xmlns="http://www.w3.org/2000/svg">
<path d="M21.9075 15.1113C22.5408 6.68433 32.6738 6.30701 32.6738 6.30701C19.7542 1.77908 16.841 14.6082 17.601 15.6144C18.6143 16.7464 21.7808 17.1237 21.9075 15.1113Z" fill="#947151"/>
<path d="M69.1521 31.462C67.7588 28.4433 71.6854 17.8782 71.6854 17.8782C71.6854 17.8782 81.3117 28.6949 71.9387 33.8517C71.4321 34.1032 69.4055 31.9651 69.1521 31.462Z" fill="#C2ACA1"/>
<path d="M11.1405 45.9261C11.1405 45.9261 7.59394 40.1404 12.6604 32.9712L5.44068 36.2414C2.0208 42.9075 11.1405 45.9261 11.1405 45.9261Z" fill="#C2ACA1"/>
<path d="M72.9519 59.007C71.052 53.8502 71.5586 51.712 71.5586 51.712C76.3718 43.0335 73.0786 30.7074 68.2654 29.9528C51.0393 26.9342 28.7467 31.9652 28.7467 26.1795C28.7467 14.2308 18.6138 6.81004 10.634 14.105C4.93422 19.3876 9.49406 21.1485 0.75436 31.9652C-1.27224 34.3549 1.00768 36.2416 4.93422 36.9962C6.20084 37.2478 6.58083 37.122 9.74739 35.4869C12.7873 33.8518 17.0938 35.8642 18.2338 30.2043C18.2338 30.2043 17.6005 44.2912 26.2135 53.9759C26.2135 53.9759 27.9868 59.007 24.5669 72.7165H28.7467L32.5466 62.2771C32.5466 62.2771 31.7866 54.8564 34.1932 55.611C41.6663 58.2523 60.159 53.7244 60.159 53.7244C61.9323 57.2461 67.6321 60.6421 67.6321 60.6421C67.6321 60.6421 65.8588 64.7927 66.1121 72.7165H70.5453C70.7986 69.6979 72.9519 59.007 72.9519 59.007Z" fill="#F1E7DC"/>
<path d="M23.6797 75.9867H27.7329L28.4929 72.8423H24.313C24.0597 74.7289 23.6797 75.9867 23.6797 75.9867Z" fill="#947151"/>
<path d="M65.9855 72.8423C65.7322 74.7289 65.8588 75.9867 65.8588 75.9867H70.1653C70.1653 75.9867 70.1653 74.7289 70.4187 72.8423H65.9855Z" fill="#947151"/>
<path d="M12.9136 23.6639C13.9629 23.6639 14.8135 22.8192 14.8135 21.7773C14.8135 20.7353 13.9629 19.8906 12.9136 19.8906C11.8643 19.8906 11.0137 20.7353 11.0137 21.7773C11.0137 22.8192 11.8643 23.6639 12.9136 23.6639Z" fill="#3E4347"/>
<path d="M3.16164 32.8454C3.03497 33.097 2.40166 33.4743 2.14834 33.2228C1.89501 33.097 2.02167 32.4681 2.275 32.0908C2.40166 31.8392 2.78165 31.7134 3.03497 31.965C3.2883 32.2165 3.2883 32.5939 3.16164 32.8454Z" fill="#C2ACA1"/>
<path d="M9.62108 29.8269C10.0011 31.3362 9.62108 32.9713 8.73444 34.3548C8.35445 34.9837 7.72114 35.6126 7.08783 36.1157C6.45452 36.6188 5.69454 36.8703 4.93457 37.1219C6.20119 36.2415 7.34115 35.361 8.10113 34.1033C8.48112 33.4744 8.73444 32.8455 8.98777 32.0909C9.24109 31.3362 9.49442 30.5816 9.62108 29.8269Z" fill="#C2ACA1"/>
<path d="M22.414 18.6328C30.2671 18.3812 29.3804 7.81608 28.1138 8.44496C26.0872 9.45117 19.7541 12.344 19.7541 15.8657C19.7541 16.4946 18.9941 18.7586 22.414 18.6328Z" fill="#F1E7DC"/>
<path d="M21.5271 15.1112C22.1604 13.0988 26.7203 10.8348 27.4802 10.5832C28.2402 10.2059 28.2402 15.6143 23.1737 17.7525C22.6671 18.004 22.1604 18.004 21.9071 17.6267C21.6538 17.2493 22.7937 16.4947 23.5537 16.1174C24.4403 15.74 23.427 15.8658 22.7937 15.9916C22.1604 16.2431 22.5404 15.74 23.047 15.4885C23.5537 15.1112 22.2871 15.4885 21.7804 15.9916C21.2738 16.4947 21.1471 16.4947 21.5271 15.1112Z" fill="#C2ACA1"/>
<path d="M19.1202 13.9792C16.8402 4.54606 27.8599 0.521234 27.8599 0.521234C11.9004 0.0181314 13.2937 15.237 14.5603 15.9916C16.0803 16.8721 19.6268 16.2432 19.1202 13.9792Z" fill="#947151"/>
</svg>
