<svg width="106" height="94" viewBox="0 0 106 94" fill="none" xmlns="http://www.w3.org/2000/svg">
<path d="M100.53 39.609L96.2406 23.4046L96.118 22.9415L95.6611 22.7977L79.7611 17.7921L79.2741 17.6388L78.903 17.9894L73.603 22.9949L73.0781 23.4906L73.4688 24.0976L84.2299 40.8195C85.3171 42.5092 85.7808 44.5252 85.541 46.52C85.3013 48.5149 84.373 50.3636 82.9164 51.7475L83.5153 52.3779L82.9164 51.7475L79.7846 54.7229L79.3373 55.1478L79.5907 55.7103L94.0548 87.8298H17.0296L26.3834 52.4929C26.3834 52.4929 26.3834 52.4928 26.3834 52.4928C26.9425 50.3819 28.2807 48.5613 30.1284 47.3977C30.1285 47.3976 30.1285 47.3976 30.1285 47.3976L42.8633 39.3798L43.2695 39.124V38.644V27.7222C43.2695 26.5473 43.5094 25.3847 43.9745 24.3058C44.4395 23.2269 45.1199 22.2542 45.974 21.4475C45.9741 21.4475 45.9741 21.4474 45.9741 21.4474L65.6015 2.91078L65.6016 2.91076C66.6427 1.92735 67.9445 1.26368 69.3519 0.99866C70.7594 0.73364 72.2133 0.878428 73.5409 1.4158L73.8669 0.610481L73.5409 1.41581L99.6646 11.9897L99.9909 11.1837L99.6647 11.9898C101.18 12.6032 102.44 13.7184 103.232 15.1489C104.024 16.5794 104.301 18.2385 104.017 19.8488L104.017 19.8489L100.53 39.609Z" fill="url(#paint0_linear_46_1549)" stroke="black" stroke-width="1.73906"/>
<path d="M105.02 93.1298H0.980204C1.08005 92.6118 1.26987 91.8874 1.63077 91.0213C2.40361 89.1664 3.97153 86.6356 7.16819 84.0783C13.5735 78.9541 26.5929 73.6688 53 73.6688C79.4071 73.6688 92.4265 78.9541 98.8318 84.0783C102.028 86.6356 103.596 89.1664 104.369 91.0213C104.73 91.8874 104.92 92.6118 105.02 93.1298Z" fill="url(#paint1_linear_46_1549)" stroke="black" stroke-width="1.73906"/>
<path d="M86.8943 71.9297H21.2376L23.5814 63.0688H82.9024L86.8943 71.9297Z" fill="white" stroke="black" stroke-width="1.73906"/>
<path d="M50.35 62.6547L50.3484 62.6547C49.7671 62.6558 49.21 62.8872 48.799 63.2982C48.388 63.7092 48.1566 64.2663 48.1555 64.8476V64.8492L48.1555 70.1492L48.1555 70.1509C48.1566 70.7321 48.388 71.2892 48.799 71.7003C49.21 72.1113 49.7671 72.3427 50.3484 72.3438H50.35L55.65 72.3438L55.6517 72.3438C56.2329 72.3426 56.79 72.1112 57.201 71.7002C57.612 71.2892 57.8434 70.7321 57.8445 70.1509V70.1492L57.8445 64.8492L57.8445 64.8476C57.8434 64.2663 57.612 63.7092 57.201 63.2982C56.79 62.8872 56.2329 62.6558 55.6517 62.6547H55.65L50.35 62.6547ZM55.6489 78.5547H50.3511C48.1224 78.5519 45.9858 77.6653 44.4098 76.0894C42.834 74.5136 41.9475 72.3772 41.9445 70.1487V64.8498C41.9475 62.6213 42.834 60.4848 44.4098 58.909C45.9856 57.3332 48.1221 56.4467 50.3506 56.4438H55.6494C57.878 56.4467 60.0144 57.3332 61.5902 58.909C63.1661 60.485 64.0527 62.6216 64.0555 64.8503V70.1481C64.0527 72.3768 63.1661 74.5135 61.5902 76.0894C60.0143 77.6653 57.8776 78.5519 55.6489 78.5547Z" fill="url(#paint2_linear_46_1549)" stroke="black" stroke-width="1.73906"/>
<defs>
<linearGradient id="paint0_linear_46_1549" x1="15.8586" y1="44.3118" x2="105.048" y2="44.3118" gradientUnits="userSpaceOnUse">
<stop stop-color="#FC71FF"/>
<stop offset="0.525" stop-color="#B300D1"/>
<stop offset="1" stop-color="#440354"/>
</linearGradient>
<linearGradient id="paint1_linear_46_1549" x1="-0.0414082" y1="83.4407" x2="106.041" y2="83.4407" gradientUnits="userSpaceOnUse">
<stop stop-color="#FC71FF"/>
<stop offset="1" stop-color="#6F0589"/>
</linearGradient>
<linearGradient id="paint2_linear_46_1549" x1="41.075" y1="67.5406" x2="64.925" y2="67.5406" gradientUnits="userSpaceOnUse">
<stop stop-color="#FFE70C"/>
<stop offset="1" stop-color="#FF9900"/>
</linearGradient>
</defs>
</svg>
