<svg width="96" height="136" viewBox="0 0 96 136" fill="none" xmlns="http://www.w3.org/2000/svg">
<path d="M34.7979 118.987V124.709C34.7979 130.63 39.8191 135.429 46.0132 135.429H49.987C52.8642 135.429 55.4799 134.385 57.4654 132.682H57.4672V132.68C59.7547 130.718 61.2024 127.878 61.2024 124.709V118.987H34.7979Z" fill="#B89963"/>
<path d="M33.8107 115.122L28.1628 97.873L31.8377 96.7734L37.4859 114.022L33.8107 115.122Z" fill="#FDFADE"/>
<path d="M62.1898 115.123L58.5149 114.023L64.1628 96.7744L67.8379 97.874L62.1898 115.123Z" fill="#FDFADE"/>
<path d="M49.9258 96.2891H46.0747V117.762H49.9258V96.2891Z" fill="#FDFADE"/>
<path d="M81.9043 13.4748C73.2505 5.20244 61.3167 0.0669217 48.1275 0.00185159V0C48.0883 0 48.0487 0 48.0095 0.000529026C48.0064 0.000529026 48.0034 0.000529026 48.0003 0.000529026C47.9971 0.000529026 47.9942 0.000529026 47.991 0.000529026C47.9519 0 47.9119 0 47.8728 0V0.00185159C34.6836 0.0669217 22.7498 5.20244 14.0959 13.4748C5.38682 21.7996 0 33.3011 0 46.0049C0 72.5366 24.4773 85.8394 26.9503 96.2882H47.8725H48.1272H69.0495C71.5224 85.8394 96 72.5366 96 46.0049C96.0003 33.3011 90.6134 21.7996 81.9043 13.4748Z" fill="#FDFEFF"/>
<path d="M47.8727 1.89928V96.3407C47.8727 97.2509 47.1144 97.9886 46.1788 97.9886H35.535C34.6952 97.9886 33.9839 97.3889 33.8625 96.5803C32.7428 89.1285 18.4115 72.0983 14.3343 50.6582C10.4737 30.3606 12.6588 2.20928 45.4876 0.339973C45.6307 0.331773 45.7712 0.293948 45.9138 0.271729C46.9417 0.11064 47.8727 0.886456 47.8727 1.89928Z" fill="#D37C78"/>
<path d="M48.1274 1.89899V96.3404C48.1274 97.2506 48.8858 97.9883 49.8214 97.9883H60.4652C61.305 97.9883 62.0163 97.3887 62.1377 96.5801C63.2574 89.1282 77.5885 72.0981 81.6659 50.658C85.5265 30.36 83.3414 2.20873 50.5123 0.33942C50.3692 0.33122 50.2287 0.293395 50.0862 0.271176C49.0585 0.110352 48.1274 0.886168 48.1274 1.89899Z" fill="#D37C78"/>
<path d="M50.2578 0.338007C49.5817 0.138564 48.8715 0.0264105 48.1274 0.00524951V0.000488281C48.0883 0.000488281 48.0486 0.000488281 48.0095 0.00101731C48.0063 0.00101731 48.0034 0.00128182 48.0002 0.00128182C47.997 0.00128182 47.9941 0.00101731 47.9909 0.00101731C47.9518 0.000488281 47.9119 0.000488281 47.8727 0.000488281V0.00524951C47.1289 0.0264105 46.4187 0.138564 45.7423 0.338007C35.1509 3.45476 31.0097 27.4257 33.1073 45.8834C35.3538 65.6534 41.6225 85.8397 42.3028 96.2884H47.8727H48.1274H53.6973C54.3776 85.8397 60.6464 65.6534 62.8929 45.8834C64.9902 27.4257 60.8492 3.45476 50.2578 0.338007Z" fill="#FDFEFF"/>
<path d="M68.7841 98.357H27.2049L26.9502 96.2891H69.0388L68.7841 98.357Z" fill="#77C7C6"/>
<path d="M28.5396 113.016V117.478C28.5396 124.094 34.1507 129.458 41.0722 129.458H54.928C61.8495 129.458 67.4606 124.094 67.4606 117.478V113.016H28.5396Z" fill="#CFAB73"/>
<path d="M56.7358 116.994C56.7358 118.85 55.7666 120.354 54.571 120.354C53.3754 120.354 52.4062 118.85 52.4062 116.994C52.4062 115.139 53.9404 111.808 54.571 111.808C55.3635 111.808 56.7358 115.139 56.7358 116.994Z" fill="#EAE8A8"/>
<path d="M43.5945 116.993C43.5945 118.849 42.6253 120.353 41.4297 120.353C40.2341 120.353 39.2649 118.849 39.2649 116.993C39.2649 115.138 40.7991 111.807 41.4297 111.807C42.2224 111.807 43.5945 115.138 43.5945 116.993Z" fill="#EAE8A8"/>
<path d="M69.626 116.993C69.626 118.848 68.6568 120.353 67.4612 120.353C66.2656 120.353 65.2964 118.848 65.2964 116.993C65.2964 115.137 66.8306 111.807 67.4612 111.807C68.2537 111.807 69.626 115.137 69.626 116.993Z" fill="#EAE8A8"/>
<path d="M30.7043 116.992C30.7043 118.848 29.7351 120.352 28.5395 120.352C27.3439 120.352 26.3748 118.848 26.3748 116.992C26.3748 115.137 27.9089 111.806 28.5395 111.806C29.3323 111.806 30.7043 115.137 30.7043 116.992Z" fill="#EAE8A8"/>
<path opacity="0.1" d="M67.2062 111.806C66.9636 111.806 66.5877 112.303 66.2166 113.015H62.6245L67.4246 98.3567H68.5298L68.7845 96.2887H68.7956C71.2686 85.8399 95.7459 72.5368 95.7459 46.0054C95.7459 33.3021 90.359 21.8003 81.6499 13.4753C72.9958 5.20293 61.062 0.0671455 47.8728 0.00233987V0.000488281C47.8337 0.000488281 47.794 0.000488281 47.7549 0.00101731C47.7517 0.00101731 47.7488 0.00101731 47.7456 0.00101731V135.431H49.7324C52.6098 135.431 55.2253 134.386 57.2104 132.684H57.2126V132.682C58.6314 131.465 59.7252 129.909 60.3526 128.148C63.5688 126.58 65.9759 123.728 66.843 120.295C66.9617 120.327 67.0816 120.352 67.2059 120.352C68.4015 120.352 69.3707 118.848 69.3707 116.993C69.3709 115.137 67.9986 111.806 67.2062 111.806ZM58.5891 113.015H55.376C55.0107 112.303 54.6208 111.806 54.3161 111.806C54.0736 111.806 53.698 112.303 53.3266 113.015H49.671V98.3567H63.3892L58.5891 113.015Z" fill="#040000"/>
</svg>
