<svg width="293" height="283" viewBox="0 0 293 283" fill="none" xmlns="http://www.w3.org/2000/svg">
<path d="M156.791 118.714L167.389 150.256C167.389 150.256 134.389 157.073 107.886 181.073C90.7822 196.545 75.8707 210.611 66.2608 227.486C62.3287 234.377 58.666 251.565 57.1437 257.118C55.6215 262.671 50.4518 274.527 41.2226 270.574C31.9933 266.622 6.32251 248.047 2.97847 244.662C-0.365576 241.278 -2.69356 235.178 6.25438 227.714C11.8084 223.083 27.399 207.219 37.8315 196.258C48.264 185.297 66.716 162.928 98.8214 142.742C130.067 123.104 156.791 118.714 156.791 118.714Z" fill="#DC8124"/>
<path d="M43.3997 224.159C31.5872 216.097 26.0888 208.395 26.0888 208.395L15.7187 218.664C15.7187 218.664 21.1265 225.96 34.7781 235.17C46.7027 243.218 59.3678 248.036 59.3678 248.036L63.4692 233.944C63.5066 233.939 55.2967 232.286 43.3997 224.159Z" fill="#C0711F"/>
<path d="M82.9655 205.115C82.9655 205.115 80.299 208.138 78.6487 210.061C76.9821 212.005 74.5332 215.095 74.5332 215.095C74.5332 215.095 65.2243 209.501 58.6844 204.023C47.9706 195.059 45.0242 188.584 45.0242 188.584C45.0242 188.584 47.1167 186.262 49.6772 183.594C52.2329 180.89 54.4454 178.761 54.4454 178.761C54.4454 178.761 57.8023 185.619 68.626 195.139C76.3422 201.927 82.9655 205.115 82.9655 205.115Z" fill="#C0711F"/>
<path d="M109.708 179.451C109.708 179.451 103.705 176.506 95.6522 166.969C87.841 157.686 86.5595 151.015 86.5595 151.015C86.5595 151.015 83.5594 153.074 81.4058 154.778C79.4083 156.366 76.4372 158.65 76.4372 158.65C76.4372 158.65 77.3565 165.311 86.0912 175.272C94.6522 185.066 100.73 187.564 100.73 187.564C100.73 187.564 103.297 185.238 105.18 183.494C107.337 181.524 109.708 179.451 109.708 179.451Z" fill="#C0711F"/>
<path d="M128.787 165.737C128.787 165.737 123.754 162.362 117.149 151.689C111.385 142.369 111.058 135.593 111.058 135.593L141.844 119.3L161.575 150.382L128.787 165.737Z" fill="#A2672B"/>
<path d="M153.047 135.266C153.047 135.266 126.644 125.712 114.891 121.631C103.138 117.55 94.4874 113.37 94.4874 113.37C94.4874 113.37 96.0429 105.287 98.8794 99.469C100.752 95.5989 104.933 90.4805 103.417 89.4802C100.924 87.8277 96.1254 90.5191 91.8244 95.881C88.13 100.5 83.9874 108.405 83.9874 108.405L72.011 103.479C72.011 103.479 72.2877 97.8404 75.3574 90.8905C78.5753 83.6176 81.1236 81.8822 79.9509 80.3057C78.6419 78.5569 73.8234 78.307 66.9664 88.4252C62.7881 94.5879 61.1941 98.7068 60.7199 98.7112C59.9419 98.7169 53.8079 96.814 48.5396 94.7041C43.2877 92.5731 38.2554 89.9388 38.2554 89.9388C38.2554 89.9388 57.6173 48.6302 90.4512 51.236C131.535 54.4832 154.407 97.5037 154.407 97.5037L144.322 57.3101C144.322 57.3101 149.724 54.1418 154.681 52.3795C160.344 50.3548 165.751 50.4526 165.796 49.0413C165.886 47.0924 160.569 42.9945 152.781 43.7179C146.214 44.3401 140.478 45.8044 140.27 45.8123L136.907 34.5101C136.907 34.5101 141.467 30.1213 145.894 28.5225C150.193 26.9594 155.342 26.3878 154.929 25.3967C154.051 23.3072 148.011 21.1072 142.659 21.7241C138.038 22.2654 132.834 24.6105 132.834 24.6105L125.563 2.19066C125.563 2.19066 150.549 -6.96967 173.596 12.1732C196.644 31.3161 197.709 56.4195 198.233 63.9868C198.757 71.554 195.77 84.7227 195.77 84.7227L216.061 57.4815C216.061 57.4815 220.403 59.4833 224.273 61.7933C230.099 65.2745 232.966 69.2336 233.457 68.7712C235.179 67.1049 233.959 61.7928 229.568 56.6256C225.249 51.5818 220.605 49.0112 220.605 49.0112L235.643 20.5127C235.643 20.5127 245.928 27.1961 252.779 40.6487C257.209 49.3436 260.888 61.3267 259.096 74.7775C255.162 104.536 226.589 117.826 226.589 117.826C226.589 117.826 256.922 113.291 279.829 141.474C304.948 172.371 286.722 212.032 284.992 210.699C280.308 207.089 262.601 194.719 262.273 193.356C262.09 192.677 264.567 187.019 265.062 180.573C265.578 174.144 264.625 167.658 261.565 165.3C259.983 164.08 259.658 168.909 257.991 174.955C256.28 181.102 253.318 187.127 253.318 187.127L238.086 175.386C238.086 175.386 246.766 157.492 242.253 152.264C240.311 150.027 238.05 156.189 235.693 160.425C233.259 164.805 230.263 169.39 230.263 169.39L210.508 155.139C210.508 155.139 234.144 175.744 239.24 204.694C244.536 234.606 229.026 258.569 218.797 268.611C208.569 278.653 203.007 282.64 201.567 282.37C200.126 282.101 198.036 255.098 198.452 253.468C198.851 251.859 205.653 248.794 210.987 241.874C216.32 234.954 217.426 230.29 216.185 229.065C214.922 227.823 211.411 233.12 207.043 236.648C202.45 240.339 197.873 242.831 196.916 242.632C195.96 242.433 195.765 225.231 195.765 225.231C195.765 225.231 200.322 222.286 203.827 218.699C207.332 215.111 210.216 210.541 209.678 208.882C209.1 207.057 204.566 210.759 200.113 213.482C196.557 215.652 195.174 216.267 193.865 216.57L189.794 190.26C189.794 190.26 186.944 219.441 170.233 237.805C151.565 258.36 130.049 254.859 129.331 254.002C128.596 253.167 136.402 221.92 136.402 221.92C136.402 221.92 142.563 221.388 149.096 218.453C157.334 214.747 160.974 209.85 160.326 208.073C159.415 205.589 151.464 210.625 146.462 211.748C141.46 212.87 138.565 213.397 138.038 212.99C137.511 212.584 142.663 190.322 142.663 190.322C142.663 190.322 145.849 190.726 149.462 189.442C152.513 188.363 156.62 185.609 157.162 182.462C156.807 180.305 153.162 182.372 149.964 182.463C146.766 182.555 144.65 182.202 144.65 182.202C144.65 182.202 147.234 162.4 149.055 153.579C150.903 144.679 153.047 135.266 153.047 135.266Z" fill="#728137"/>
<path d="M140.989 140.569C140.506 139.188 148.675 124.531 152.804 117.255C156.513 110.697 161.259 100.263 166.42 102.862C169.956 104.645 167.876 110.004 165.279 115.469C162.945 120.329 159.879 127.013 159.879 127.013C159.879 127.013 169.77 122.427 176.043 119.83C180.586 117.95 190.243 114.06 191.934 118.76C193.867 124.151 183.698 128.791 178.023 131.311C172.347 133.831 165.824 136.841 165.824 136.841C165.824 136.841 174.724 139.867 179.814 141.772C185.402 143.86 192.358 147.271 191.332 150.347C189.557 155.705 182.361 153.522 168.16 149.605C154.055 145.696 141.805 142.913 140.989 140.569Z" fill="#BDCF47"/>
<path d="M245.229 90.8931C239.079 99.875 227.901 111.236 222.856 105.128C218.471 99.8649 230.871 96.4743 238.727 86.1509C249.749 71.676 243.075 61.0495 248.398 60.2085C252.733 59.5143 255.229 76.3035 245.229 90.8931Z" fill="#BDCF47"/>
<path d="M262.927 141.63C258.133 135.85 254.337 133.226 255.283 131.736C256.518 129.829 259.266 129.929 266.484 136.098C273.123 141.753 278.687 148.934 281.909 158.716C283.727 164.228 284.844 169.948 285.234 175.74C285.965 188.142 282.106 195.156 277.644 192.961C273.038 190.689 274.645 184.764 275.32 177.65C276.99 160.473 268.622 148.508 262.927 141.63Z" fill="#BDCF47"/>
<path d="M205.98 266.871C202.786 264.207 205.315 261.145 211.491 252.957C215.509 247.613 221.042 240.914 224.042 232.397C228.066 220.936 227.876 211.54 226.311 202.531C224.592 192.631 220.898 184.638 218.621 180.394C214.3 172.254 219.467 171.965 222.413 177.263C225.338 182.544 236.096 199.479 234.395 221.845C233.297 236.403 228.993 245.26 221.413 255.661C215.684 263.487 208.151 268.679 205.98 266.871Z" fill="#BDCF47"/>
<path d="M179.665 196.814C182.344 198.879 177.487 215.347 167.29 227.835C157.114 240.339 146.623 245.268 141.734 243.888C137.79 242.765 138.093 237.921 143.001 233.867C146.211 231.229 154.203 229.15 161.424 221.396C168.66 213.622 174.224 203.349 175.526 200.787C176.823 198.188 177.872 195.431 179.665 196.814Z" fill="#BDCF47"/>
</svg>
