<svg width="44" height="46" viewBox="0 0 44 46" fill="none" xmlns="http://www.w3.org/2000/svg">
<path d="M2.7498 23.1L0.549805 29.15L6.59981 34.65L9.34981 41.25H16.4998L22.5498 45.1L28.0498 41.25H34.0998L35.7498 40.15L37.3998 34.1L42.3498 30.8L42.8998 29.15L41.2498 23.1L42.8998 15.95L37.3998 11.55L34.6498 4.94998H27.4998L21.4498 1.09998L17.0498 4.94998H8.24981L6.59981 11.55L0.549805 17.05L2.7498 23.1Z" fill="#00FF7F"/>
<path d="M42.1082 23.4793C42.0446 23.3131 42.0132 23.1381 42.0132 22.963C42.0132 22.7879 42.0446 22.6128 42.1082 22.4467L43.7852 18.0441C43.9299 17.6638 44.0006 17.2685 44 16.8787C44.0006 15.7986 43.4635 14.7566 42.517 14.1382L38.5714 11.5622C38.274 11.3682 38.0575 11.0697 37.9649 10.7267L36.7336 6.1775C36.3448 4.745 35.0465 3.75992 33.5747 3.75992C33.5195 3.75992 33.4644 3.76118 33.4086 3.76405L28.7164 3.99852L28.634 4.00032C28.3023 4.00032 27.9812 3.88757 27.7225 3.67991L24.0533 0.724592C23.4557 0.242099 22.7258 -0.00062668 22.0006 1.21506e-06C21.2749 -0.00062668 20.5449 0.242099 19.9462 0.72522L16.2776 3.67982C16.0195 3.88757 15.6978 4.00023 15.3661 4.00023L15.2913 3.99844L10.5689 3.7628L10.5985 3.76459C10.5337 3.76046 10.4762 3.75984 10.4258 3.75984C8.95414 3.75984 7.65574 4.74491 7.26708 6.17741L6.03568 10.7266C5.94311 11.0696 5.72649 11.3681 5.42914 11.5621L1.48354 14.1382C0.53703 14.7566 -0.000627345 15.7992 5.49342e-07 16.8792C5.49342e-07 17.2685 0.0700557 17.6638 0.214202 18.0435L1.89239 22.4467C1.95589 22.6128 1.98738 22.7879 1.98738 22.963C1.98738 23.1375 1.95589 23.3131 1.89239 23.4793L0.21483 27.8825C0.0700557 28.2616 5.49342e-07 28.6568 5.49342e-07 29.0461C-0.000537646 30.1261 0.536492 31.1689 1.48354 31.7883L5.42914 34.3644C5.72649 34.5584 5.94303 34.8558 6.03568 35.1993L7.26708 39.7473C7.65574 41.1804 8.95414 42.1654 10.4252 42.166C10.4762 42.1654 10.5309 42.1648 10.5885 42.1619L10.7398 42.1542L15.2955 41.9269L15.3044 41.9262L15.3685 41.925C15.6984 41.925 16.0189 42.0377 16.2776 42.2461L19.9468 45.2019C20.5449 45.6837 21.2749 45.9265 22.0006 45.9258C22.7258 45.9265 23.4557 45.6837 24.0538 45.2019L27.7229 42.2461C27.9817 42.0372 28.3022 41.925 28.632 41.925L28.7027 41.9268L28.7857 41.9309L33.3877 42.1605L33.4192 42.1623C33.4678 42.1641 33.5194 42.1652 33.5746 42.1652C35.0457 42.1652 36.3447 41.1807 36.7335 39.7471L37.9648 35.1992C38.0573 34.8556 38.274 34.5583 38.5707 34.3642L42.5169 31.7882C43.4634 31.1687 44.0005 30.1266 43.9999 29.0466C44.0005 28.6573 43.9299 28.2621 43.7851 27.8818L42.1082 23.4793ZM41.5195 30.2621L37.5745 32.8381C36.9021 33.2766 36.4149 33.9478 36.2049 34.7234L34.9735 39.2714C34.8025 39.9064 34.2251 40.343 33.5747 40.343L33.494 40.3407L28.7964 40.1063H28.7988C28.7455 40.1034 28.6902 40.1021 28.632 40.1021C27.8867 40.1016 27.1616 40.3568 26.5788 40.8267L22.9096 43.7826C22.6432 43.9968 22.324 44.103 22.0005 44.103C21.6765 44.103 21.3573 43.9968 21.0908 43.7826L17.4217 40.8267C16.839 40.3573 16.1138 40.1021 15.3684 40.1021C15.3197 40.1021 15.264 40.1034 15.2041 40.107V40.1063L10.4982 40.3413H10.4995L10.4253 40.3425C9.77614 40.343 9.19812 39.9064 9.02715 39.2714L7.79594 34.7235C7.58587 33.9478 7.09862 33.2767 6.4257 32.8376L2.48063 30.2622C2.06111 29.9886 1.82377 29.5258 1.82314 29.0462C1.82314 28.8742 1.85399 28.7009 1.91804 28.5317L3.59568 24.1286C3.73867 23.7535 3.81043 23.3583 3.81043 22.9631C3.81043 22.5679 3.73867 22.1727 3.59568 21.797L1.91804 17.395C1.85399 17.2247 1.82314 17.0514 1.82314 16.8792C1.82377 16.3998 2.06048 15.9381 2.48001 15.6645L6.42623 13.0886C7.09862 12.6488 7.58578 11.9776 7.79585 11.2026L9.02715 6.65407C9.19812 6.01972 9.77614 5.58235 10.4259 5.58297L10.4894 5.58423L10.5096 5.58539L15.2042 5.81978H15.2083L15.3662 5.82337C16.1121 5.82399 16.8373 5.5688 17.4212 5.10003L21.0904 2.14417L20.519 1.43447L21.091 2.14354C21.3575 1.92871 21.6767 1.82314 22.0007 1.82314C22.3242 1.82314 22.6434 1.92934 22.9098 2.14354L26.5796 5.0994C27.1635 5.56997 27.8893 5.82337 28.6341 5.82337C28.6892 5.82337 28.7397 5.8222 28.7854 5.82041L28.8026 5.81924L33.4194 5.58898L33.5048 5.58477L33.5748 5.58297C34.2247 5.58235 34.8026 6.01972 34.9736 6.65407L36.205 11.2026C36.415 11.9776 36.9022 12.6488 37.5746 13.0886L41.5202 15.6645C41.9398 15.9381 42.1771 16.3998 42.1771 16.8787C42.1771 17.0508 42.1469 17.2246 42.0816 17.3956L40.4051 21.7975C40.2621 22.1726 40.1903 22.5678 40.1903 22.963C40.1903 23.3582 40.2621 23.7534 40.4051 24.1285L42.0821 28.5316C42.1469 28.7013 42.1771 28.8746 42.1771 29.0467C42.1769 29.5257 41.9396 29.9879 41.5195 30.2621Z" fill="black"/>
<path d="M14.0678 32.2954C13.5344 32.6034 13.0063 32.7928 12.4837 32.8636C11.9611 32.9344 11.4736 32.874 11.0213 32.6825C10.5758 32.487 10.2082 32.1543 9.91836 31.6842L11.8098 30.5922C11.9935 30.8464 12.207 31.0003 12.4503 31.0538C12.6897 31.1003 12.9375 31.0496 13.1939 30.9016C13.4572 30.7496 13.631 30.5707 13.7154 30.365C13.7958 30.1522 13.7741 29.9385 13.6501 29.7237C13.5461 29.5436 13.3977 29.4306 13.205 29.3849C13.0192 29.3351 12.8143 29.3241 12.5901 29.3519C12.3729 29.3757 12.0735 29.4331 11.6919 29.5241C11.1368 29.6506 10.6682 29.7271 10.2863 29.7536C9.90442 29.7801 9.52408 29.7133 9.1453 29.5533C8.76653 29.3932 8.44514 29.0846 8.18114 28.6273C7.78914 27.9483 7.72909 27.2763 8.00099 26.6113C8.2689 25.9393 8.79775 25.3753 9.58757 24.9193C10.3912 24.4553 11.151 24.2753 11.8669 24.3793C12.5788 24.4763 13.1501 24.8578 13.5807 25.5237L11.6582 26.6337C11.5083 26.4061 11.3157 26.2725 11.0804 26.2329C10.841 26.1863 10.5966 26.235 10.3472 26.379C10.1324 26.503 9.99324 26.6619 9.9296 26.8557C9.86196 27.0426 9.89015 27.2434 10.0141 27.4582C10.1501 27.6937 10.367 27.8133 10.6647 27.8169C10.9624 27.8206 11.3908 27.7626 11.9499 27.643C12.513 27.5304 12.9821 27.4628 13.3571 27.4403C13.739 27.4138 14.1173 27.4771 14.4921 27.6302C14.8669 27.7833 15.1803 28.0782 15.4323 28.5146C15.6723 28.9303 15.7829 29.3699 15.7641 29.8334C15.7523 30.2929 15.6034 30.7391 15.3176 31.172C15.0318 31.6049 14.6152 31.9794 14.0678 32.2954ZM22.4434 25.6446L19.7206 27.2166L20.0281 28.7572L18.1679 29.8312L16.5955 21.0118L18.6532 19.8238L25.5049 25.5952L23.6238 26.6812L22.4434 25.6446ZM21.1941 24.5368L18.748 22.388L19.3962 25.5748L21.1941 24.5368ZM28.1593 22.2336L30.4872 20.8896L31.2792 22.2614L27.1743 24.6314L22.9623 17.336L24.7393 16.31L28.1593 22.2336ZM31.3799 14.3744L32.2319 15.8501L34.6118 14.4761L35.4038 15.8479L33.0239 17.2219L33.9479 18.8223L36.6396 17.2683L37.4616 18.692L32.9929 21.272L28.7809 13.9766L33.2496 11.3966L34.0716 12.8204L31.3799 14.3744Z" fill="black"/>
</svg>
