<svg width="205" height="128" viewBox="0 0 205 128" fill="none" xmlns="http://www.w3.org/2000/svg">
<g filter="url(#filter0_d_508_1661)">
<path d="M175.338 45.782C176.994 52.7164 175.22 60.0533 170.691 67.221C170.653 67.2816 170.618 67.3422 170.587 67.403C167.925 72.534 188.995 78.535 200.623 78.2981C200.327 78.5388 156.249 82.7331 155.947 82.9723C142.861 93.3312 124.22 102.199 102.652 107.35C56.9916 118.255 15.5048 108.37 9.98839 85.271C4.47195 62.1724 37.0149 34.6073 82.675 23.7027C128.335 12.7981 169.822 22.6834 175.338 45.782Z" fill="white"/>
<path d="M174.852 45.8982C176.468 52.6653 174.748 59.8643 170.269 66.954C170.223 67.026 170.181 67.099 170.143 67.1728C169.724 67.9794 169.784 68.8084 170.194 69.5867C170.59 70.3401 171.311 71.049 172.23 71.7094C174.074 73.0338 176.878 74.2766 180.089 75.3382C184.529 76.806 189.828 77.9537 194.621 78.4839C194.262 78.5212 193.891 78.5595 193.509 78.599C189.331 79.0297 183.785 79.5839 178.238 80.1382L178.147 80.1473C172.63 80.6985 167.12 81.2491 162.962 81.6775C160.872 81.8928 159.123 82.0774 157.886 82.2157C157.267 82.2848 156.775 82.3426 156.431 82.3871C156.26 82.4093 156.121 82.4287 156.021 82.4449C155.971 82.4529 155.925 82.4612 155.886 82.4697C155.867 82.4738 155.842 82.4798 155.815 82.4879C155.802 82.4919 155.782 82.4985 155.759 82.5083C155.743 82.5151 155.691 82.5369 155.636 82.5802C142.618 92.8862 124.046 101.727 102.536 106.864C79.7655 112.302 58.0598 112.549 41.3821 108.576C24.6736 104.594 13.166 96.4238 10.4747 85.1549C7.78347 73.886 14.3572 61.3972 27.4636 50.2956C40.5459 39.2145 60.021 29.627 82.7911 24.189C105.561 18.7511 127.267 18.5037 143.945 22.4775C160.653 26.4588 172.161 34.6293 174.852 45.8982Z" stroke="black"/>
</g>
<path d="M35.1261 92.1478C35.0638 89.4759 34.9824 86.8852 34.8821 84.3759C34.8166 83.2976 34.7514 82.1809 34.6866 81.0257C34.6218 79.8705 34.541 78.7287 34.4443 77.6003C34.3657 76.4675 34.2685 75.3776 34.1528 74.3305C34.0509 73.261 33.9365 72.2999 33.8097 71.4474C34.2359 71.384 34.7167 71.3075 35.2519 71.2181C35.7827 71.1105 36.2794 71.0207 36.742 70.9486C37.2954 70.8548 37.8444 70.7429 38.3891 70.6128C38.3883 70.6898 38.3935 70.8324 38.4049 71.0408C38.4163 71.2492 38.4295 71.5052 38.4444 71.8087C38.4549 72.094 38.4651 72.4179 38.4749 72.7802C38.5028 73.1381 38.5216 73.4983 38.5314 73.8606C38.5769 74.6941 38.6282 75.6319 38.6851 76.6738L38.842 76.6076C38.9542 76.2737 39.1129 75.8136 39.3183 75.2272C39.5376 74.6183 39.7594 73.9799 39.9837 73.3122C40.2081 72.6445 40.4299 72.0062 40.6491 71.3973C40.864 70.7702 41.0439 70.2379 41.1889 69.8002C42.0794 69.5108 42.9676 69.2123 43.8538 68.9047C44.7399 68.5971 45.6195 68.2623 46.4926 67.9003C45.9125 69.2479 45.3552 70.5708 44.8208 71.8692C44.5886 72.4236 44.3516 72.9984 44.1099 73.5935C43.8864 74.1842 43.6606 74.7659 43.4327 75.3385C43.2049 75.9111 42.9908 76.4612 42.7905 76.9888C42.6084 77.5121 42.4449 77.9925 42.2999 78.4302C43.1373 80.1686 44.0321 81.826 44.9844 83.4026C45.9367 84.9792 46.9067 86.59 47.8945 88.2348C47.4725 88.3164 47.0437 88.4092 46.608 88.5133C46.1679 88.5992 45.739 88.692 45.3214 88.7917C44.7949 88.9175 44.2887 89.048 43.8028 89.1832C43.3126 89.3003 42.8064 89.4308 42.2842 89.5747C41.839 88.4336 41.3626 87.2423 40.855 86.0009C40.3612 84.737 39.8917 83.5345 39.4465 82.3934L39.0929 83.0824C39.0958 83.6574 39.111 84.3639 39.1384 85.2018C39.184 86.0354 39.223 86.8417 39.2555 87.6208C39.3002 88.5313 39.3424 89.4712 39.382 90.4405L35.1261 92.1478ZM52.9812 87.2791C52.8178 87.3181 52.4975 87.4234 52.0203 87.595C51.5569 87.744 51.0797 87.9155 50.5887 88.1096C50.0933 88.2855 49.6433 88.4505 49.2387 88.6047C48.8523 88.7546 48.6431 88.8429 48.6111 88.8697C48.6062 88.0457 48.5818 87.1399 48.5379 86.1524C48.5078 85.1424 48.4691 84.0962 48.4216 83.0136C48.3699 81.9128 48.3068 80.8052 48.2326 79.6906C48.1583 78.576 48.0836 77.4999 48.0086 76.4623C47.8348 74.0473 47.6459 71.5687 47.4418 69.0266L51.5277 67.3311C51.6912 69.8637 51.8529 72.3488 52.0128 74.7863C52.0879 75.824 52.1625 76.9 52.2368 78.0146C52.3292 79.1248 52.4104 80.2282 52.4803 81.3246C52.5684 82.4167 52.6591 83.4793 52.7523 84.5126C52.8412 85.5277 52.9175 86.4499 52.9812 87.2791ZM62.2679 84.7158C61.7051 84.8502 61.1103 85.0115 60.4835 85.1995C59.8749 85.3833 59.2615 85.5873 58.6434 85.8117C58.0252 86.0361 57.4227 86.2856 56.8358 86.5601C56.2626 86.8121 55.7505 87.0783 55.2993 87.3588C55.2131 86.5158 55.1234 85.5776 55.0301 84.5444C54.9369 83.5111 54.8532 82.4372 54.7789 81.3226C54.7228 80.2037 54.6554 79.0779 54.5768 77.9451C54.5164 76.8081 54.4668 75.7164 54.428 74.6701C54.3139 72.1833 54.2162 69.6445 54.1348 67.0539L58.7512 65.2893C58.764 67.5125 58.7819 69.6769 58.8049 71.7824C58.809 72.6835 58.8218 73.6208 58.8432 74.5945C58.8603 75.55 58.8821 76.4851 58.9087 77.4C58.9352 78.3149 58.9735 79.1981 59.0233 80.0498C59.0732 80.9016 59.1286 81.656 59.1896 82.3131C59.6349 82.1684 60.1117 82.0354 60.62 81.9139C61.1422 81.77 61.603 81.6504 62.0025 81.555C62.103 81.8956 62.2126 82.2341 62.3313 82.5704C62.4457 82.8885 62.5535 83.1794 62.6549 83.4431C62.7744 83.7024 62.8692 83.9389 62.9394 84.1524C63.0234 84.3434 63.0832 84.4731 63.1187 84.5414C62.9734 84.5761 62.8282 84.6108 62.6829 84.6455C62.5515 84.6577 62.4132 84.6811 62.2679 84.7158ZM71.4587 82.5208C70.8958 82.6553 70.301 82.8165 69.6742 83.0046C69.0656 83.1883 68.4522 83.3924 67.8341 83.6168C67.216 83.8412 66.6135 84.0906 66.0265 84.3651C65.4534 84.6172 64.9412 84.8834 64.49 85.1639C64.4038 84.3208 64.3141 83.3827 64.2209 82.3494C64.1277 81.3161 64.0439 80.2422 63.9696 79.1277C63.9135 78.0087 63.8462 76.8829 63.7676 75.7502C63.7071 74.6131 63.6575 73.5215 63.6188 72.4752C63.5046 69.9883 63.4069 67.4496 63.3256 64.859L67.942 63.0944C67.9547 65.3176 67.9726 67.4819 67.9957 69.5875C67.9998 70.4885 68.0125 71.4259 68.0339 72.3995C68.051 73.355 68.0729 74.2902 68.0994 75.2051C68.126 76.1199 68.1642 77.0032 68.2141 77.8549C68.264 78.7066 68.3194 79.461 68.3804 80.1182C68.8256 79.9735 69.3024 79.8404 69.8108 79.719C70.333 79.5751 70.7938 79.4555 71.1932 79.3601C71.2938 79.7007 71.4034 80.0392 71.5221 80.3754C71.6364 80.6936 71.7443 80.9845 71.8456 81.2482C71.9651 81.5075 72.06 81.7439 72.1302 81.9575C72.2142 82.1485 72.274 82.2782 72.3095 82.3465C72.1642 82.3811 72.019 82.4158 71.8737 82.4505C71.7423 82.4627 71.6039 82.4862 71.4587 82.5208ZM73.5653 82.9677L72.5086 62.7522L80.939 59.9616C80.9073 60.3914 80.8959 60.8259 80.9049 61.2652C80.8965 61.6319 80.8924 62.0167 80.8927 62.4196C80.9068 62.8001 80.9213 63.1421 80.9362 63.4456C80.759 63.5071 80.5 63.5881 80.1594 63.6887C79.8326 63.7667 79.4807 63.8603 79.1038 63.9696C78.7225 64.0606 78.3321 64.1538 77.9327 64.2492C77.5514 64.3403 77.2155 64.4205 76.925 64.4899L77.1361 69.5924C77.6902 69.4217 78.2103 69.2687 78.6961 69.1335C79.0912 69.0199 79.4976 68.9133 79.9152 68.8136C80.3328 68.7138 80.6393 68.6311 80.8346 68.5652C80.8834 69.0909 80.93 69.6076 80.9745 70.1151C81.0371 70.6183 81.0837 71.135 81.1143 71.665C80.9371 71.7265 80.6419 71.8162 80.2286 71.9341C79.8292 72.0295 79.4228 72.1362 79.0096 72.254C78.5419 72.3849 78.0288 72.5267 77.4703 72.6792L77.741 77.9115L81.5676 76.3355L82.0368 79.5052L73.5653 82.9677ZM83.711 80.5447C83.6245 78.0129 83.5329 75.5399 83.4361 73.1257C83.3654 72.1062 83.3041 71.0461 83.2523 69.9453C83.1962 68.8264 83.1263 67.73 83.0425 66.6561C82.9726 65.5597 82.8954 64.513 82.8108 63.516C82.7401 62.4966 82.6547 61.5766 82.5547 60.756C83.5115 60.1821 84.5718 59.6794 85.7354 59.248C86.8946 58.7984 88.0644 58.4327 89.2445 58.1508C89.9526 57.9817 90.5531 57.9247 91.046 57.9797C91.5571 58.0303 91.9766 58.1796 92.3045 58.4276C92.6462 58.653 92.9192 58.9525 93.1236 59.3259C93.3279 59.6993 93.4886 60.1311 93.6057 60.6214C93.7791 61.3476 93.8233 62.0951 93.7382 62.8639C93.6488 63.6145 93.4621 64.3596 93.1781 65.0991C92.9079 65.8162 92.5543 66.5052 92.1172 67.1661C91.694 67.8046 91.2036 68.3631 90.6462 68.8417C91.1464 69.4898 91.6822 70.2063 92.2535 70.9911C92.8385 71.7534 93.3877 72.4858 93.9009 73.1885C94.4809 74.0096 95.0699 74.8285 95.668 75.6453L91.7979 78.124C91.1573 77.0488 90.5703 76.0374 90.037 75.0901C89.8101 74.7028 89.5812 74.3065 89.35 73.9011C89.1145 73.4776 88.8946 73.0791 88.6903 72.7057C88.4859 72.3323 88.3106 71.9999 88.1643 71.7086C88.0136 71.3991 87.9053 71.1467 87.8395 70.9513L87.5114 71.1448C87.5413 71.7518 87.5677 72.4652 87.5907 73.2849C87.6319 74.1003 87.6757 74.8863 87.7221 75.6429C87.7625 76.5353 87.805 77.4367 87.8497 78.3472L83.711 80.5447ZM87.2882 67.1967C87.6245 67.078 88.0074 66.833 88.4369 66.4617C88.8846 66.0861 89.2942 65.6717 89.6657 65.2183C90.0329 64.7468 90.3344 64.2813 90.5701 63.822C90.8059 63.3627 90.8891 62.9878 90.8197 62.6973C90.772 62.4976 90.6716 62.3584 90.5185 62.2798C90.361 62.1831 90.1578 62.1357 89.9087 62.1376C89.6735 62.117 89.4176 62.1301 89.1409 62.177C88.8642 62.2239 88.5806 62.282 88.2901 62.3514C88.0904 62.3991 87.8838 62.458 87.6703 62.5282C87.4705 62.5759 87.289 62.6193 87.1256 62.6583L87.2882 67.1967ZM113.5 58.6914C113.725 59.6355 113.83 60.6757 113.813 61.812C113.792 62.9301 113.662 64.0742 113.424 65.2443C113.181 66.3963 112.811 67.5401 112.315 68.6758C111.832 69.789 111.223 70.8172 110.489 71.7602C109.75 72.6851 108.888 73.4955 107.903 74.1914C106.936 74.883 105.844 75.374 104.628 75.6645C104.373 75.7253 104.115 75.7678 103.852 75.7922C103.594 75.8347 103.333 75.8682 103.07 75.8926C102.962 73.27 102.86 70.7131 102.764 68.2219C102.707 67.18 102.65 66.0995 102.594 64.9806C102.534 63.8436 102.469 62.7268 102.399 61.6304C102.329 60.534 102.261 59.4852 102.194 58.4839C102.146 57.4782 102.083 56.5721 102.006 55.7653C102.752 55.4336 103.509 55.1088 104.277 54.791C105.046 54.4731 105.848 54.2144 106.683 54.015C107.663 53.7808 108.526 53.7378 109.272 53.8861C110.035 54.0299 110.691 54.3244 111.239 54.7693C111.805 55.2099 112.274 55.7695 112.647 56.4481C113.02 57.1266 113.305 57.8744 113.5 58.6914ZM106.565 58.1021C106.621 59.221 106.657 60.2967 106.674 61.3292C106.69 62.3616 106.708 63.4032 106.729 64.4538C106.75 65.5044 106.781 66.6004 106.823 67.7418C106.866 68.8832 106.941 70.1223 107.049 71.4591C107.415 71.0645 107.74 70.5744 108.022 69.9888C108.318 69.3807 108.57 68.7065 108.777 67.9662C108.984 67.2258 109.146 66.4578 109.263 65.6622C109.398 64.8623 109.492 64.0913 109.546 63.3493C109.599 62.6074 109.608 61.9238 109.574 61.2986C109.558 60.6691 109.498 60.1365 109.394 59.7008C109.233 59.029 108.917 58.548 108.445 58.2578C107.991 57.9632 107.364 57.9113 106.565 58.1021ZM116.179 72.7906L115.123 52.5751L123.553 49.7845C123.521 50.2143 123.51 50.6488 123.519 51.0881C123.511 51.4547 123.506 51.8395 123.507 52.2425C123.521 52.623 123.535 52.9649 123.55 53.2684C123.373 53.33 123.114 53.411 122.774 53.5115C122.447 53.5896 122.095 53.6832 121.718 53.7924C121.337 53.8835 120.946 53.9767 120.547 54.0721C120.166 54.1632 119.83 54.2434 119.539 54.3128L119.75 59.4153C120.304 59.2446 120.824 59.0916 121.31 58.9564C121.705 58.8428 122.112 58.7362 122.529 58.6364C122.947 58.5367 123.253 58.4539 123.449 58.3881C123.498 58.9138 123.544 59.4304 123.589 59.938C123.651 60.4412 123.698 60.9578 123.728 61.4879C123.551 61.5494 123.256 61.6391 122.843 61.757C122.443 61.8524 122.037 61.959 121.624 62.0769C121.156 62.2078 120.643 62.3495 120.084 62.5021L120.355 67.7343L124.182 66.1583L124.651 69.3281L116.179 72.7906ZM136.102 67.4282C135.665 67.6092 135.185 67.8102 134.662 68.031C134.139 68.2519 133.669 68.4507 133.25 68.6274C133.18 68.0109 133.112 67.4035 133.045 66.8051C132.978 66.2837 132.902 65.7645 132.817 65.2475C132.75 64.7261 132.692 64.2795 132.641 63.9077L130.272 64.4736L130.119 68.6555C129.733 68.8053 129.276 68.9816 128.749 69.1843C128.217 69.3689 127.721 69.5447 127.262 69.7119C126.699 69.9233 126.144 70.1325 125.599 70.3396C125.748 67.7514 125.897 65.2017 126.046 62.6904C126.102 61.6406 126.157 60.5432 126.21 59.3983C126.281 58.2491 126.345 57.1111 126.402 55.9843C126.473 54.835 126.537 53.7355 126.593 52.6857C126.649 51.6359 126.689 50.6765 126.712 49.8074C127.925 49.4218 129.151 49.0136 130.392 48.583C131.651 48.1481 132.862 47.6764 134.027 47.168C134.111 47.762 134.221 48.5034 134.356 49.3923C134.506 50.2586 134.675 51.2067 134.863 52.2364C135.051 53.2662 135.25 54.3413 135.461 55.4618C135.671 56.5824 135.876 57.6847 136.078 58.769C136.585 61.2962 137.121 63.9799 137.684 66.8201C137.161 67.041 136.633 67.2437 136.102 67.4282ZM130.275 61.5941C130.348 61.5767 130.475 61.5464 130.656 61.503C130.852 61.4372 131.049 61.3804 131.249 61.3327C131.463 61.2625 131.66 61.2057 131.842 61.1624C132.019 61.1009 132.142 61.0523 132.21 61.0168C132.184 60.9079 132.15 60.7242 132.107 60.4657C132.078 60.1846 132.034 59.8786 131.974 59.5474C131.928 59.1938 131.876 58.8129 131.816 58.4048C131.757 57.9967 131.7 57.5977 131.646 57.2077C131.497 56.2644 131.35 55.2442 131.203 54.1469L130.8 51.7385L130.398 51.8633L130.331 54.3551L130.275 61.5941ZM146.273 64.6537C145.71 64.7881 145.115 64.9494 144.488 65.1375C143.88 65.3212 143.266 65.5253 142.648 65.7496C142.03 65.974 141.427 66.2235 140.841 66.498C140.267 66.75 139.755 67.0163 139.304 67.2968C139.218 66.4537 139.128 65.5156 139.035 64.4823C138.942 63.449 138.858 62.3751 138.784 61.2605C138.728 60.1416 138.66 59.0158 138.582 57.8831C138.521 56.746 138.472 55.6543 138.433 54.6081C138.319 52.1212 138.221 49.5825 138.14 46.9918L142.756 45.2272C142.769 47.4504 142.787 49.6148 142.81 51.7204C142.814 52.6214 142.827 53.5587 142.848 54.5324C142.865 55.4879 142.887 56.4231 142.913 57.3379C142.94 58.2528 142.978 59.1361 143.028 59.9878C143.078 60.8395 143.133 61.5939 143.194 62.2511C143.64 62.1063 144.116 61.9733 144.625 61.8519C145.147 61.708 145.608 61.5883 146.007 61.4929C146.108 61.8336 146.217 62.172 146.336 62.5083C146.45 62.8264 146.558 63.1174 146.66 63.381C146.779 63.6404 146.874 63.8768 146.944 64.0903C147.028 64.2814 147.088 64.411 147.123 64.4793C146.978 64.514 146.833 64.5487 146.688 64.5834C146.556 64.5956 146.418 64.619 146.273 64.6537ZM152.115 57.3571C151.588 57.4828 151.066 57.6267 150.548 57.7888C150.03 57.9508 149.513 58.1129 148.995 58.275C149.024 55.9073 149.038 53.5531 149.035 51.2124C149.051 48.8672 149.083 46.5087 149.13 44.1367C149.462 43.9999 149.84 43.8522 150.262 43.6937C150.703 43.5308 151.142 43.3588 151.578 43.1778C152.015 42.9968 152.436 42.8292 152.84 42.675C153.263 42.5165 153.613 42.3753 153.891 42.2514C153.456 44.7732 153.108 47.2937 152.846 49.8128C152.598 52.3094 152.354 54.8242 152.115 57.3571ZM153.408 61.5678C153.491 61.9128 153.491 62.2772 153.41 62.6612C153.347 63.0409 153.203 63.4016 152.978 63.7433C152.748 64.0669 152.433 64.3533 152.032 64.6026C151.635 64.8701 151.155 65.071 150.592 65.2054C150.211 65.2965 149.849 65.3063 149.505 65.2347C149.162 65.1632 148.862 65.0332 148.606 64.8449C148.364 64.6341 148.151 64.3874 147.969 64.1047C147.786 63.8221 147.658 63.5264 147.584 63.2178C147.502 62.8728 147.478 62.533 147.514 62.1983C147.544 61.8455 147.641 61.5251 147.802 61.237C147.977 60.9264 148.209 60.6504 148.497 60.409C148.803 60.1632 149.192 59.9839 149.664 59.8712C150.717 59.6197 151.567 59.6853 152.215 60.0679C152.859 60.4324 153.257 60.9323 153.408 61.5678Z" fill="black"/>
<defs>
<filter id="filter0_d_508_1661" x="5.37891" y="19.2655" width="199.244" height="100.522" filterUnits="userSpaceOnUse" color-interpolation-filters="sRGB">
<feFlood flood-opacity="0" result="BackgroundImageFix"/>
<feColorMatrix in="SourceAlpha" type="matrix" values="0 0 0 0 0 0 0 0 0 0 0 0 0 0 0 0 0 0 127 0" result="hardAlpha"/>
<feOffset dy="4"/>
<feGaussianBlur stdDeviation="2"/>
<feComposite in2="hardAlpha" operator="out"/>
<feColorMatrix type="matrix" values="0 0 0 0 0 0 0 0 0 0 0 0 0 0 0 0 0 0 0.25 0"/>
<feBlend mode="normal" in2="BackgroundImageFix" result="effect1_dropShadow_508_1661"/>
<feBlend mode="normal" in="SourceGraphic" in2="effect1_dropShadow_508_1661" result="shape"/>
</filter>
</defs>
</svg>
