<svg width="205" height="128" viewBox="0 0 205 128" fill="none" xmlns="http://www.w3.org/2000/svg">
<g filter="url(#filter0_d_746_4045)">
<path d="M175.338 45.7821C176.994 52.7164 175.22 60.0533 170.691 67.2211C170.653 67.2816 170.618 67.3423 170.587 67.4031C167.925 72.5341 188.995 78.5351 200.623 78.2981C200.327 78.5389 156.249 82.7332 155.947 82.9723C142.861 93.3313 124.22 102.2 102.652 107.35C56.9916 118.255 15.5048 108.37 9.98839 85.2711C4.47195 62.1724 37.0149 34.6074 82.675 23.7028C128.335 12.7982 169.822 22.6834 175.338 45.7821Z" fill="white"/>
<path d="M178.06 80.156C172.573 80.7043 167.098 81.2514 162.962 81.6776C160.872 81.8929 159.123 82.0775 157.886 82.2158C157.267 82.2849 156.775 82.3427 156.431 82.3872C156.26 82.4093 156.121 82.4287 156.021 82.445C155.971 82.453 155.925 82.4613 155.886 82.4698C155.867 82.4739 155.842 82.4798 155.815 82.4879C155.802 82.4919 155.782 82.4986 155.759 82.5083C155.743 82.5151 155.691 82.537 155.636 82.5803C142.618 92.8863 124.046 101.727 102.536 106.864C79.7655 112.302 58.0598 112.549 41.3821 108.576C24.6736 104.594 13.166 96.4238 10.4747 85.1549C7.78347 73.8861 14.3572 61.3973 27.4636 50.2957C40.5459 39.2145 60.021 29.6271 82.7911 24.1891C105.561 18.7511 127.267 18.5037 143.945 22.4776C160.653 26.4588 172.161 34.6294 174.852 45.8982C176.468 52.6653 174.748 59.8644 170.269 66.954C170.223 67.0261 170.181 67.099 170.143 67.1728C169.724 67.9794 169.784 68.8084 170.194 69.5867C170.59 70.3402 171.311 71.0491 172.23 71.7095C174.074 73.0339 176.878 74.2766 180.089 75.3383C184.443 76.7777 189.624 77.9093 194.342 78.4525L178.06 80.156Z" stroke="black"/>
</g>
<path d="M72.4663 55.6945L72.4117 49.9213C72.2253 49.1405 72.0055 48.3006 71.7524 47.4015C71.5131 46.4799 71.2557 45.5626 70.98 44.6496C70.7044 43.7367 70.4375 42.86 70.1792 42.0197C69.9166 41.1612 69.6891 40.4095 69.4967 39.7646C69.3 39.1015 69.1358 38.5745 69.0041 38.1838C68.8724 37.793 68.8065 37.5976 68.8065 37.5976L72.8424 34.8489L73.6359 38.1715C73.7443 38.6254 73.8549 39.0884 73.9676 39.5604C74.0803 40.0325 74.1818 40.4977 74.2721 40.9559C74.3805 41.4098 74.4824 41.8365 74.5778 42.2359C74.6732 42.6353 74.7534 42.9712 74.8184 43.2436C74.907 42.5699 75.0063 41.7401 75.1163 40.7543C75.2445 39.7641 75.3519 38.8076 75.4386 37.8849C75.5451 36.8039 75.6477 35.6663 75.7463 34.4721L80.1952 34.4172C79.7874 36.165 79.3956 37.8995 79.0198 39.6205C78.8715 40.366 78.7117 41.1431 78.5401 41.9517C78.3643 42.7422 78.1906 43.5417 78.0191 44.3504C77.8432 45.1408 77.6721 45.911 77.5057 46.6608C77.3393 47.4106 77.1894 48.1086 77.0558 48.7546C77.0777 49.2483 77.0833 49.794 77.0725 50.3915C77.0798 50.9847 77.0806 51.5506 77.0749 52.0894C77.0546 52.7275 77.0252 53.3679 76.9867 54.0104L72.4663 55.6945ZM82.116 53.8505L81.0593 33.6351L89.4897 30.8444C89.458 31.2742 89.4466 31.7088 89.4555 32.148C89.4471 32.5147 89.4431 32.8995 89.4434 33.3024C89.4574 33.6829 89.472 34.0249 89.4869 34.3284C89.3096 34.3899 89.0507 34.4709 88.7101 34.5715C88.3833 34.6495 88.0314 34.7432 87.6545 34.8524C87.2732 34.9434 86.8828 35.0367 86.4834 35.132C86.1021 35.2231 85.7662 35.3033 85.4757 35.3727L85.6868 40.4752C86.2409 40.3045 86.7609 40.1515 87.2468 40.0163C87.6419 39.9028 88.0483 39.7961 88.4659 39.6964C88.8834 39.5967 89.1899 39.5139 89.3853 39.448C89.4341 39.9737 89.4807 40.4904 89.5252 40.9979C89.5878 41.5012 89.6344 42.0178 89.665 42.5478C89.4878 42.6094 89.1925 42.6991 88.7793 42.8169C88.3799 42.9123 87.9735 43.019 87.5603 43.1369C87.0925 43.2678 86.5794 43.4095 86.0209 43.5621L86.2917 48.7943L90.1183 47.2183L90.5874 50.388L82.116 53.8505ZM102.604 41.8182C102.847 42.8349 102.869 43.8086 102.669 44.7392C102.483 45.6473 102.125 46.4811 101.596 47.2407C101.086 47.9959 100.416 48.6454 99.586 49.189C98.7744 49.7282 97.8512 50.1215 96.8163 50.3686C96.09 50.5421 95.3182 50.5249 94.5009 50.317C93.6793 50.091 92.8307 49.6316 91.9551 48.9387L93.0274 44.5084C93.2108 44.7141 93.46 44.9137 93.7749 45.1072C94.0855 45.2825 94.4167 45.4241 94.7688 45.5319C95.1389 45.6354 95.4935 45.7139 95.8325 45.7673C96.1853 45.7982 96.4888 45.7832 96.743 45.7225C96.9609 45.6705 97.1792 45.58 97.3979 45.451C97.6166 45.322 97.8084 45.161 97.9734 44.9681C98.1385 44.7751 98.2538 44.5749 98.3193 44.3673C98.3987 44.1372 98.4081 43.8951 98.3474 43.6409C98.2433 43.2052 98.0027 42.8404 97.6255 42.5467C97.2621 42.2305 96.8325 41.9588 96.3369 41.7317C95.8369 41.4865 95.3006 41.2499 94.728 41.022C94.1554 40.7941 93.6148 40.5394 93.1062 40.2579C92.6157 39.972 92.1688 39.6277 91.7656 39.225C91.3624 38.8223 91.0914 38.3305 90.9526 37.7495C90.7271 36.8054 90.7982 35.8576 91.166 34.9062C91.5337 33.9547 92.0658 33.0888 92.7622 32.3083C93.4724 31.5054 94.2856 30.8122 95.2018 30.2287C96.118 29.6453 97.021 29.2473 97.9106 29.0349C98.4008 28.9178 98.879 28.8708 99.3451 28.8938C99.8068 28.8987 100.225 29.0004 100.598 29.199C100.986 29.3752 101.318 29.6413 101.595 29.9974C101.89 30.3491 102.109 30.8245 102.252 31.4237C102.313 31.6779 102.346 31.9386 102.353 32.2058C102.377 32.4686 102.406 32.7496 102.439 33.0488L98.7631 35.1357C98.7647 34.9818 98.7573 34.83 98.7407 34.6805C98.7424 34.5265 98.7258 34.377 98.6911 34.2317C98.5611 33.687 98.368 33.3205 98.1119 33.1322C97.8696 32.9214 97.5942 32.8528 97.2855 32.9265C97.1403 32.9612 96.9717 33.059 96.7798 33.22C96.6061 33.3766 96.432 33.5718 96.2575 33.8053C96.0968 34.0164 95.972 34.2574 95.8832 34.5281C95.7943 34.7988 95.7824 35.0703 95.8474 35.3427C95.9515 35.7784 96.1562 36.1133 96.4616 36.3475C96.7852 36.5773 97.1589 36.7759 97.5827 36.9434C98.0065 37.1108 98.4598 37.2809 98.9424 37.4535C99.4388 37.6036 99.9185 37.8441 100.381 38.175C100.844 38.5058 101.27 38.9608 101.657 39.5399C102.059 40.0965 102.375 40.8559 102.604 41.8182ZM104.617 51.6435C104.589 50.8825 104.565 50.1013 104.547 49.2997C104.532 48.5163 104.515 47.7622 104.496 47.0376C104.472 46.2949 104.443 45.6109 104.409 44.9857C104.393 44.3562 104.358 43.808 104.304 43.3411C104.449 43.3064 104.678 43.2613 104.991 43.2057C105.318 43.1277 105.563 43.0691 105.727 43.0301C105.981 42.9694 106.308 42.8914 106.707 42.796C107.125 42.6962 107.531 42.5896 107.926 42.4761C108.339 42.3582 108.771 42.2359 109.22 42.1094C109.235 42.8159 109.227 43.6624 109.193 44.6491C109.174 45.6133 109.137 46.5818 109.081 47.5546C109.026 48.5275 108.963 49.55 108.893 50.6223L104.617 51.6435ZM58.0108 81.2144C58.5795 83.5954 58.7067 85.8845 58.3925 88.0816C58.0726 90.2553 57.4319 92.2219 56.4703 93.9814C55.5032 95.7176 54.2857 97.1804 52.8178 98.3699C51.35 99.5594 49.729 100.366 47.9549 100.79L47.092 94.8517C47.8623 94.6677 48.567 94.3637 49.206 93.9397C49.8627 93.4868 50.4099 92.9366 50.8475 92.2893C51.3084 91.6363 51.6509 90.9007 51.8749 90.0822C52.1167 89.2349 52.2367 88.3426 52.235 87.4054C51.7761 87.8604 51.2627 88.2421 50.6948 88.5505C50.1503 88.8532 49.5862 89.0743 49.0026 89.2137C48.2089 89.4032 47.3879 89.4266 46.5395 89.2838C45.7144 89.1353 44.9404 88.839 44.2175 88.3948C43.5123 87.9217 42.8726 87.3095 42.2984 86.5584C41.7476 85.8016 41.3439 84.8863 41.0875 83.8125C40.7808 82.5286 40.7411 81.3291 40.9683 80.2138C41.2132 79.0696 41.6372 78.0554 42.2403 77.1711C42.8667 76.2812 43.6283 75.5442 44.5251 74.9599C45.4397 74.3466 46.4105 73.9174 47.4377 73.6721C48.4648 73.4268 49.5248 73.371 50.6178 73.5048C51.7108 73.6386 52.7372 74.0103 53.6971 74.62C54.6514 75.2064 55.5069 76.0508 56.2637 77.1531C57.0382 78.2266 57.6206 79.5803 58.0108 81.2144ZM46.6361 81.7842C46.82 82.5545 47.2106 83.0534 47.8078 83.2809C48.405 83.5085 49.007 83.5497 49.614 83.4048C50.1976 83.2654 50.6954 82.9738 51.1076 82.5299C51.5198 82.086 51.6506 81.5489 51.5001 80.9187C51.2436 79.8449 50.8752 79.1803 50.3947 78.9249C49.932 78.6406 49.4322 78.5626 48.8953 78.6908C48.5918 78.7632 48.279 78.8997 47.9567 79.1C47.6344 79.3003 47.3583 79.539 47.1283 79.816C46.9217 80.0874 46.7613 80.3972 46.647 80.7452C46.5505 81.0644 46.5469 81.4107 46.6361 81.7842ZM76.115 76.8907C76.6836 79.2718 76.8108 81.5608 76.4966 83.7579C76.1768 85.9317 75.5361 87.8983 74.5745 89.6578C73.6073 91.3939 72.3898 92.8568 70.922 94.0463C69.4541 95.2358 67.8332 96.0424 66.0591 96.466L65.1961 90.5281C65.9665 90.3441 66.6711 90.0401 67.3101 89.6161C67.9669 89.1631 68.514 88.613 68.9516 87.9656C69.4126 87.3127 69.755 86.577 69.9791 85.7586C70.2208 84.9113 70.3409 84.019 70.3391 83.0817C69.8803 83.5368 69.3669 83.9185 68.799 84.2268C68.2544 84.5296 67.6903 84.7507 67.1067 84.89C66.3131 85.0796 65.492 85.1029 64.6436 84.9601C63.8186 84.8117 63.0446 84.5154 62.3216 84.0712C61.6164 83.598 60.9768 82.9859 60.4026 82.2347C59.8517 81.478 59.4481 80.5627 59.1916 79.4889C58.885 78.205 58.8453 77.0054 59.0724 75.8901C59.3173 74.746 59.7413 73.7317 60.3444 72.8474C60.9709 71.9576 61.7325 71.2205 62.6293 70.6362C63.5438 70.023 64.5147 69.5937 65.5418 69.3485C66.5689 69.1032 67.629 69.0474 68.7219 69.1812C69.8149 69.3149 70.8413 69.6867 71.8012 70.2964C72.7555 70.8828 73.6111 71.7271 74.3678 72.8295C75.1424 73.9029 75.7248 75.2567 76.115 76.8907ZM64.7402 77.4605C64.9242 78.2309 65.3148 78.7298 65.912 78.9573C66.5091 79.1848 67.1112 79.2261 67.7181 79.0811C68.3017 78.9418 68.7996 78.6501 69.2118 78.2063C69.6239 77.7624 69.7547 77.2253 69.6042 76.595C69.3478 75.5212 68.9793 74.8566 68.4989 74.6012C68.0362 74.3169 67.5364 74.2389 66.9995 74.3671C66.696 74.4396 66.3831 74.576 66.0608 74.7764C65.7386 74.9767 65.4625 75.2154 65.2325 75.4924C65.0259 75.7638 64.8655 76.0735 64.7512 76.4216C64.6547 76.7407 64.651 77.087 64.7402 77.4605ZM92.7098 89.4392C92.147 89.5736 91.5522 89.7349 90.9254 89.9229C90.3167 90.1067 89.7034 90.3107 89.0852 90.5351C88.4671 90.7595 87.8646 91.0089 87.2776 91.2835C86.7045 91.5355 86.1923 91.8017 85.7411 92.0822C85.655 91.2392 85.5652 90.301 85.472 89.2678C85.3788 88.2345 85.295 87.1606 85.2208 86.046C85.1646 84.9271 85.0973 83.8013 85.0187 82.6685C84.9582 81.5315 84.9086 80.4398 84.8699 79.3935C84.7558 76.9067 84.658 74.3679 84.5767 71.7773L89.1931 70.0127C89.2058 72.2359 89.2238 74.4003 89.2468 76.5058C89.2509 77.4069 89.2636 78.3442 89.2851 79.3179C89.3022 80.2734 89.324 81.2085 89.3505 82.1234C89.3771 83.0382 89.4153 83.9215 89.4652 84.7732C89.5151 85.625 89.5705 86.3794 89.6315 87.0365C90.0767 86.8918 90.5535 86.7587 91.0619 86.6373C91.5841 86.4934 92.0449 86.3738 92.4443 86.2784C92.5449 86.619 92.6545 86.9575 92.7732 87.2938C92.8875 87.6119 92.9954 87.9028 93.0968 88.1665C93.2163 88.4258 93.3111 88.6623 93.3813 88.8758C93.4653 89.0668 93.5251 89.1965 93.5606 89.2648C93.4153 89.2995 93.2701 89.3342 93.1248 89.3689C92.9934 89.3811 92.8551 89.4045 92.7098 89.4392ZM94.8165 89.8861L93.7597 69.6706L102.19 66.88C102.158 67.3098 102.147 67.7443 102.156 68.1836C102.148 68.5502 102.144 68.935 102.144 69.338C102.158 69.7184 102.172 70.0604 102.187 70.3639C102.01 70.4254 101.751 70.5065 101.411 70.607C101.084 70.685 100.732 70.7787 100.355 70.8879C99.9736 70.9789 99.5833 71.0722 99.1838 71.1676C98.8025 71.2586 98.4667 71.3388 98.1762 71.4082L98.3872 76.5108C98.9414 76.34 99.4614 76.1871 99.9473 76.0518C100.342 75.9383 100.749 75.8316 101.166 75.7319C101.584 75.6322 101.89 75.5494 102.086 75.4835C102.135 76.0093 102.181 76.5259 102.226 77.0334C102.288 77.5367 102.335 78.0533 102.365 78.5834C102.188 78.6449 101.893 78.7346 101.48 78.8525C101.08 78.9479 100.674 79.0545 100.261 79.1724C99.793 79.3033 99.2799 79.445 98.7214 79.5976L98.9922 84.8298L102.819 83.2538L103.288 86.4235L94.8165 89.8861ZM106.512 87.3232C106.141 84.725 105.763 82.1765 105.377 79.6777C105.225 78.6393 105.051 77.5486 104.855 76.4056C104.677 75.2582 104.485 74.1334 104.279 73.031C104.087 71.9061 103.888 70.831 103.681 69.8056C103.471 68.762 103.272 67.8114 103.087 66.9537C103.522 66.8496 103.983 66.73 104.469 66.5948C104.973 66.4552 105.423 66.3286 105.818 66.2151C106.231 66.0972 106.581 65.9945 106.867 65.907C107.149 65.8013 107.29 65.7484 107.29 65.7484C107.593 67.9022 107.835 69.6773 108.015 71.0737C108.19 72.452 108.334 73.5786 108.447 74.4536C108.574 75.3061 108.695 76.1314 108.808 76.9295C108.94 77.7232 109.05 78.4646 109.138 79.1537C109.226 79.8429 109.299 80.4299 109.357 80.915L109.848 80.7979L109.438 65.5809C109.923 65.4457 110.416 65.2992 110.916 65.1415C111.361 64.9968 111.827 64.8568 112.313 64.7216C112.817 64.582 113.271 64.4351 113.676 64.281C113.612 65.1405 113.559 66.084 113.517 67.1113C113.492 68.1343 113.458 69.1979 113.415 70.3022C113.39 71.4021 113.369 72.5202 113.352 73.6564C113.354 74.7883 113.347 75.8839 113.331 76.9432C113.31 79.4241 113.303 81.9686 113.312 84.5765L106.512 87.3232ZM116.363 84.7403L115.306 64.5248L123.737 61.7342C123.705 62.164 123.693 62.5986 123.702 63.0378C123.694 63.4045 123.69 63.7893 123.69 64.1922C123.704 64.5727 123.719 64.9147 123.734 65.2182C123.556 65.2797 123.298 65.3607 122.957 65.4613C122.63 65.5393 122.278 65.633 121.901 65.7422C121.52 65.8332 121.13 65.9264 120.73 66.0218C120.349 66.1129 120.013 66.1931 119.723 66.2625L119.934 71.365C120.488 71.1943 121.008 71.0413 121.494 70.9061C121.889 70.7926 122.295 70.6859 122.713 70.5862C123.13 70.4865 123.437 70.4037 123.632 70.3378C123.681 70.8635 123.728 71.3802 123.772 71.8877C123.835 72.3909 123.881 72.9076 123.912 73.4376C123.735 73.4991 123.439 73.5888 123.026 73.7067C122.627 73.8021 122.22 73.9088 121.807 74.0266C121.339 74.1575 120.826 74.2993 120.268 74.4518L120.539 79.6841L124.365 78.1081L124.834 81.2778L116.363 84.7403ZM133.702 79.6495C133.139 79.7839 132.544 79.9452 131.917 80.1333C131.308 80.317 130.695 80.5211 130.077 80.7454C129.459 80.9698 128.856 81.2193 128.269 81.4938C127.696 81.7458 127.184 82.0121 126.733 82.2925C126.647 81.4495 126.557 80.5114 126.464 79.4781C126.371 78.4448 126.287 77.3709 126.213 76.2563C126.156 75.1374 126.089 74.0116 126.01 72.8789C125.95 71.7418 125.9 70.6501 125.862 69.6039C125.748 67.117 125.65 64.5783 125.568 61.9876L130.185 60.223C130.198 62.4462 130.216 64.6106 130.239 66.7162C130.243 67.6172 130.255 68.5545 130.277 69.5282C130.294 70.4837 130.316 71.4189 130.342 72.3337C130.369 73.2486 130.407 74.1319 130.457 74.9836C130.507 75.8353 130.562 76.5897 130.623 77.2468C131.068 77.1021 131.545 76.9691 132.054 76.8477C132.576 76.7038 133.037 76.5841 133.436 76.4887C133.537 76.8294 133.646 77.1678 133.765 77.5041C133.879 77.8222 133.987 78.1131 134.089 78.3768C134.208 78.6362 134.303 78.8726 134.373 79.0861C134.457 79.2772 134.517 79.4068 134.552 79.4751C134.407 79.5098 134.262 79.5445 134.117 79.5792C133.985 79.5914 133.847 79.6148 133.702 79.6495ZM146.042 70.5131C146.285 71.5298 146.306 72.5035 146.106 73.434C145.92 74.3421 145.563 75.1759 145.034 75.9355C144.524 76.6908 143.853 77.3402 143.024 77.8838C142.212 78.4231 141.289 78.8163 140.254 79.0635C139.528 79.2369 138.756 79.2197 137.939 79.0119C137.117 78.7859 136.268 78.3264 135.393 77.6335L136.465 73.2033C136.648 73.409 136.898 73.6085 137.213 73.802C137.523 73.9773 137.854 74.1189 138.206 74.2268C138.577 74.3303 138.931 74.4087 139.27 74.4621C139.623 74.493 139.926 74.4781 140.181 74.4174C140.399 74.3654 140.617 74.2748 140.835 74.1458C141.054 74.0169 141.246 73.8559 141.411 73.6629C141.576 73.47 141.691 73.2697 141.757 73.0622C141.836 72.8321 141.846 72.59 141.785 72.3358C141.681 71.9 141.44 71.5353 141.063 71.2415C140.7 70.9253 140.27 70.6536 139.775 70.4266C139.275 70.1813 138.738 69.9448 138.166 69.7169C137.593 69.489 137.052 69.2343 136.544 68.9527C136.053 68.6668 135.606 68.3225 135.203 67.9199C134.8 67.5172 134.529 67.0253 134.39 66.4443C134.165 65.5002 134.236 64.5525 134.604 63.601C134.971 62.6496 135.503 61.7836 136.2 61.0032C136.91 60.2002 137.723 59.507 138.639 58.9236C139.556 58.3401 140.459 57.9422 141.348 57.7297C141.838 57.6126 142.317 57.5656 142.783 57.5886C143.244 57.5935 143.662 57.6953 144.036 57.8939C144.423 58.07 144.756 58.3361 145.033 58.6922C145.328 59.0439 145.547 59.5194 145.69 60.1185C145.751 60.3727 145.784 60.6334 145.79 60.9006C145.815 61.1635 145.843 61.4445 145.876 61.7436L142.201 63.8306C142.202 63.6766 142.195 63.5249 142.178 63.3753C142.18 63.2214 142.163 63.0718 142.129 62.9266C141.999 62.3819 141.806 62.0154 141.549 61.827C141.307 61.6162 141.032 61.5477 140.723 61.6214C140.578 61.6561 140.409 61.7539 140.217 61.9149C140.044 62.0715 139.87 62.2666 139.695 62.5002C139.534 62.7113 139.41 62.9522 139.321 63.2229C139.232 63.4936 139.22 63.7652 139.285 64.0375C139.389 64.4733 139.594 64.8082 139.899 65.0423C140.223 65.2721 140.596 65.4707 141.02 65.6382C141.444 65.8057 141.897 65.9757 142.38 66.1483C142.876 66.2984 143.356 66.5389 143.819 66.8698C144.282 67.2007 144.707 67.6557 145.095 68.2347C145.497 68.7913 145.812 69.5508 146.042 70.5131ZM152.218 69.3259C151.692 69.4516 151.17 69.5955 150.652 69.7576C150.134 69.9196 149.616 70.0817 149.098 70.2438C149.128 67.8761 149.141 65.5219 149.139 63.1811C149.155 60.836 149.186 58.4775 149.234 56.1055C149.566 55.9687 149.943 55.821 150.366 55.6625C150.807 55.4996 151.246 55.3276 151.682 55.1466C152.119 54.9656 152.539 54.798 152.944 54.6438C153.367 54.4852 153.717 54.3441 153.994 54.2202C153.56 56.742 153.212 59.2625 152.95 61.7816C152.702 64.2782 152.458 66.793 152.218 69.3259ZM153.512 73.5366C153.594 73.8816 153.595 74.246 153.514 74.63C153.451 75.0097 153.307 75.3704 153.082 75.7121C152.852 76.0356 152.536 76.3221 152.135 76.5714C151.739 76.8389 151.259 77.0398 150.696 77.1742C150.315 77.2653 149.952 77.275 149.609 77.2035C149.266 77.132 148.966 77.002 148.71 76.8137C148.468 76.6029 148.255 76.3561 148.072 76.0735C147.89 75.7909 147.762 75.4952 147.688 75.1866C147.606 74.8416 147.582 74.5018 147.617 74.1671C147.648 73.8143 147.744 73.4939 147.906 73.2058C148.081 72.8952 148.313 72.6192 148.6 72.3778C148.906 72.132 149.295 71.9527 149.767 71.84C150.82 71.5885 151.671 71.6541 152.319 72.0367C152.962 72.4012 153.36 72.9011 153.512 73.5366Z" fill="black"/>
<defs>
<filter id="filter0_d_746_4045" x="5.37891" y="19.2656" width="199.244" height="100.522" filterUnits="userSpaceOnUse" color-interpolation-filters="sRGB">
<feFlood flood-opacity="0" result="BackgroundImageFix"/>
<feColorMatrix in="SourceAlpha" type="matrix" values="0 0 0 0 0 0 0 0 0 0 0 0 0 0 0 0 0 0 127 0" result="hardAlpha"/>
<feOffset dy="4"/>
<feGaussianBlur stdDeviation="2"/>
<feComposite in2="hardAlpha" operator="out"/>
<feColorMatrix type="matrix" values="0 0 0 0 0 0 0 0 0 0 0 0 0 0 0 0 0 0 0.25 0"/>
<feBlend mode="normal" in2="BackgroundImageFix" result="effect1_dropShadow_746_4045"/>
<feBlend mode="normal" in="SourceGraphic" in2="effect1_dropShadow_746_4045" result="shape"/>
</filter>
</defs>
</svg>
