<svg width="205" height="128" viewBox="0 0 205 128" fill="none" xmlns="http://www.w3.org/2000/svg">
<g filter="url(#filter0_d_746_3762)">
<path d="M175.338 45.7821C176.994 52.7164 175.22 60.0533 170.691 67.2211C170.653 67.2816 170.618 67.3423 170.587 67.4031C167.925 72.5341 188.995 78.5351 200.623 78.2981C200.327 78.5389 156.249 82.7332 155.947 82.9723C142.861 93.3313 124.22 102.2 102.652 107.35C56.9916 118.255 15.5048 108.37 9.98839 85.2711C4.47195 62.1724 37.0149 34.6074 82.675 23.7028C128.335 12.7982 169.822 22.6834 175.338 45.7821Z" fill="white"/>
<path d="M178.06 80.156C172.573 80.7043 167.098 81.2514 162.962 81.6776C160.872 81.8929 159.123 82.0775 157.886 82.2158C157.267 82.2849 156.775 82.3427 156.431 82.3872C156.26 82.4093 156.121 82.4287 156.021 82.445C155.971 82.453 155.925 82.4613 155.886 82.4698C155.867 82.4739 155.842 82.4798 155.815 82.4879C155.802 82.4919 155.782 82.4986 155.759 82.5083C155.743 82.5151 155.691 82.537 155.636 82.5803C142.618 92.8863 124.046 101.727 102.536 106.864C79.7655 112.302 58.0598 112.549 41.3821 108.576C24.6736 104.594 13.166 96.4238 10.4747 85.1549C7.78347 73.8861 14.3572 61.3973 27.4636 50.2957C40.5459 39.2145 60.021 29.6271 82.7911 24.1891C105.561 18.7511 127.267 18.5037 143.945 22.4776C160.653 26.4588 172.161 34.6294 174.852 45.8982C176.468 52.6653 174.748 59.8644 170.269 66.954C170.223 67.0261 170.181 67.099 170.143 67.1728C169.724 67.9794 169.784 68.8084 170.194 69.5867C170.59 70.3402 171.311 71.0491 172.23 71.7095C174.074 73.0339 176.878 74.2766 180.089 75.3383C184.443 76.7777 189.624 77.9093 194.342 78.4525L178.06 80.156Z" stroke="black"/>
</g>
<path d="M43.7542 59.1692C43.9797 60.1133 44.0842 61.1535 44.0677 62.2897C44.0468 63.4078 43.917 64.5519 43.6783 65.722C43.4352 66.874 43.0655 68.0178 42.5691 69.1536C42.0865 70.2668 41.478 71.2949 40.7436 72.238C40.0049 73.1629 39.1429 73.9733 38.1576 74.6692C37.1905 75.3607 36.0987 75.8518 34.8822 76.1423C34.628 76.203 34.3695 76.2455 34.1066 76.2699C33.8481 76.3125 33.5874 76.346 33.3246 76.3704C33.2164 73.7477 33.1144 71.1908 33.0184 68.6997C32.9615 67.6577 32.905 66.5773 32.8488 65.4584C32.7884 64.3213 32.7232 63.2046 32.6533 62.1082C32.5833 61.0118 32.5152 59.9629 32.4488 58.9616C32.4005 57.956 32.3376 57.0498 32.2601 56.2431C33.0062 55.9114 33.7634 55.5866 34.5319 55.2687C35.3005 54.9508 36.1023 54.6922 36.9375 54.4927C37.9179 54.2585 38.7809 54.2156 39.5264 54.3638C40.29 54.5077 40.9457 54.8021 41.4933 55.2471C42.0592 55.6877 42.5286 56.2473 42.9018 56.9258C43.275 57.6044 43.5591 58.3521 43.7542 59.1692ZM36.8197 58.5799C36.8758 59.6988 36.912 60.7744 36.9282 61.8069C36.9445 62.8394 36.9629 63.8809 36.9836 64.9315C37.0042 65.9821 37.0356 67.0782 37.0779 68.2195C37.1202 69.3609 37.1954 70.6 37.3036 71.9368C37.6699 71.5422 37.9943 71.0522 38.2766 70.4666C38.5728 69.8585 38.8244 69.1842 39.0315 68.4439C39.2385 67.7036 39.4005 66.9356 39.5176 66.14C39.6528 65.34 39.7469 64.569 39.8 63.8271C39.8531 63.0851 39.8626 62.4016 39.8285 61.7764C39.8125 61.1469 39.7524 60.6143 39.6484 60.1785C39.4879 59.5067 39.1716 59.0257 38.6992 58.7355C38.245 58.441 37.6185 58.3891 36.8197 58.5799ZM57.942 54.9172C58.2976 56.406 58.4702 57.8521 58.4599 59.2556C58.4635 60.6365 58.3342 61.9436 58.0722 63.1769C57.8058 64.392 57.4227 65.5199 56.9227 66.5605C56.4366 67.5786 55.8859 68.4873 55.2708 69.2867C54.6513 70.068 53.9903 70.7153 53.2876 71.2285C52.5806 71.7236 51.8731 72.0557 51.165 72.2248C50.5658 72.3679 49.9951 72.3891 49.4529 72.2883C48.9063 72.1693 48.3994 71.9353 47.9322 71.5863C47.4607 71.2191 47.0336 70.7166 46.651 70.0787C46.2822 69.4183 45.9807 68.5979 45.7465 67.6175C45.5037 66.6007 45.375 65.4992 45.3603 64.3128C45.3457 63.1264 45.424 61.9274 45.5952 60.7158C45.7665 59.5042 46.0506 58.3233 46.4476 57.1729C46.8446 56.0226 47.3333 54.9751 47.9137 54.0304C48.4898 53.0676 49.1594 52.2552 49.9225 51.5931C50.6856 50.9311 51.5392 50.4873 52.4833 50.2619C53.3003 50.0667 54.0133 50.0788 54.6222 50.298C55.2449 50.4947 55.7666 50.8308 56.1872 51.3061C56.6216 51.7589 56.9825 52.306 57.2701 52.9474C57.5576 53.5888 57.7816 54.2454 57.942 54.9172ZM49.6353 65.9403C49.683 66.14 49.7692 66.3401 49.8938 66.5406C50.0185 66.7412 50.1639 66.908 50.33 67.041C50.4961 67.1741 50.6851 67.2824 50.897 67.3662C51.1228 67.4274 51.3446 67.432 51.5625 67.38C52.3795 67.1849 53.0385 66.73 53.5396 66.0154C54.0406 65.3008 54.4024 64.4851 54.6248 63.5684C54.8473 62.6516 54.9569 61.7043 54.9536 60.7263C54.9685 59.7439 54.8849 58.8715 54.7028 58.1089C54.6508 57.8911 54.5762 57.6594 54.4792 57.4139C54.4004 57.164 54.2895 56.941 54.1467 56.7448C54.0221 56.5443 53.8516 56.3931 53.6354 56.2912C53.4329 56.1668 53.1865 56.1393 52.896 56.2087C52.315 56.3474 51.8141 56.6206 51.3932 57.0282C50.9724 57.4357 50.6208 57.9323 50.3384 58.5179C50.0699 59.081 49.8641 59.7059 49.721 60.3926C49.5736 61.0611 49.4668 61.7392 49.4007 62.4266C49.3484 63.0917 49.3484 63.7346 49.4008 64.3554C49.4531 64.9762 49.5312 65.5045 49.6353 65.9403ZM60.7818 69.9569C60.7021 67.2124 60.6147 64.556 60.5195 61.9879C60.4496 60.8915 60.3801 59.7566 60.311 58.5832C60.26 57.4055 60.1952 56.2503 60.1166 55.1175C60.0337 53.9667 59.9456 52.8746 59.8524 51.8413C59.7548 50.7899 59.6448 49.847 59.5223 49.0126C59.7626 48.9744 59.9645 48.9358 60.1279 48.8968C60.2913 48.8577 60.482 48.8122 60.6998 48.7602C60.954 48.6995 61.2627 48.6258 61.6258 48.539C61.9846 48.4342 62.3434 48.3293 62.7021 48.2244C63.0609 48.1195 63.4469 48.0082 63.8602 47.8903C64.4179 49.1005 64.9375 50.2718 65.4191 51.4043C65.866 52.3915 66.3193 53.4059 66.7792 54.4476C67.2573 55.4849 67.669 56.3653 68.0146 57.0889C68.0005 56.7084 67.9824 56.2713 67.9605 55.7776C67.9342 55.2657 67.9126 54.7335 67.8958 54.1809C67.879 53.6284 67.8531 53.078 67.8182 52.5298C67.797 51.9591 67.778 51.3975 67.7612 50.8449C67.7336 49.6041 67.7063 48.3247 67.6795 47.0069L70.9045 45.8049C70.9506 48.7302 71.0346 51.4929 71.1566 54.0931C71.1946 55.2163 71.2369 56.3577 71.2835 57.5173C71.3439 58.6543 71.4048 59.7529 71.466 60.813C71.523 61.8549 71.5919 62.8268 71.673 63.7287C71.7497 64.6124 71.8211 65.3534 71.8872 65.9517C71.8328 65.9647 71.6257 66.0622 71.2661 66.244C70.9203 66.4033 70.5154 66.596 70.0512 66.822C69.6051 67.0437 69.15 67.2675 68.6858 67.4935C68.2398 67.7152 67.9096 67.8996 67.6952 68.0468C67.2394 66.6203 66.7918 65.2686 66.3526 63.9918C66.1637 63.4419 65.9635 62.8852 65.7522 62.3215C65.5546 61.7354 65.3545 61.1786 65.1518 60.6513C64.9491 60.124 64.755 59.6329 64.5697 59.1782C64.3843 58.7235 64.2141 58.3323 64.0591 58.0047C64.087 58.3627 64.1098 58.7795 64.1274 59.2551C64.145 59.7306 64.1692 60.2335 64.1998 60.7635C64.2304 61.2936 64.2676 61.8508 64.3112 62.4354C64.3505 63.0017 64.3764 63.5521 64.3888 64.0865C64.4433 65.3593 64.4927 66.6909 64.5369 68.0814L60.7818 69.9569ZM77.2931 52.0806C77.3113 52.0762 77.2114 52.1001 76.9936 52.1521C76.7757 52.2042 76.5077 52.2873 76.1896 52.4017C75.8671 52.4979 75.5083 52.6028 75.1132 52.7163C74.7181 52.8299 74.3524 52.946 74.0161 53.0647C73.6936 53.1609 73.4166 53.2463 73.1849 53.3208C72.9488 53.3772 72.8308 53.4054 72.8308 53.4054C72.8514 53.1701 72.8728 52.858 72.895 52.4688C72.9311 52.0572 72.9606 51.6183 72.9836 51.1522C73.0205 50.6636 73.053 50.1569 73.0812 49.632C73.1275 49.1028 73.1669 48.5848 73.1994 48.078C73.2574 46.8743 73.3343 45.5893 73.4303 44.2229L75.6492 43.7506L78.0873 43.1108C77.9507 44.4676 77.8422 45.741 77.7617 46.9309C77.7067 47.4238 77.6561 47.9349 77.6097 48.4641C77.5591 48.9752 77.5132 49.466 77.472 49.9364C77.4446 50.3843 77.4086 50.796 77.3639 51.1713C77.3373 51.5423 77.3137 51.8454 77.2931 52.0806ZM82.8352 64.575C82.7758 62.4781 82.7048 60.4128 82.6221 58.379C82.5904 57.523 82.55 56.6306 82.5009 55.7019C82.4519 54.7732 82.3981 53.8649 82.3395 52.9769C82.2948 52.0664 82.2315 51.1987 82.1497 50.3738C82.0816 49.5264 82.0128 48.756 81.9431 48.0625C81.5126 48.1078 81.0815 48.1915 80.6501 48.3138C80.2369 48.4316 79.8063 48.4769 79.3583 48.4495C79.3071 48.1547 79.236 47.8166 79.1449 47.4354C79.0539 47.0541 78.9719 46.6706 78.899 46.285C78.8174 45.8631 78.7293 45.4139 78.6348 44.9376C79.1155 44.8611 79.5941 44.7756 80.0704 44.681C80.5468 44.5865 81.0211 44.4828 81.4931 44.3701C82.4191 44.1489 83.3044 43.9183 84.1491 43.6782C85.0075 43.4156 85.7934 43.1703 86.5066 42.9424C87.2337 42.692 87.9404 42.4369 88.6268 42.177L88.6785 43.7192C88.6874 44.1585 88.6985 44.6068 88.7118 45.0642C88.7433 45.5173 88.7595 45.9069 88.7606 46.2329C88.3872 46.4372 87.9982 46.6165 87.5936 46.7707C87.2029 46.9024 86.8164 47.0522 86.4343 47.2202C86.4547 47.8679 86.4833 48.5903 86.5201 49.3876C86.5527 50.1667 86.5939 50.9821 86.6437 51.8338C86.7074 52.663 86.7755 53.5104 86.8478 54.3759C86.9202 55.2415 86.9839 56.0707 87.0389 56.8636C87.1777 58.7304 87.3498 60.6564 87.5552 62.6417L82.8352 64.575ZM96.6531 61.0735C96.8753 58.4679 97.072 55.9164 97.2432 53.419C97.3177 52.3649 97.3904 51.2632 97.4614 50.1139C97.5324 48.9647 97.6056 47.8245 97.6809 46.6934C97.7562 45.5623 97.8129 44.474 97.8511 43.4285C97.9075 42.3787 97.9449 41.4102 97.9633 40.523C98.9619 40.2845 99.893 40.0046 100.757 39.6832C101.62 39.3618 102.559 39.0321 103.572 38.6942C103.613 39.1066 103.658 39.5757 103.706 40.1014C103.769 40.6046 103.82 41.1394 103.859 41.7058C103.917 42.2678 103.969 42.8502 104.017 43.4528C104.065 44.0555 104.134 44.8259 104.224 45.7641C104.314 46.7022 104.412 47.8782 104.52 49.2919L104.874 49.2074C105.071 47.7018 105.233 46.4539 105.361 45.4637C105.485 44.4553 105.587 43.6347 105.666 43.0016C105.745 42.3686 105.828 41.7537 105.916 41.157C106.018 40.5378 106.11 39.9592 106.192 39.4213C106.289 38.8609 106.382 38.3684 106.473 37.9438C106.918 37.7991 107.334 37.6518 107.72 37.5019C108.107 37.352 108.493 37.2022 108.88 37.0523C109.262 36.8843 109.646 36.7254 110.032 36.5755C110.433 36.4032 110.867 36.2131 111.336 36.0052C111.406 37.1016 111.491 38.2231 111.592 39.3696C111.693 40.5162 111.813 41.6584 111.95 42.7963C112.083 43.916 112.214 45.0266 112.343 46.1282C112.49 47.2254 112.632 48.266 112.772 49.2499C113.091 51.5533 113.425 53.7957 113.774 55.9772L109.236 57.9532C109.215 57.8624 109.165 57.6151 109.088 57.2113C109.029 56.8032 108.948 56.3043 108.846 55.7147C108.762 55.1207 108.671 54.461 108.575 53.7355C108.496 53.0058 108.409 52.2782 108.312 51.5527C108.234 50.823 108.162 50.1204 108.097 49.4451C108.027 48.7517 107.982 48.1581 107.96 47.6643L107.714 47.7229C107.642 48.5461 107.554 49.4213 107.449 50.3483C107.34 51.2572 107.226 52.1864 107.107 53.136C107.007 54.0812 106.902 55.0082 106.793 55.9171C106.683 56.826 106.602 57.6899 106.548 58.5089C105.917 58.6788 105.379 58.8361 104.933 58.9808C104.484 59.1074 103.964 59.2603 103.373 59.4397L101.832 49.1277L101.423 49.2253C101.443 49.47 101.448 49.8911 101.437 50.4887C101.422 51.068 101.401 51.7447 101.375 52.5186C101.363 53.2701 101.341 54.0622 101.309 54.8949C101.273 55.7095 101.236 56.4765 101.197 57.196C101.171 57.893 101.147 58.4745 101.124 58.9406C101.097 59.3886 101.08 59.6419 101.075 59.7007L96.6531 61.0735ZM119.843 55.1322C119.68 55.1712 119.36 55.2765 118.882 55.448C118.419 55.5971 117.942 55.7686 117.451 55.9626C116.955 56.1385 116.505 56.3036 116.101 56.4577C115.714 56.6076 115.505 56.696 115.473 56.7228C115.468 55.8987 115.444 54.9929 115.4 54.0055C115.37 52.9955 115.331 51.9492 115.284 50.8666C115.232 49.7659 115.169 48.6582 115.095 47.5436C115.02 46.4291 114.946 45.353 114.871 44.3154C114.697 41.9003 114.508 39.4218 114.304 36.8796L118.39 35.1841C118.553 37.7168 118.715 40.2019 118.875 42.6394C118.95 43.677 119.025 44.7531 119.099 45.8677C119.191 46.9779 119.272 48.0812 119.342 49.1776C119.43 50.2697 119.521 51.3324 119.614 52.3657C119.703 53.3808 119.78 54.3029 119.843 55.1322ZM132.28 45.6273C132.523 46.6441 132.544 47.6177 132.344 48.5483C132.158 49.4564 131.8 50.2902 131.272 51.0498C130.761 51.805 130.091 52.4545 129.261 52.9981C128.45 53.5374 127.526 53.9306 126.492 54.1777C125.765 54.3512 124.994 54.334 124.176 54.1261C123.355 53.9002 122.506 53.4407 121.63 52.7478L122.703 48.3176C122.886 48.5232 123.135 48.7228 123.45 48.9163C123.761 49.0916 124.092 49.2332 124.444 49.341C124.814 49.4446 125.169 49.523 125.508 49.5764C125.861 49.6073 126.164 49.5924 126.418 49.5317C126.636 49.4796 126.854 49.3891 127.073 49.2601C127.292 49.1311 127.484 48.9702 127.649 48.7772C127.814 48.5843 127.929 48.384 127.995 48.1764C128.074 47.9464 128.083 47.7042 128.023 47.45C127.919 47.0143 127.678 46.6496 127.301 46.3558C126.937 46.0396 126.508 45.7679 126.012 45.5408C125.512 45.2956 124.976 45.059 124.403 44.8311C123.831 44.6033 123.29 44.3485 122.781 44.067C122.291 43.7811 121.844 43.4368 121.441 43.0341C121.038 42.6315 120.767 42.1396 120.628 41.5586C120.402 40.6145 120.474 39.6667 120.841 38.7153C121.209 37.7638 121.741 36.8979 122.437 36.1174C123.148 35.3145 123.961 34.6213 124.877 34.0379C125.793 33.4544 126.696 33.0565 127.586 32.844C128.076 32.7269 128.554 32.6799 129.02 32.7029C129.482 32.7078 129.9 32.8095 130.274 33.0082C130.661 33.1843 130.993 33.4504 131.27 33.8065C131.565 34.1582 131.784 34.6337 131.928 35.2328C131.988 35.487 132.022 35.7477 132.028 36.0149C132.052 36.2777 132.081 36.5587 132.114 36.8579L128.438 38.9448C128.44 38.7909 128.433 38.6392 128.416 38.4896C128.418 38.3357 128.401 38.1861 128.366 38.0408C128.236 37.4961 128.043 37.1296 127.787 36.9413C127.545 36.7305 127.269 36.6619 126.961 36.7356C126.816 36.7703 126.647 36.8682 126.455 37.0291C126.281 37.1858 126.107 37.3809 125.933 37.6145C125.772 37.8256 125.647 38.0665 125.558 38.3372C125.47 38.6079 125.458 38.8794 125.523 39.1518C125.627 39.5875 125.831 39.9225 126.137 40.1566C126.46 40.3864 126.834 40.585 127.258 40.7525C127.682 40.9199 128.135 41.09 128.618 41.2626C129.114 41.4127 129.594 41.6532 130.057 41.9841C130.519 42.3149 130.945 42.7699 131.333 43.349C131.734 43.9056 132.05 44.6651 132.28 45.6273ZM144.955 42.6003C145.197 43.6171 145.219 44.5907 145.019 45.5213C144.833 46.4294 144.475 47.2632 143.947 48.0228C143.436 48.778 142.766 49.4275 141.936 49.9711C141.124 50.5104 140.201 50.9036 139.166 51.1507C138.44 51.3242 137.668 51.307 136.851 51.0991C136.029 50.8731 135.181 50.4137 134.305 49.7208L135.377 45.2905C135.561 45.4962 135.81 45.6958 136.125 45.8893C136.436 46.0646 136.767 46.2062 137.119 46.314C137.489 46.4176 137.844 46.496 138.183 46.5494C138.535 46.5803 138.839 46.5654 139.093 46.5047C139.311 46.4526 139.529 46.3621 139.748 46.2331C139.967 46.1041 140.158 45.9432 140.324 45.7502C140.489 45.5573 140.604 45.357 140.669 45.1494C140.749 44.9194 140.758 44.6772 140.697 44.423C140.593 43.9873 140.353 43.6226 139.976 43.3288C139.612 43.0126 139.183 42.7409 138.687 42.5138C138.187 42.2686 137.651 42.032 137.078 41.8041C136.506 41.5762 135.965 41.3215 135.456 41.04C134.966 40.7541 134.519 40.4098 134.116 40.0071C133.712 39.6044 133.441 39.1126 133.303 38.5316C133.077 37.5875 133.148 36.6397 133.516 35.6883C133.884 34.7368 134.416 33.8709 135.112 33.0904C135.823 32.2875 136.636 31.5943 137.552 31.0109C138.468 30.4274 139.371 30.0294 140.261 29.817C140.751 29.6999 141.229 29.6529 141.695 29.6759C142.157 29.6808 142.575 29.7825 142.948 29.9812C143.336 30.1573 143.668 30.4234 143.945 30.7795C144.24 31.1312 144.459 31.6067 144.602 32.2058C144.663 32.46 144.697 32.7207 144.703 32.9879C144.727 33.2507 144.756 33.5317 144.789 33.8309L141.113 35.9178C141.115 35.7639 141.107 35.6122 141.091 35.4626C141.092 35.3087 141.076 35.1591 141.041 35.0138C140.911 34.4691 140.718 34.1026 140.462 33.9143C140.22 33.7035 139.944 33.6349 139.636 33.7086C139.49 33.7433 139.322 33.8412 139.13 34.0021C138.956 34.1588 138.782 34.3539 138.608 34.5875C138.447 34.7986 138.322 35.0395 138.233 35.3102C138.144 35.5809 138.132 35.8524 138.198 36.1248C138.302 36.5605 138.506 36.8955 138.812 37.1296C139.135 37.3594 139.509 37.558 139.933 37.7255C140.357 37.8929 140.81 38.063 141.292 38.2356C141.789 38.3857 142.269 38.6262 142.731 38.9571C143.194 39.2879 143.62 39.7429 144.007 40.322C144.409 40.8786 144.725 41.6381 144.955 42.6003ZM90.0817 78.0853C90.4372 79.5741 90.6099 81.0202 90.5996 82.4236C90.6031 83.8046 90.4739 85.1117 90.2119 86.3449C89.9455 87.56 89.5624 88.6879 89.0624 89.7285C88.5763 90.7466 88.0256 91.6554 87.4105 92.4548C86.791 93.2361 86.13 93.8833 85.4273 94.3966C84.7203 94.8917 84.0128 95.2238 83.3047 95.3929C82.7055 95.536 82.1348 95.5571 81.5926 95.4563C81.046 95.3374 80.5391 95.1034 80.0719 94.7544C79.6004 94.3872 79.1733 93.8846 78.7907 93.2467C78.4219 92.5863 78.1204 91.7659 77.8862 90.7855C77.6434 89.7688 77.5147 88.6672 77.5 87.4808C77.4854 86.2944 77.5637 85.0955 77.7349 83.8839C77.9062 82.6723 78.1903 81.4913 78.5873 80.341C78.9842 79.1906 79.4729 78.1431 80.0534 77.1985C80.6295 76.2356 81.2991 75.4232 82.0622 74.7612C82.8253 74.0991 83.6789 73.6554 84.623 73.4299C85.44 73.2348 86.153 73.2468 86.7619 73.4661C87.3846 73.6628 87.9063 73.9988 88.3269 74.4741C88.7613 74.9269 89.1222 75.474 89.4097 76.1155C89.6973 76.7569 89.9213 77.4135 90.0817 78.0853ZM81.775 89.1083C81.8227 89.308 81.9089 89.5082 82.0335 89.7087C82.1582 89.9092 82.3036 90.076 82.4697 90.2091C82.6358 90.3421 82.8248 90.4505 83.0367 90.5342C83.2625 90.5955 83.4843 90.6001 83.7021 90.548C84.5192 90.3529 85.1782 89.8981 85.6792 89.1835C86.1803 88.4689 86.542 87.6532 86.7645 86.7364C86.987 85.8197 87.0966 84.8723 87.0933 83.8943C87.1082 82.912 87.0246 82.0395 86.8425 81.277C86.7905 81.0591 86.7159 80.8274 86.6189 80.5819C86.5401 80.3321 86.4292 80.109 86.2864 79.9128C86.1617 79.7123 85.9913 79.5611 85.775 79.4592C85.5726 79.3348 85.3261 79.3073 85.0357 79.3767C84.4547 79.5155 83.9537 79.7886 83.5329 80.1962C83.1121 80.6038 82.7605 81.1004 82.4781 81.686C82.2096 82.2491 82.0038 82.874 81.8607 83.5607C81.7133 84.2292 81.6065 84.9072 81.5404 85.5947C81.4881 86.2597 81.4881 86.9026 81.5404 87.5234C81.5927 88.1443 81.6709 88.6726 81.775 89.1083ZM102.814 85.005C102.807 86.1006 102.654 87.0679 102.355 87.9069C102.075 88.7415 101.673 89.4707 101.151 90.0946C100.646 90.714 100.066 91.2173 99.4097 91.6042C98.7537 91.9912 98.0716 92.2693 97.3635 92.4384C96.9459 92.5381 96.5019 92.5674 96.0315 92.5262C95.5654 92.5032 95.1273 92.3967 94.7173 92.2067C94.3073 92.0168 93.9344 91.7412 93.5987 91.3799C93.2811 91.0144 93.0551 90.5502 92.9207 89.9874C92.9033 89.9147 92.886 89.8421 92.8686 89.7695C92.8513 89.6969 92.843 89.6221 92.8438 89.5451C92.7387 88.7834 92.642 87.8565 92.554 86.7644C92.4659 85.6723 92.376 84.5327 92.2844 83.3455C92.1928 82.1583 92.1194 80.9667 92.0641 79.7709C92.0044 78.5569 91.9436 77.4583 91.8815 76.4751C91.8376 75.4877 91.8055 74.6701 91.7851 74.0224C91.7605 73.3566 91.7489 72.9468 91.7506 72.7928C92.1232 72.6655 92.5662 72.5117 93.0797 72.3315C93.5933 72.1512 94.0726 71.9888 94.5179 71.8441C95.0677 71.6552 95.6085 71.4685 96.1401 71.2839C96.1927 73.5935 96.2499 75.6814 96.3117 77.5474C96.3305 78.349 96.3492 79.1505 96.3679 79.9521C96.4047 80.7494 96.4264 81.4831 96.4329 82.1532C96.4576 82.819 96.4718 83.401 96.4756 83.899C96.4933 84.3746 96.5005 84.7663 96.4972 85.0742C96.5121 85.3777 96.5284 85.7672 96.546 86.2428C96.5774 86.6959 96.6365 87.104 96.7232 87.4671C96.7926 87.7576 96.9238 87.9854 97.1167 88.1504C97.3053 88.2973 97.5086 88.3447 97.7264 88.2927C98.0351 88.219 98.2611 88.0402 98.4045 87.7565C98.5435 87.4546 98.6353 87.116 98.68 86.7407C98.7429 86.3611 98.7604 85.9922 98.7325 85.6343C98.7184 85.2538 98.7147 84.9572 98.7215 84.7445C98.7047 84.1919 98.6839 83.5828 98.6592 82.9169C98.6484 82.2286 98.6241 81.5243 98.5865 80.8041C98.5626 80.0613 98.5275 79.3116 98.4811 78.555C98.453 77.7941 98.42 77.0535 98.3823 76.3332C98.3094 74.6617 98.2144 72.938 98.0973 71.1619L102.172 69.901C102.172 69.901 102.183 70.1479 102.205 70.6416C102.227 71.1353 102.258 71.7899 102.3 72.6053C102.341 73.4207 102.39 74.3494 102.447 75.3913C102.522 76.4289 102.58 77.5184 102.623 78.6598C102.661 79.7831 102.697 80.8972 102.73 82.0023C102.778 83.0849 102.806 84.0858 102.814 85.005ZM107.593 89.5061C107.533 87.4092 107.462 85.3438 107.38 83.3101C107.348 82.454 107.307 81.5617 107.258 80.633C107.209 79.7043 107.156 78.796 107.097 77.908C107.052 76.9974 106.989 76.1297 106.907 75.3049C106.839 74.4575 106.77 73.6871 106.701 72.9936C106.27 73.0389 105.839 73.1226 105.408 73.2448C104.994 73.3627 104.564 73.408 104.116 73.3806C104.065 73.0858 103.993 72.7477 103.902 72.3664C103.811 71.9852 103.729 71.6017 103.656 71.2161C103.575 70.7942 103.487 70.345 103.392 69.8686C103.873 69.7922 104.351 69.7067 104.828 69.6121C105.304 69.5175 105.779 69.4139 106.251 69.3011C107.177 69.08 108.062 68.8494 108.907 68.6093C109.765 68.3467 110.551 68.1014 111.264 67.8735C111.991 67.6231 112.698 67.368 113.384 67.1081L113.436 68.6503C113.445 69.0895 113.456 69.5379 113.469 69.9953C113.501 70.4484 113.517 70.8379 113.518 71.1639C113.145 71.3683 112.756 71.5475 112.351 71.7017C111.96 71.8334 111.574 71.9833 111.192 72.1513C111.212 72.799 111.241 73.5214 111.278 74.3187C111.31 75.0978 111.351 75.9132 111.401 76.7649C111.465 77.5941 111.533 78.4415 111.605 79.307C111.678 80.1725 111.741 81.0017 111.796 81.7947C111.935 83.6615 112.107 85.5875 112.313 87.5728L107.593 89.5061Z" fill="black"/>
<defs>
<filter id="filter0_d_746_3762" x="5.37891" y="19.2656" width="199.244" height="100.522" filterUnits="userSpaceOnUse" color-interpolation-filters="sRGB">
<feFlood flood-opacity="0" result="BackgroundImageFix"/>
<feColorMatrix in="SourceAlpha" type="matrix" values="0 0 0 0 0 0 0 0 0 0 0 0 0 0 0 0 0 0 127 0" result="hardAlpha"/>
<feOffset dy="4"/>
<feGaussianBlur stdDeviation="2"/>
<feComposite in2="hardAlpha" operator="out"/>
<feColorMatrix type="matrix" values="0 0 0 0 0 0 0 0 0 0 0 0 0 0 0 0 0 0 0.25 0"/>
<feBlend mode="normal" in2="BackgroundImageFix" result="effect1_dropShadow_746_3762"/>
<feBlend mode="normal" in="SourceGraphic" in2="effect1_dropShadow_746_3762" result="shape"/>
</filter>
</defs>
</svg>
