<?xml version="1.0" encoding="UTF-8" standalone="no"?>
<!-- Uploaded to: SVG Repo, www.svgrepo.com, Generator: SVG Repo Mixer Tools -->

<svg
   fill="#000000"
   width="666.66669"
   height="666.66669"
   viewBox="0 0 20.000001 20.000001"
   version="1.1"
   id="svg1"
   sodipodi:docname="tiktok logo.svg"
   inkscape:version="1.3.1 (91b66b0, 2023-11-16)"
   xmlns:inkscape="http://www.inkscape.org/namespaces/inkscape"
   xmlns:sodipodi="http://sodipodi.sourceforge.net/DTD/sodipodi-0.dtd"
   xmlns="http://www.w3.org/2000/svg"
   xmlns:svg="http://www.w3.org/2000/svg">
  <defs
     id="defs1" />
  <sodipodi:namedview
     id="namedview1"
     pagecolor="#505050"
     bordercolor="#ffffff"
     borderopacity="1"
     inkscape:showpageshadow="0"
     inkscape:pageopacity="0"
     inkscape:pagecheckerboard="1"
     inkscape:deskcolor="#505050"
     inkscape:zoom="0.295"
     inkscape:cx="330.50847"
     inkscape:cy="333.89831"
     inkscape:window-width="1920"
     inkscape:window-height="1080"
     inkscape:window-x="0"
     inkscape:window-y="0"
     inkscape:window-maximized="0"
     inkscape:current-layer="svg1" />
  <path
     d="M 19,0 H 1 A 1,1 0 0 0 0,1 v 18 a 1,1 0 0 0 1,1 h 18 a 1,1 0 0 0 1,-1 V 1 A 1,1 0 0 0 19,0 Z m -3.281,8.725 v 0 C 15.61,8.736 15.5,8.741 15.391,8.742 A 3.571,3.571 0 0 1 12.4,7.129 v 5.493 A 4.061,4.061 0 1 1 8.34,8.562 c 0.085,0 0.167,0.008 0.251,0.013 v 2 A 2.067,2.067 0 1 0 8.34,14.694 2.123,2.123 0 0 0 10.5,12.649 l 0.02,-9.331 h 1.914 A 3.564,3.564 0 0 0 15.719,6.5 Z"
     id="path1" />
  <path
     style="opacity:0.992467;fill:#000000;stroke-width:3389.83;paint-order:stroke fill markers;fill-opacity:1"
     d="M 11.603651,654.49803 1.6949153,644.58932 V 334.21254 23.835773 L 11.585437,12.765344 21.475958,1.6949153 323.67037,0.77618169 c 207.0979,-0.62962067 306.44061,0.22464641 315.6878,2.71466001 9.36868,2.5227234 15.51471,6.9484323 20.1058,14.4780553 6.42603,10.539011 6.61274,19.374734 6.62505,313.495913 0.0136,323.61027 0.17396,320.39492 -16.42665,329.27929 -4.75959,2.54726 -101.44925,3.66268 -317.49689,3.66268 H 21.512386 Z M 335.4659,544.5621 c 36.44525,-16.68518 67.06583,-54.50237 76.19549,-94.10332 1.88492,-8.17607 3.46441,-57.69729 3.50997,-110.04719 l 0.0829,-95.18164 14.60627,13.99527 c 20.73685,19.8694 43.11664,29.57034 72.79712,31.55528 l 24.69152,1.65129 -0.96271,-38.50076 -0.96271,-38.50076 -14.08898,-2.39938 c -45.75848,-7.79271 -83.16306,-45.6298 -94.14573,-95.23428 l -2.06394,-9.32203 H 381.38366 347.6422 l -0.93973,167.20035 -0.93976,167.20036 -9.54024,14.41261 c -11.07676,16.7339 -37.26178,30.76227 -57.51779,30.81457 -49.62036,0.12817 -81.55257,-52.18057 -59.5721,-97.58616 8.67857,-17.92753 30.70968,-33.25546 52.49411,-36.52224 l 14.81399,-2.22149 v -34.00506 -34.00506 l -23.47724,1.96825 c -96.22269,8.06696 -152.90833,119.72634 -103.5438,203.96054 34.66666,59.15417 113.21435,83.63628 176.04626,54.87085 z"
     id="path2"
     transform="scale(0.03)" />
  <path
     style="opacity:0.992467;fill:#ffffff;fill-opacity:1;stroke-width:3389.83;paint-order:stroke fill markers"
     d="m 246.59635,550.75346 c -36.62785,-9.19787 -72.38655,-38.58905 -89.52426,-73.58271 -8.64673,-17.65587 -9.57332,-22.98167 -9.59285,-55.13685 -0.0199,-32.80633 0.79974,-37.31844 10.46839,-57.62712 11.38232,-23.9082 31.90745,-46.60393 53.68752,-59.36515 15.00202,-8.78988 48.57596,-18.60095 63.65332,-18.60095 h 9.45729 v 32.20339 32.20339 l -11.01695,0.0745 c -26.37789,0.17825 -56.46303,24.41938 -63.71063,51.33493 -8.28719,30.77627 7.41579,67.08031 34.73541,80.3055 40.82496,19.76302 90.5569,-0.34309 102.79693,-41.55972 4.07871,-13.73451 4.99185,-45.2211 4.99185,-172.12635 v -155.317 h 30.10605 30.10605 l 4.01573,16.1017 c 10.41163,41.74716 44.59703,74.51185 89.5539,85.83212 l 15.7098,3.95578 v 35.19079 35.1908 h -11.24915 c -15.37536,0 -44.84891,-9.11919 -59.62873,-18.44928 -6.71589,-4.23956 -17.91859,-14.02622 -24.89488,-21.74815 -6.9763,-7.72192 -13.37357,-14.03986 -14.21617,-14.03986 -0.8426,0 -1.99063,49.95763 -2.55119,111.01695 l -1.0192,111.01695 -9.59285,19.54363 c -21.91224,44.64203 -66.06803,74.0422 -113.87639,75.82217 -14.12582,0.52589 -31.40987,-0.48184 -38.40899,-2.23946 z"
     id="path3"
     transform="scale(0.03)" />
</svg>
